<?xml version='1.0' encoding='utf-8'?>
<svg height="135.20mm" viewBox="0.0 0.0 333.90 135.20" width="333.90mm" xmlns="http://www.w3.org/2000/svg" xmlns:cc="http://creativecommons.org/ns#" xmlns:dc="http://purl.org/dc/elements/1.1/" xmlns:inkscape="http://www.inkscape.org/namespaces/inkscape" xmlns:rdf="http://www.w3.org/1999/02/22-rdf-syntax-ns#" xmlns:svg="http://www.w3.org/2000/svg" xmlns:xlink="http://www.w3.org/1999/xlink">
<!--
RegularBox - Box with regular polygon as base


For short side walls that don't fit a connecting finger reduce *surroundingspaces* and *finger* in the Finger Joint Settings.

The lids needs to be glued. For the bayonet lid all outside rings attach to the bottom, all inside rings to the top.



Created with Boxes.py (https://boxes.hackerspace-bamberg.de/)
Creation date: 2026-04-15 11:23:38
Command line (remove spaces between dashes): boxes RegularBox - -h=15 - -n=6 - -top=hole - -spacing=0.5
Url: https://boxes.hackerspace-bamberg.de/RegularBox?FingerJoint_style=rectangular&FingerJoint_surroundingspaces=1.0&FingerJoint_bottom_lip=0.0&FingerJoint_edge_width=1.0&FingerJoint_extra_length=0.0&FingerJoint_finger=2.0&FingerJoint_play=0.0&FingerJoint_space=2.0&FingerJoint_width=1.0&h=15&outside=0&outside=1&radius_bottom=50.0&radius_top=50.0&n=6&top=hole&alignment_pins=1.0&bottom=closed&thickness=3.0&burn=0.1&format=svg&labels=0&labels=1&reference=100.0&tabs=0.0&qr_code=0&inner_corners=loop&spacing=0.5&debug=0&language=en&render=2
Url short: https://boxes.hackerspace-bamberg.de/RegularBox?h=15&n=6&top=hole&spacing=0.5
SettingsUrl: https://boxes.hackerspace-bamberg.de/RegularBox?FingerJoint_style=rectangular&FingerJoint_surroundingspaces=1.0&FingerJoint_bottom_lip=0.0&FingerJoint_edge_width=1.0&FingerJoint_extra_length=0.0&FingerJoint_finger=2.0&FingerJoint_play=0.0&FingerJoint_space=2.0&FingerJoint_width=1.0&h=15&outside=0&outside=1&radius_bottom=50.0&radius_top=50.0&n=6&top=hole&alignment_pins=1.0&bottom=closed&thickness=3.0&burn=0.1&format=svg&labels=0&labels=1&reference=100.0&tabs=0.0&qr_code=0&inner_corners=loop&spacing=0.5&debug=0&language=en&render=2
SettingsUrl short: https://boxes.hackerspace-bamberg.de/RegularBox?h=15&n=6&top=hole&spacing=0.5
-->
<title>RegularBox</title>
<metadata>
<rdf:RDF><cc:Work>
<dc:title>Box - RegularBox</dc:title>
<dc:date>2026-04-15 11:23:38</dc:date>
<dc:source>https://boxes.hackerspace-bamberg.de/RegularBox?FingerJoint_style=rectangular&amp;FingerJoint_surroundingspaces=1.0&amp;FingerJoint_bottom_lip=0.0&amp;FingerJoint_edge_width=1.0&amp;FingerJoint_extra_length=0.0&amp;FingerJoint_finger=2.0&amp;FingerJoint_play=0.0&amp;FingerJoint_space=2.0&amp;FingerJoint_width=1.0&amp;h=15&amp;outside=0&amp;outside=1&amp;radius_bottom=50.0&amp;radius_top=50.0&amp;n=6&amp;top=hole&amp;alignment_pins=1.0&amp;bottom=closed&amp;thickness=3.0&amp;burn=0.1&amp;format=svg&amp;labels=0&amp;labels=1&amp;reference=100.0&amp;tabs=0.0&amp;qr_code=0&amp;inner_corners=loop&amp;spacing=0.5&amp;debug=0&amp;language=en&amp;render=2</dc:source>
<dc:source>https://boxes.hackerspace-bamberg.de/RegularBox?h=15&amp;n=6&amp;top=hole&amp;spacing=0.5</dc:source>
<dc:description>Box with regular polygon as base

For short side walls that don't fit a connecting finger reduce *surroundingspaces* and *finger* in the Finger Joint Settings.

The lids needs to be glued. For the bayonet lid all outside rings attach to the bottom, all inside rings to the top.


Created with Boxes.py (https://boxes.hackerspace-bamberg.de/)
Command line: boxes RegularBox --FingerJoint_style=rectangular --FingerJoint_surroundingspaces=1.0 --FingerJoint_bottom_lip=0.0 --FingerJoint_edge_width=1.0 --FingerJoint_extra_length=0.0 --FingerJoint_finger=2.0 --FingerJoint_play=0.0 --FingerJoint_space=2.0 --FingerJoint_width=1.0 --h=15 --outside=0 --outside=1 --radius_bottom=50.0 --radius_top=50.0 --n=6 --top=hole --alignment_pins=1.0 --bottom=closed --thickness=3.0 --burn=0.1 --format=svg --labels=0 --labels=1 --reference=100.0 --tabs=0.0 --qr_code=0 --inner_corners=loop --spacing=0.5 --debug=0
Command line short: boxes RegularBox --h=15 --n=6 --top=hole --spacing=0.5
Url: https://boxes.hackerspace-bamberg.de/RegularBox?FingerJoint_style=rectangular&amp;FingerJoint_surroundingspaces=1.0&amp;FingerJoint_bottom_lip=0.0&amp;FingerJoint_edge_width=1.0&amp;FingerJoint_extra_length=0.0&amp;FingerJoint_finger=2.0&amp;FingerJoint_play=0.0&amp;FingerJoint_space=2.0&amp;FingerJoint_width=1.0&amp;h=15&amp;outside=0&amp;outside=1&amp;radius_bottom=50.0&amp;radius_top=50.0&amp;n=6&amp;top=hole&amp;alignment_pins=1.0&amp;bottom=closed&amp;thickness=3.0&amp;burn=0.1&amp;format=svg&amp;labels=0&amp;labels=1&amp;reference=100.0&amp;tabs=0.0&amp;qr_code=0&amp;inner_corners=loop&amp;spacing=0.5&amp;debug=0&amp;language=en&amp;render=2
Url short: https://boxes.hackerspace-bamberg.de/RegularBox?h=15&amp;n=6&amp;top=hole&amp;spacing=0.5
SettingsUrl: https://boxes.hackerspace-bamberg.de/RegularBox?FingerJoint_style=rectangular&amp;FingerJoint_surroundingspaces=1.0&amp;FingerJoint_bottom_lip=0.0&amp;FingerJoint_edge_width=1.0&amp;FingerJoint_extra_length=0.0&amp;FingerJoint_finger=2.0&amp;FingerJoint_play=0.0&amp;FingerJoint_space=2.0&amp;FingerJoint_width=1.0&amp;h=15&amp;outside=0&amp;outside=1&amp;radius_bottom=50.0&amp;radius_top=50.0&amp;n=6&amp;top=hole&amp;alignment_pins=1.0&amp;bottom=closed&amp;thickness=3.0&amp;burn=0.1&amp;format=svg&amp;labels=0&amp;labels=1&amp;reference=100.0&amp;tabs=0.0&amp;qr_code=0&amp;inner_corners=loop&amp;spacing=0.5&amp;debug=0&amp;language=en&amp;render=2
SettingsUrl short: https://boxes.hackerspace-bamberg.de/RegularBox?h=15&amp;n=6&amp;top=hole&amp;spacing=0.5
</dc:description>
</cc:Work></rdf:RDF></metadata>
<g id="p-0" style="fill:none;stroke-linecap:round;stroke-linejoin:round;">
  <path d="M 10.100 125.203 H 110.100 V 115.203 H 10.100 V 125.203 Z" stroke="rgb(0,0,0)" stroke-width="0.20" />
  <text dominant-baseline="hanging" font-size="6px" style="font-family: sans-serif ; font-weight: normal; font-style: normal; fill: rgb(255,0,0)" text-anchor="middle" transform="matrix( 1.000 0.000 0.000 1.000 60.100 117.203 )">100.0mm, burn:0.10mm</text>
</g>
<g id="p-1" style="fill:none;stroke-linecap:round;stroke-linejoin:round;">
  <path d="M 36.832 113.503 H 45.100 C 45.155 113.503 45.200 113.458 45.200 113.403 V 110.503 C 45.200 110.403 45.100 110.503 45.200 110.503 H 51.000 C 51.100 110.503 51.000 110.403 51.000 110.503 V 113.403 C 51.000 113.458 51.045 113.503 51.100 113.503 H 57.100 C 57.155 113.503 57.200 113.458 57.200 113.403 V 110.503 C 57.200 110.403 57.100 110.503 57.200 110.503 H 63.000 C 63.100 110.503 63.000 110.403 63.000 110.503 V 113.403 C 63.000 113.458 63.045 113.503 63.100 113.503 H 69.100 C 69.155 113.503 69.200 113.458 69.200 113.403 V 110.503 C 69.200 110.403 69.100 110.503 69.200 110.503 H 75.000 C 75.100 110.503 75.000 110.403 75.000 110.503 V 113.403 C 75.000 113.458 75.045 113.503 75.100 113.503 H 83.368 H 85.100 C 85.136 113.503 85.169 113.483 85.187 113.453 L 86.053 111.953 L 90.187 104.792 C 90.214 104.744 90.198 104.683 90.150 104.656 L 87.639 103.206 C 87.552 103.156 87.589 103.292 87.639 103.206 L 90.539 98.183 C 90.589 98.096 90.452 98.133 90.539 98.183 L 93.050 99.633 C 93.098 99.660 93.159 99.644 93.187 99.596 L 96.187 94.400 C 96.214 94.352 96.198 94.291 96.150 94.263 L 93.639 92.813 C 93.552 92.763 93.589 92.900 93.639 92.813 L 96.539 87.790 C 96.589 87.704 96.452 87.740 96.539 87.790 L 99.050 89.240 C 99.098 89.268 99.159 89.252 99.187 89.204 L 102.187 84.008 C 102.214 83.960 102.198 83.899 102.150 83.871 L 99.639 82.421 C 99.552 82.371 99.589 82.508 99.639 82.421 L 102.539 77.398 C 102.589 77.312 102.452 77.348 102.539 77.398 L 105.050 78.848 C 105.098 78.876 105.159 78.859 105.187 78.812 L 109.321 71.651 L 110.187 70.151 C 110.204 70.120 110.204 70.082 110.187 70.051 L 109.321 68.551 L 105.187 61.391 C 105.159 61.343 105.098 61.327 105.050 61.354 L 102.539 62.804 C 102.452 62.854 102.589 62.891 102.539 62.804 L 99.639 57.781 C 99.589 57.695 99.552 57.831 99.639 57.781 L 102.150 56.331 C 102.198 56.304 102.214 56.243 102.187 56.195 L 99.187 50.999 C 99.159 50.951 99.098 50.934 99.050 50.962 L 96.539 52.412 C 96.452 52.462 96.589 52.499 96.539 52.412 L 93.639 47.389 C 93.589 47.303 93.552 47.439 93.639 47.389 L 96.150 45.939 C 96.198 45.912 96.214 45.850 96.187 45.803 L 93.187 40.606 C 93.159 40.559 93.098 40.542 93.050 40.570 L 90.539 42.020 C 90.452 42.070 90.589 42.106 90.539 42.020 L 87.639 36.997 C 87.589 36.910 87.552 37.047 87.639 36.997 L 90.150 35.547 C 90.198 35.519 90.214 35.458 90.187 35.410 L 86.053 28.250 L 85.187 26.750 C 85.169 26.719 85.136 26.700 85.100 26.700 H 83.368 H 75.100 C 75.045 26.700 75.000 26.745 75.000 26.800 V 29.700 C 75.000 29.800 75.100 29.700 75.000 29.700 H 69.200 C 69.100 29.700 69.200 29.800 69.200 29.700 V 26.800 C 69.200 26.745 69.155 26.700 69.100 26.700 H 63.100 C 63.045 26.700 63.000 26.745 63.000 26.800 V 29.700 C 63.000 29.800 63.100 29.700 63.000 29.700 H 57.200 C 57.100 29.700 57.200 29.800 57.200 29.700 V 26.800 C 57.200 26.745 57.155 26.700 57.100 26.700 H 51.100 C 51.045 26.700 51.000 26.745 51.000 26.800 V 29.700 C 51.000 29.800 51.100 29.700 51.000 29.700 H 45.200 C 45.100 29.700 45.200 29.800 45.200 29.700 V 26.800 C 45.200 26.745 45.155 26.700 45.100 26.700 H 36.832 H 35.100 C 35.064 26.700 35.031 26.719 35.013 26.750 L 34.147 28.250 L 30.013 35.410 C 29.986 35.458 30.002 35.519 30.050 35.547 L 32.561 36.997 C 32.648 37.047 32.611 36.910 32.561 36.997 L 29.661 42.020 C 29.611 42.106 29.748 42.070 29.661 42.020 L 27.150 40.570 C 27.102 40.542 27.041 40.559 27.013 40.606 L 24.013 45.803 C 23.986 45.850 24.002 45.912 24.050 45.939 L 26.561 47.389 C 26.648 47.439 26.611 47.303 26.561 47.389 L 23.661 52.412 C 23.611 52.499 23.748 52.462 23.661 52.412 L 21.150 50.962 C 21.102 50.934 21.041 50.951 21.013 50.999 L 18.013 56.195 C 17.986 56.243 18.002 56.304 18.050 56.331 L 20.561 57.781 C 20.648 57.831 20.611 57.695 20.561 57.781 L 17.661 62.804 C 17.611 62.891 17.748 62.854 17.661 62.804 L 15.150 61.354 C 15.102 61.327 15.041 61.343 15.013 61.391 L 10.879 68.551 L 10.013 70.051 C 9.996 70.082 9.996 70.120 10.013 70.151 L 10.879 71.651 L 15.013 78.812 C 15.041 78.859 15.102 78.876 15.150 78.848 L 17.661 77.398 C 17.748 77.348 17.611 77.312 17.661 77.398 L 20.561 82.421 C 20.611 82.508 20.648 82.371 20.561 82.421 L 18.050 83.871 C 18.002 83.899 17.986 83.960 18.013 84.008 L 21.013 89.204 C 21.041 89.252 21.102 89.268 21.150 89.240 L 23.661 87.790 C 23.748 87.740 23.611 87.704 23.661 87.790 L 26.561 92.813 C 26.611 92.900 26.648 92.763 26.561 92.813 L 24.050 94.263 C 24.002 94.291 23.986 94.352 24.013 94.400 L 27.013 99.596 C 27.041 99.644 27.102 99.660 27.150 99.633 L 29.661 98.183 C 29.748 98.133 29.611 98.096 29.661 98.183 L 32.561 103.206 C 32.611 103.292 32.648 103.156 32.561 103.206 L 30.050 104.656 C 30.002 104.683 29.986 104.744 30.013 104.792 L 34.147 111.953 L 35.013 113.453 C 35.031 113.483 35.064 113.503 35.100 113.503 H 36.832 Z" stroke="rgb(0,0,0)" stroke-width="0.20" />
</g>
<g id="p-2" style="fill:none;stroke-linecap:round;stroke-linejoin:round;">
  <path d="M 199.001 70.101 C 199.001 77.233 196.951 84.214 193.096 90.214 C 189.240 96.213 183.741 100.978 177.254 103.941 C 170.767 106.903 163.565 107.939 156.506 106.924 C 149.447 105.909 142.828 102.886 137.438 98.216 C 132.049 93.546 128.115 87.425 126.106 80.582 C 124.096 73.739 124.096 66.463 126.106 59.620 C 128.115 52.778 132.049 46.657 137.438 41.986 C 142.828 37.316 149.447 34.294 156.506 33.279 C 163.565 32.264 170.767 33.299 177.254 36.262 C 183.741 39.224 189.240 43.989 193.096 49.989 C 196.951 55.988 199.001 62.970 199.001 70.101 Z" stroke="rgb(0,0,255)" stroke-width="0.20" />
  <path d="M 138.532 113.503 H 146.800 C 146.855 113.503 146.900 113.458 146.900 113.403 V 110.503 C 146.900 110.403 146.800 110.503 146.900 110.503 H 152.700 C 152.800 110.503 152.700 110.403 152.700 110.503 V 113.403 C 152.700 113.458 152.745 113.503 152.800 113.503 H 158.800 C 158.855 113.503 158.900 113.458 158.900 113.403 V 110.503 C 158.900 110.403 158.800 110.503 158.900 110.503 H 164.700 C 164.800 110.503 164.700 110.403 164.700 110.503 V 113.403 C 164.700 113.458 164.745 113.503 164.800 113.503 H 170.800 C 170.855 113.503 170.900 113.458 170.900 113.403 V 110.503 C 170.900 110.403 170.800 110.503 170.900 110.503 H 176.700 C 176.800 110.503 176.700 110.403 176.700 110.503 V 113.403 C 176.700 113.458 176.745 113.503 176.800 113.503 H 185.068 H 186.800 C 186.836 113.503 186.869 113.483 186.887 113.453 L 187.753 111.953 L 191.887 104.792 C 191.914 104.744 191.898 104.683 191.850 104.656 L 189.339 103.206 C 189.252 103.156 189.289 103.292 189.339 103.206 L 192.239 98.183 C 192.289 98.096 192.152 98.133 192.239 98.183 L 194.750 99.633 C 194.798 99.660 194.859 99.644 194.887 99.596 L 197.887 94.400 C 197.914 94.352 197.898 94.291 197.850 94.263 L 195.339 92.813 C 195.252 92.763 195.289 92.900 195.339 92.813 L 198.239 87.790 C 198.289 87.704 198.152 87.740 198.239 87.790 L 200.750 89.240 C 200.798 89.268 200.859 89.252 200.887 89.204 L 203.887 84.008 C 203.914 83.960 203.898 83.899 203.850 83.871 L 201.339 82.421 C 201.252 82.371 201.289 82.508 201.339 82.421 L 204.239 77.398 C 204.289 77.312 204.152 77.348 204.239 77.398 L 206.750 78.848 C 206.798 78.876 206.859 78.859 206.887 78.812 L 211.021 71.651 L 211.887 70.151 C 211.904 70.120 211.904 70.082 211.887 70.051 L 211.021 68.551 L 206.887 61.391 C 206.859 61.343 206.798 61.327 206.750 61.354 L 204.239 62.804 C 204.152 62.854 204.289 62.891 204.239 62.804 L 201.339 57.781 C 201.289 57.695 201.252 57.831 201.339 57.781 L 203.850 56.331 C 203.898 56.304 203.914 56.243 203.887 56.195 L 200.887 50.999 C 200.859 50.951 200.798 50.934 200.750 50.962 L 198.239 52.412 C 198.152 52.462 198.289 52.499 198.239 52.412 L 195.339 47.389 C 195.289 47.303 195.252 47.439 195.339 47.389 L 197.850 45.939 C 197.898 45.912 197.914 45.850 197.887 45.803 L 194.887 40.606 C 194.859 40.559 194.798 40.542 194.750 40.570 L 192.239 42.020 C 192.152 42.070 192.289 42.106 192.239 42.020 L 189.339 36.997 C 189.289 36.910 189.252 37.047 189.339 36.997 L 191.850 35.547 C 191.898 35.519 191.914 35.458 191.887 35.410 L 187.753 28.250 L 186.887 26.750 C 186.869 26.719 186.836 26.700 186.800 26.700 H 185.068 H 176.800 C 176.745 26.700 176.700 26.745 176.700 26.800 V 29.700 C 176.700 29.800 176.800 29.700 176.700 29.700 H 170.900 C 170.800 29.700 170.900 29.800 170.900 29.700 V 26.800 C 170.900 26.745 170.855 26.700 170.800 26.700 H 164.800 C 164.745 26.700 164.700 26.745 164.700 26.800 V 29.700 C 164.700 29.800 164.800 29.700 164.700 29.700 H 158.900 C 158.800 29.700 158.900 29.800 158.900 29.700 V 26.800 C 158.900 26.745 158.855 26.700 158.800 26.700 H 152.800 C 152.745 26.700 152.700 26.745 152.700 26.800 V 29.700 C 152.700 29.800 152.800 29.700 152.700 29.700 H 146.900 C 146.800 29.700 146.900 29.800 146.900 29.700 V 26.800 C 146.900 26.745 146.855 26.700 146.800 26.700 H 138.532 H 136.800 C 136.764 26.700 136.731 26.719 136.713 26.750 L 135.847 28.250 L 131.713 35.410 C 131.686 35.458 131.702 35.519 131.750 35.547 L 134.261 36.997 C 134.348 37.047 134.311 36.910 134.261 36.997 L 131.361 42.020 C 131.311 42.106 131.448 42.070 131.361 42.020 L 128.850 40.570 C 128.802 40.542 128.741 40.559 128.713 40.606 L 125.713 45.803 C 125.686 45.850 125.702 45.912 125.750 45.939 L 128.261 47.389 C 128.348 47.439 128.311 47.303 128.261 47.389 L 125.361 52.412 C 125.311 52.499 125.448 52.462 125.361 52.412 L 122.850 50.962 C 122.802 50.934 122.741 50.951 122.713 50.999 L 119.713 56.195 C 119.686 56.243 119.702 56.304 119.750 56.331 L 122.261 57.781 C 122.348 57.831 122.311 57.695 122.261 57.781 L 119.361 62.804 C 119.311 62.891 119.448 62.854 119.361 62.804 L 116.850 61.354 C 116.802 61.327 116.741 61.343 116.713 61.391 L 112.579 68.551 L 111.713 70.051 C 111.696 70.082 111.696 70.120 111.713 70.151 L 112.579 71.651 L 116.713 78.812 C 116.741 78.859 116.802 78.876 116.850 78.848 L 119.361 77.398 C 119.448 77.348 119.311 77.312 119.361 77.398 L 122.261 82.421 C 122.311 82.508 122.348 82.371 122.261 82.421 L 119.750 83.871 C 119.702 83.899 119.686 83.960 119.713 84.008 L 122.713 89.204 C 122.741 89.252 122.802 89.268 122.850 89.240 L 125.361 87.790 C 125.448 87.740 125.311 87.704 125.361 87.790 L 128.261 92.813 C 128.311 92.900 128.348 92.763 128.261 92.813 L 125.750 94.263 C 125.702 94.291 125.686 94.352 125.713 94.400 L 128.713 99.596 C 128.741 99.644 128.802 99.660 128.850 99.633 L 131.361 98.183 C 131.448 98.133 131.311 98.096 131.361 98.183 L 134.261 103.206 C 134.311 103.292 134.348 103.156 134.261 103.206 L 131.750 104.656 C 131.702 104.683 131.686 104.744 131.713 104.792 L 135.847 111.953 L 136.713 113.453 C 136.731 113.483 136.764 113.503 136.800 113.503 H 138.532 Z" stroke="rgb(0,0,0)" stroke-width="0.20" />
</g>
<g id="p-3" style="fill:none;stroke-linecap:round;stroke-linejoin:round;">
  <path d="M 11.832 22.200 H 20.000 C 20.100 22.200 20.000 22.100 20.000 22.200 V 25.100 C 20.000 25.155 20.045 25.200 20.100 25.200 H 26.100 C 26.155 25.200 26.200 25.155 26.200 25.100 V 22.200 C 26.200 22.100 26.100 22.200 26.200 22.200 H 32.000 C 32.100 22.200 32.000 22.100 32.000 22.200 V 25.100 C 32.000 25.155 32.045 25.200 32.100 25.200 H 38.100 C 38.155 25.200 38.200 25.155 38.200 25.100 V 22.200 C 38.200 22.100 38.100 22.200 38.200 22.200 H 44.000 C 44.100 22.200 44.000 22.100 44.000 22.200 V 25.100 C 44.000 25.155 44.045 25.200 44.100 25.200 H 50.100 C 50.155 25.200 50.200 25.155 50.200 25.100 V 22.200 C 50.200 22.100 50.100 22.200 50.200 22.200 H 58.368 C 58.423 22.200 58.468 22.155 58.468 22.100 C 58.468 22.155 58.423 22.200 58.368 22.200 H 60.100 C 60.155 22.200 60.200 22.155 60.200 22.100 V 19.850 C 60.200 19.795 60.155 19.750 60.100 19.750 H 57.602 C 57.502 19.750 57.602 19.850 57.602 19.750 V 15.450 C 57.602 15.350 57.502 15.450 57.602 15.450 H 60.100 C 60.155 15.450 60.200 15.405 60.200 15.350 V 13.100 C 60.200 13.045 60.155 13.000 60.100 13.000 H 58.368 C 58.423 13.000 58.468 13.045 58.468 13.100 C 58.468 13.045 58.423 13.000 58.368 13.000 H 50.200 C 50.100 13.000 50.200 13.100 50.200 13.000 V 10.100 C 50.200 10.045 50.155 10.000 50.100 10.000 H 44.100 C 44.045 10.000 44.000 10.045 44.000 10.100 V 13.000 C 44.000 13.100 44.100 13.000 44.000 13.000 H 38.200 C 38.100 13.000 38.200 13.100 38.200 13.000 V 10.100 C 38.200 10.045 38.155 10.000 38.100 10.000 H 32.100 C 32.045 10.000 32.000 10.045 32.000 10.100 V 13.000 C 32.000 13.100 32.100 13.000 32.000 13.000 H 26.200 C 26.100 13.000 26.200 13.100 26.200 13.000 V 10.100 C 26.200 10.045 26.155 10.000 26.100 10.000 H 20.100 C 20.045 10.000 20.000 10.045 20.000 10.100 V 13.000 C 20.000 13.100 20.100 13.000 20.000 13.000 H 11.832 C 11.777 13.000 11.732 13.045 11.732 13.100 C 11.732 13.045 11.777 13.000 11.832 13.000 H 10.100 C 10.045 13.000 10.000 13.045 10.000 13.100 V 15.350 C 10.000 15.405 10.045 15.450 10.100 15.450 H 12.598 C 12.698 15.450 12.598 15.350 12.598 15.450 V 19.750 C 12.598 19.850 12.698 19.750 12.598 19.750 H 10.100 C 10.045 19.750 10.000 19.795 10.000 19.850 V 22.100 C 10.000 22.155 10.045 22.200 10.100 22.200 H 11.832 C 11.777 22.200 11.732 22.155 11.732 22.100 C 11.732 22.155 11.777 22.200 11.832 22.200 Z" stroke="rgb(0,0,0)" stroke-width="0.20" />
</g>
<g id="p-4" style="fill:none;stroke-linecap:round;stroke-linejoin:round;">
  <path d="M 64.398 22.200 H 72.566 C 72.666 22.200 72.566 22.100 72.566 22.200 V 25.100 C 72.566 25.155 72.611 25.200 72.666 25.200 H 78.666 C 78.721 25.200 78.766 25.155 78.766 25.100 V 22.200 C 78.766 22.100 78.666 22.200 78.766 22.200 H 84.566 C 84.666 22.200 84.566 22.100 84.566 22.200 V 25.100 C 84.566 25.155 84.611 25.200 84.666 25.200 H 90.666 C 90.721 25.200 90.766 25.155 90.766 25.100 V 22.200 C 90.766 22.100 90.666 22.200 90.766 22.200 H 96.566 C 96.666 22.200 96.566 22.100 96.566 22.200 V 25.100 C 96.566 25.155 96.611 25.200 96.666 25.200 H 102.666 C 102.721 25.200 102.766 25.155 102.766 25.100 V 22.200 C 102.766 22.100 102.666 22.200 102.766 22.200 H 110.934 C 110.989 22.200 111.034 22.155 111.034 22.100 V 19.950 C 111.034 19.850 110.934 19.950 111.034 19.950 H 113.532 C 113.587 19.950 113.632 19.905 113.632 19.850 V 15.350 C 113.632 15.295 113.587 15.250 113.532 15.250 H 111.034 C 110.934 15.250 111.034 15.350 111.034 15.250 V 13.100 C 111.034 13.045 110.989 13.000 110.934 13.000 H 102.766 C 102.666 13.000 102.766 13.100 102.766 13.000 V 10.100 C 102.766 10.045 102.721 10.000 102.666 10.000 H 96.666 C 96.611 10.000 96.566 10.045 96.566 10.100 V 13.000 C 96.566 13.100 96.666 13.000 96.566 13.000 H 90.766 C 90.666 13.000 90.766 13.100 90.766 13.000 V 10.100 C 90.766 10.045 90.721 10.000 90.666 10.000 H 84.666 C 84.611 10.000 84.566 10.045 84.566 10.100 V 13.000 C 84.566 13.100 84.666 13.000 84.566 13.000 H 78.766 C 78.666 13.000 78.766 13.100 78.766 13.000 V 10.100 C 78.766 10.045 78.721 10.000 78.666 10.000 H 72.666 C 72.611 10.000 72.566 10.045 72.566 10.100 V 13.000 C 72.566 13.100 72.666 13.000 72.566 13.000 H 64.398 C 64.343 13.000 64.298 13.045 64.298 13.100 V 15.250 C 64.298 15.350 64.398 15.250 64.298 15.250 H 61.800 C 61.745 15.250 61.700 15.295 61.700 15.350 V 19.850 C 61.700 19.905 61.745 19.950 61.800 19.950 H 64.298 C 64.398 19.950 64.298 19.850 64.298 19.950 V 22.100 C 64.298 22.155 64.343 22.200 64.398 22.200 Z" stroke="rgb(0,0,0)" stroke-width="0.20" />
</g>
<g id="p-5" style="fill:none;stroke-linecap:round;stroke-linejoin:round;">
  <path d="M 116.964 22.200 H 125.132 C 125.232 22.200 125.132 22.100 125.132 22.200 V 25.100 C 125.132 25.155 125.177 25.200 125.232 25.200 H 131.232 C 131.287 25.200 131.332 25.155 131.332 25.100 V 22.200 C 131.332 22.100 131.232 22.200 131.332 22.200 H 137.132 C 137.232 22.200 137.132 22.100 137.132 22.200 V 25.100 C 137.132 25.155 137.177 25.200 137.232 25.200 H 143.232 C 143.287 25.200 143.332 25.155 143.332 25.100 V 22.200 C 143.332 22.100 143.232 22.200 143.332 22.200 H 149.132 C 149.232 22.200 149.132 22.100 149.132 22.200 V 25.100 C 149.132 25.155 149.177 25.200 149.232 25.200 H 155.232 C 155.287 25.200 155.332 25.155 155.332 25.100 V 22.200 C 155.332 22.100 155.232 22.200 155.332 22.200 H 163.500 C 163.555 22.200 163.600 22.155 163.600 22.100 C 163.600 22.155 163.555 22.200 163.500 22.200 H 165.232 C 165.287 22.200 165.332 22.155 165.332 22.100 V 19.850 C 165.332 19.795 165.287 19.750 165.232 19.750 H 162.734 C 162.634 19.750 162.734 19.850 162.734 19.750 V 15.450 C 162.734 15.350 162.634 15.450 162.734 15.450 H 165.232 C 165.287 15.450 165.332 15.405 165.332 15.350 V 13.100 C 165.332 13.045 165.287 13.000 165.232 13.000 H 163.500 C 163.555 13.000 163.600 13.045 163.600 13.100 C 163.600 13.045 163.555 13.000 163.500 13.000 H 155.332 C 155.232 13.000 155.332 13.100 155.332 13.000 V 10.100 C 155.332 10.045 155.287 10.000 155.232 10.000 H 149.232 C 149.177 10.000 149.132 10.045 149.132 10.100 V 13.000 C 149.132 13.100 149.232 13.000 149.132 13.000 H 143.332 C 143.232 13.000 143.332 13.100 143.332 13.000 V 10.100 C 143.332 10.045 143.287 10.000 143.232 10.000 H 137.232 C 137.177 10.000 137.132 10.045 137.132 10.100 V 13.000 C 137.132 13.100 137.232 13.000 137.132 13.000 H 131.332 C 131.232 13.000 131.332 13.100 131.332 13.000 V 10.100 C 131.332 10.045 131.287 10.000 131.232 10.000 H 125.232 C 125.177 10.000 125.132 10.045 125.132 10.100 V 13.000 C 125.132 13.100 125.232 13.000 125.132 13.000 H 116.964 C 116.909 13.000 116.864 13.045 116.864 13.100 C 116.864 13.045 116.909 13.000 116.964 13.000 H 115.232 C 115.177 13.000 115.132 13.045 115.132 13.100 V 15.350 C 115.132 15.405 115.177 15.450 115.232 15.450 H 117.730 C 117.830 15.450 117.730 15.350 117.730 15.450 V 19.750 C 117.730 19.850 117.830 19.750 117.730 19.750 H 115.232 C 115.177 19.750 115.132 19.795 115.132 19.850 V 22.100 C 115.132 22.155 115.177 22.200 115.232 22.200 H 116.964 C 116.909 22.200 116.864 22.155 116.864 22.100 C 116.864 22.155 116.909 22.200 116.964 22.200 Z" stroke="rgb(0,0,0)" stroke-width="0.20" />
</g>
<g id="p-6" style="fill:none;stroke-linecap:round;stroke-linejoin:round;">
  <path d="M 169.530 22.200 H 177.698 C 177.798 22.200 177.698 22.100 177.698 22.200 V 25.100 C 177.698 25.155 177.743 25.200 177.798 25.200 H 183.798 C 183.853 25.200 183.898 25.155 183.898 25.100 V 22.200 C 183.898 22.100 183.798 22.200 183.898 22.200 H 189.698 C 189.798 22.200 189.698 22.100 189.698 22.200 V 25.100 C 189.698 25.155 189.743 25.200 189.798 25.200 H 195.798 C 195.853 25.200 195.898 25.155 195.898 25.100 V 22.200 C 195.898 22.100 195.798 22.200 195.898 22.200 H 201.698 C 201.798 22.200 201.698 22.100 201.698 22.200 V 25.100 C 201.698 25.155 201.743 25.200 201.798 25.200 H 207.798 C 207.853 25.200 207.898 25.155 207.898 25.100 V 22.200 C 207.898 22.100 207.798 22.200 207.898 22.200 H 216.066 C 216.121 22.200 216.166 22.155 216.166 22.100 V 19.950 C 216.166 19.850 216.066 19.950 216.166 19.950 H 218.664 C 218.719 19.950 218.764 19.905 218.764 19.850 V 15.350 C 218.764 15.295 218.719 15.250 218.664 15.250 H 216.166 C 216.066 15.250 216.166 15.350 216.166 15.250 V 13.100 C 216.166 13.045 216.121 13.000 216.066 13.000 H 207.898 C 207.798 13.000 207.898 13.100 207.898 13.000 V 10.100 C 207.898 10.045 207.853 10.000 207.798 10.000 H 201.798 C 201.743 10.000 201.698 10.045 201.698 10.100 V 13.000 C 201.698 13.100 201.798 13.000 201.698 13.000 H 195.898 C 195.798 13.000 195.898 13.100 195.898 13.000 V 10.100 C 195.898 10.045 195.853 10.000 195.798 10.000 H 189.798 C 189.743 10.000 189.698 10.045 189.698 10.100 V 13.000 C 189.698 13.100 189.798 13.000 189.698 13.000 H 183.898 C 183.798 13.000 183.898 13.100 183.898 13.000 V 10.100 C 183.898 10.045 183.853 10.000 183.798 10.000 H 177.798 C 177.743 10.000 177.698 10.045 177.698 10.100 V 13.000 C 177.698 13.100 177.798 13.000 177.698 13.000 H 169.530 C 169.475 13.000 169.430 13.045 169.430 13.100 V 15.250 C 169.430 15.350 169.530 15.250 169.430 15.250 H 166.932 C 166.877 15.250 166.832 15.295 166.832 15.350 V 19.850 C 166.832 19.905 166.877 19.950 166.932 19.950 H 169.430 C 169.530 19.950 169.430 19.850 169.430 19.950 V 22.100 C 169.430 22.155 169.475 22.200 169.530 22.200 Z" stroke="rgb(0,0,0)" stroke-width="0.20" />
</g>
<g id="p-7" style="fill:none;stroke-linecap:round;stroke-linejoin:round;">
  <path d="M 222.096 22.200 H 230.264 C 230.364 22.200 230.264 22.100 230.264 22.200 V 25.100 C 230.264 25.155 230.309 25.200 230.364 25.200 H 236.364 C 236.419 25.200 236.464 25.155 236.464 25.100 V 22.200 C 236.464 22.100 236.364 22.200 236.464 22.200 H 242.264 C 242.364 22.200 242.264 22.100 242.264 22.200 V 25.100 C 242.264 25.155 242.309 25.200 242.364 25.200 H 248.364 C 248.419 25.200 248.464 25.155 248.464 25.100 V 22.200 C 248.464 22.100 248.364 22.200 248.464 22.200 H 254.264 C 254.364 22.200 254.264 22.100 254.264 22.200 V 25.100 C 254.264 25.155 254.309 25.200 254.364 25.200 H 260.364 C 260.419 25.200 260.464 25.155 260.464 25.100 V 22.200 C 260.464 22.100 260.364 22.200 260.464 22.200 H 268.632 C 268.687 22.200 268.732 22.155 268.732 22.100 C 268.732 22.155 268.687 22.200 268.632 22.200 H 270.364 C 270.419 22.200 270.464 22.155 270.464 22.100 V 19.850 C 270.464 19.795 270.419 19.750 270.364 19.750 H 267.866 C 267.766 19.750 267.866 19.850 267.866 19.750 V 15.450 C 267.866 15.350 267.766 15.450 267.866 15.450 H 270.364 C 270.419 15.450 270.464 15.405 270.464 15.350 V 13.100 C 270.464 13.045 270.419 13.000 270.364 13.000 H 268.632 C 268.687 13.000 268.732 13.045 268.732 13.100 C 268.732 13.045 268.687 13.000 268.632 13.000 H 260.464 C 260.364 13.000 260.464 13.100 260.464 13.000 V 10.100 C 260.464 10.045 260.419 10.000 260.364 10.000 H 254.364 C 254.309 10.000 254.264 10.045 254.264 10.100 V 13.000 C 254.264 13.100 254.364 13.000 254.264 13.000 H 248.464 C 248.364 13.000 248.464 13.100 248.464 13.000 V 10.100 C 248.464 10.045 248.419 10.000 248.364 10.000 H 242.364 C 242.309 10.000 242.264 10.045 242.264 10.100 V 13.000 C 242.264 13.100 242.364 13.000 242.264 13.000 H 236.464 C 236.364 13.000 236.464 13.100 236.464 13.000 V 10.100 C 236.464 10.045 236.419 10.000 236.364 10.000 H 230.364 C 230.309 10.000 230.264 10.045 230.264 10.100 V 13.000 C 230.264 13.100 230.364 13.000 230.264 13.000 H 222.096 C 222.041 13.000 221.996 13.045 221.996 13.100 C 221.996 13.045 222.041 13.000 222.096 13.000 H 220.364 C 220.309 13.000 220.264 13.045 220.264 13.100 V 15.350 C 220.264 15.405 220.309 15.450 220.364 15.450 H 222.862 C 222.962 15.450 222.862 15.350 222.862 15.450 V 19.750 C 222.862 19.850 222.962 19.750 222.862 19.750 H 220.364 C 220.309 19.750 220.264 19.795 220.264 19.850 V 22.100 C 220.264 22.155 220.309 22.200 220.364 22.200 H 222.096 C 222.041 22.200 221.996 22.155 221.996 22.100 C 221.996 22.155 222.041 22.200 222.096 22.200 Z" stroke="rgb(0,0,0)" stroke-width="0.20" />
</g>
<g id="p-8" style="fill:none;stroke-linecap:round;stroke-linejoin:round;">
  <path d="M 274.662 22.200 H 282.830 C 282.930 22.200 282.830 22.100 282.830 22.200 V 25.100 C 282.830 25.155 282.875 25.200 282.930 25.200 H 288.930 C 288.985 25.200 289.030 25.155 289.030 25.100 V 22.200 C 289.030 22.100 288.930 22.200 289.030 22.200 H 294.830 C 294.930 22.200 294.830 22.100 294.830 22.200 V 25.100 C 294.830 25.155 294.875 25.200 294.930 25.200 H 300.930 C 300.985 25.200 301.030 25.155 301.030 25.100 V 22.200 C 301.030 22.100 300.930 22.200 301.030 22.200 H 306.830 C 306.930 22.200 306.830 22.100 306.830 22.200 V 25.100 C 306.830 25.155 306.875 25.200 306.930 25.200 H 312.930 C 312.985 25.200 313.030 25.155 313.030 25.100 V 22.200 C 313.030 22.100 312.930 22.200 313.030 22.200 H 321.198 C 321.253 22.200 321.298 22.155 321.298 22.100 V 19.950 C 321.298 19.850 321.198 19.950 321.298 19.950 H 323.796 C 323.851 19.950 323.896 19.905 323.896 19.850 V 15.350 C 323.896 15.295 323.851 15.250 323.796 15.250 H 321.298 C 321.198 15.250 321.298 15.350 321.298 15.250 V 13.100 C 321.298 13.045 321.253 13.000 321.198 13.000 H 313.030 C 312.930 13.000 313.030 13.100 313.030 13.000 V 10.100 C 313.030 10.045 312.985 10.000 312.930 10.000 H 306.930 C 306.875 10.000 306.830 10.045 306.830 10.100 V 13.000 C 306.830 13.100 306.930 13.000 306.830 13.000 H 301.030 C 300.930 13.000 301.030 13.100 301.030 13.000 V 10.100 C 301.030 10.045 300.985 10.000 300.930 10.000 H 294.930 C 294.875 10.000 294.830 10.045 294.830 10.100 V 13.000 C 294.830 13.100 294.930 13.000 294.830 13.000 H 289.030 C 288.930 13.000 289.030 13.100 289.030 13.000 V 10.100 C 289.030 10.045 288.985 10.000 288.930 10.000 H 282.930 C 282.875 10.000 282.830 10.045 282.830 10.100 V 13.000 C 282.830 13.100 282.930 13.000 282.830 13.000 H 274.662 C 274.607 13.000 274.562 13.045 274.562 13.100 V 15.250 C 274.562 15.350 274.662 15.250 274.562 15.250 H 272.064 C 272.009 15.250 271.964 15.295 271.964 15.350 V 19.850 C 271.964 19.905 272.009 19.950 272.064 19.950 H 274.562 C 274.662 19.950 274.562 19.850 274.562 19.950 V 22.100 C 274.562 22.155 274.607 22.200 274.662 22.200 Z" stroke="rgb(0,0,0)" stroke-width="0.20" />
</g>
</svg>