<?xml version='1.0' encoding='utf-8'?>
<svg height="150.20mm" viewBox="0.0 0.0 333.90 150.20" width="333.90mm" xmlns="http://www.w3.org/2000/svg" xmlns:cc="http://creativecommons.org/ns#" xmlns:dc="http://purl.org/dc/elements/1.1/" xmlns:inkscape="http://www.inkscape.org/namespaces/inkscape" xmlns:rdf="http://www.w3.org/1999/02/22-rdf-syntax-ns#" xmlns:svg="http://www.w3.org/2000/svg" xmlns:xlink="http://www.w3.org/1999/xlink">
<!--
RegularBox - Box with regular polygon as base


For short side walls that don't fit a connecting finger reduce *surroundingspaces* and *finger* in the Finger Joint Settings.

The lids needs to be glued. For the bayonet lid all outside rings attach to the bottom, all inside rings to the top.



Created with Boxes.py (https://boxes.hackerspace-bamberg.de/)
Creation date: 2026-04-15 11:10:51
Command line (remove spaces between dashes): boxes RegularBox - -h=30 - -n=6 - -top=hole - -spacing=0.5
Url: https://boxes.hackerspace-bamberg.de/RegularBox?FingerJoint_style=rectangular&FingerJoint_surroundingspaces=1.0&FingerJoint_bottom_lip=0.0&FingerJoint_edge_width=1.0&FingerJoint_extra_length=0.0&FingerJoint_finger=2.0&FingerJoint_play=0.0&FingerJoint_space=2.0&FingerJoint_width=1.0&h=30&outside=0&outside=1&radius_bottom=50.0&radius_top=50.0&n=6&top=hole&alignment_pins=1.0&bottom=closed&thickness=3.0&burn=0.1&format=svg&labels=0&labels=1&reference=100.0&tabs=0.0&qr_code=0&inner_corners=loop&spacing=0.5&debug=0&language=en&render=2
Url short: https://boxes.hackerspace-bamberg.de/RegularBox?h=30&n=6&top=hole&spacing=0.5
SettingsUrl: https://boxes.hackerspace-bamberg.de/RegularBox?FingerJoint_style=rectangular&FingerJoint_surroundingspaces=1.0&FingerJoint_bottom_lip=0.0&FingerJoint_edge_width=1.0&FingerJoint_extra_length=0.0&FingerJoint_finger=2.0&FingerJoint_play=0.0&FingerJoint_space=2.0&FingerJoint_width=1.0&h=30&outside=0&outside=1&radius_bottom=50.0&radius_top=50.0&n=6&top=hole&alignment_pins=1.0&bottom=closed&thickness=3.0&burn=0.1&format=svg&labels=0&labels=1&reference=100.0&tabs=0.0&qr_code=0&inner_corners=loop&spacing=0.5&debug=0&language=en&render=2
SettingsUrl short: https://boxes.hackerspace-bamberg.de/RegularBox?h=30&n=6&top=hole&spacing=0.5
-->
<title>RegularBox</title>
<metadata>
<rdf:RDF><cc:Work>
<dc:title>Box - RegularBox</dc:title>
<dc:date>2026-04-15 11:10:51</dc:date>
<dc:source>https://boxes.hackerspace-bamberg.de/RegularBox?FingerJoint_style=rectangular&amp;FingerJoint_surroundingspaces=1.0&amp;FingerJoint_bottom_lip=0.0&amp;FingerJoint_edge_width=1.0&amp;FingerJoint_extra_length=0.0&amp;FingerJoint_finger=2.0&amp;FingerJoint_play=0.0&amp;FingerJoint_space=2.0&amp;FingerJoint_width=1.0&amp;h=30&amp;outside=0&amp;outside=1&amp;radius_bottom=50.0&amp;radius_top=50.0&amp;n=6&amp;top=hole&amp;alignment_pins=1.0&amp;bottom=closed&amp;thickness=3.0&amp;burn=0.1&amp;format=svg&amp;labels=0&amp;labels=1&amp;reference=100.0&amp;tabs=0.0&amp;qr_code=0&amp;inner_corners=loop&amp;spacing=0.5&amp;debug=0&amp;language=en&amp;render=2</dc:source>
<dc:source>https://boxes.hackerspace-bamberg.de/RegularBox?h=30&amp;n=6&amp;top=hole&amp;spacing=0.5</dc:source>
<dc:description>Box with regular polygon as base

For short side walls that don't fit a connecting finger reduce *surroundingspaces* and *finger* in the Finger Joint Settings.

The lids needs to be glued. For the bayonet lid all outside rings attach to the bottom, all inside rings to the top.


Created with Boxes.py (https://boxes.hackerspace-bamberg.de/)
Command line: boxes RegularBox --FingerJoint_style=rectangular --FingerJoint_surroundingspaces=1.0 --FingerJoint_bottom_lip=0.0 --FingerJoint_edge_width=1.0 --FingerJoint_extra_length=0.0 --FingerJoint_finger=2.0 --FingerJoint_play=0.0 --FingerJoint_space=2.0 --FingerJoint_width=1.0 --h=30 --outside=0 --outside=1 --radius_bottom=50.0 --radius_top=50.0 --n=6 --top=hole --alignment_pins=1.0 --bottom=closed --thickness=3.0 --burn=0.1 --format=svg --labels=0 --labels=1 --reference=100.0 --tabs=0.0 --qr_code=0 --inner_corners=loop --spacing=0.5 --debug=0
Command line short: boxes RegularBox --h=30 --n=6 --top=hole --spacing=0.5
Url: https://boxes.hackerspace-bamberg.de/RegularBox?FingerJoint_style=rectangular&amp;FingerJoint_surroundingspaces=1.0&amp;FingerJoint_bottom_lip=0.0&amp;FingerJoint_edge_width=1.0&amp;FingerJoint_extra_length=0.0&amp;FingerJoint_finger=2.0&amp;FingerJoint_play=0.0&amp;FingerJoint_space=2.0&amp;FingerJoint_width=1.0&amp;h=30&amp;outside=0&amp;outside=1&amp;radius_bottom=50.0&amp;radius_top=50.0&amp;n=6&amp;top=hole&amp;alignment_pins=1.0&amp;bottom=closed&amp;thickness=3.0&amp;burn=0.1&amp;format=svg&amp;labels=0&amp;labels=1&amp;reference=100.0&amp;tabs=0.0&amp;qr_code=0&amp;inner_corners=loop&amp;spacing=0.5&amp;debug=0&amp;language=en&amp;render=2
Url short: https://boxes.hackerspace-bamberg.de/RegularBox?h=30&amp;n=6&amp;top=hole&amp;spacing=0.5
SettingsUrl: https://boxes.hackerspace-bamberg.de/RegularBox?FingerJoint_style=rectangular&amp;FingerJoint_surroundingspaces=1.0&amp;FingerJoint_bottom_lip=0.0&amp;FingerJoint_edge_width=1.0&amp;FingerJoint_extra_length=0.0&amp;FingerJoint_finger=2.0&amp;FingerJoint_play=0.0&amp;FingerJoint_space=2.0&amp;FingerJoint_width=1.0&amp;h=30&amp;outside=0&amp;outside=1&amp;radius_bottom=50.0&amp;radius_top=50.0&amp;n=6&amp;top=hole&amp;alignment_pins=1.0&amp;bottom=closed&amp;thickness=3.0&amp;burn=0.1&amp;format=svg&amp;labels=0&amp;labels=1&amp;reference=100.0&amp;tabs=0.0&amp;qr_code=0&amp;inner_corners=loop&amp;spacing=0.5&amp;debug=0&amp;language=en&amp;render=2
SettingsUrl short: https://boxes.hackerspace-bamberg.de/RegularBox?h=30&amp;n=6&amp;top=hole&amp;spacing=0.5
</dc:description>
</cc:Work></rdf:RDF></metadata>
<g id="p-0" style="fill:none;stroke-linecap:round;stroke-linejoin:round;">
  <path d="M 10.100 140.203 H 110.100 V 130.203 H 10.100 V 140.203 Z" stroke="rgb(0,0,0)" stroke-width="0.20" />
  <text dominant-baseline="hanging" font-size="6px" style="font-family: sans-serif ; font-weight: normal; font-style: normal; fill: rgb(255,0,0)" text-anchor="middle" transform="matrix( 1.000 0.000 0.000 1.000 60.100 132.203 )">100.0mm, burn:0.10mm</text>
</g>
<g id="p-1" style="fill:none;stroke-linecap:round;stroke-linejoin:round;">
  <path d="M 36.832 128.503 H 45.100 C 45.155 128.503 45.200 128.458 45.200 128.403 V 125.503 C 45.200 125.403 45.100 125.503 45.200 125.503 H 51.000 C 51.100 125.503 51.000 125.403 51.000 125.503 V 128.403 C 51.000 128.458 51.045 128.503 51.100 128.503 H 57.100 C 57.155 128.503 57.200 128.458 57.200 128.403 V 125.503 C 57.200 125.403 57.100 125.503 57.200 125.503 H 63.000 C 63.100 125.503 63.000 125.403 63.000 125.503 V 128.403 C 63.000 128.458 63.045 128.503 63.100 128.503 H 69.100 C 69.155 128.503 69.200 128.458 69.200 128.403 V 125.503 C 69.200 125.403 69.100 125.503 69.200 125.503 H 75.000 C 75.100 125.503 75.000 125.403 75.000 125.503 V 128.403 C 75.000 128.458 75.045 128.503 75.100 128.503 H 83.368 H 85.100 C 85.136 128.503 85.169 128.483 85.187 128.453 L 86.053 126.953 L 90.187 119.792 C 90.214 119.744 90.198 119.683 90.150 119.656 L 87.639 118.206 C 87.552 118.156 87.589 118.292 87.639 118.206 L 90.539 113.183 C 90.589 113.096 90.452 113.133 90.539 113.183 L 93.050 114.633 C 93.098 114.660 93.159 114.644 93.187 114.596 L 96.187 109.400 C 96.214 109.352 96.198 109.291 96.150 109.263 L 93.639 107.813 C 93.552 107.763 93.589 107.900 93.639 107.813 L 96.539 102.790 C 96.589 102.704 96.452 102.740 96.539 102.790 L 99.050 104.240 C 99.098 104.268 99.159 104.252 99.187 104.204 L 102.187 99.008 C 102.214 98.960 102.198 98.899 102.150 98.871 L 99.639 97.421 C 99.552 97.371 99.589 97.508 99.639 97.421 L 102.539 92.398 C 102.589 92.312 102.452 92.348 102.539 92.398 L 105.050 93.848 C 105.098 93.876 105.159 93.859 105.187 93.812 L 109.321 86.651 L 110.187 85.151 C 110.204 85.120 110.204 85.082 110.187 85.051 L 109.321 83.551 L 105.187 76.391 C 105.159 76.343 105.098 76.327 105.050 76.354 L 102.539 77.804 C 102.452 77.854 102.589 77.891 102.539 77.804 L 99.639 72.781 C 99.589 72.695 99.552 72.831 99.639 72.781 L 102.150 71.331 C 102.198 71.304 102.214 71.243 102.187 71.195 L 99.187 65.999 C 99.159 65.951 99.098 65.934 99.050 65.962 L 96.539 67.412 C 96.452 67.462 96.589 67.499 96.539 67.412 L 93.639 62.389 C 93.589 62.303 93.552 62.439 93.639 62.389 L 96.150 60.939 C 96.198 60.912 96.214 60.850 96.187 60.803 L 93.187 55.606 C 93.159 55.559 93.098 55.542 93.050 55.570 L 90.539 57.020 C 90.452 57.070 90.589 57.106 90.539 57.020 L 87.639 51.997 C 87.589 51.910 87.552 52.047 87.639 51.997 L 90.150 50.547 C 90.198 50.519 90.214 50.458 90.187 50.410 L 86.053 43.250 L 85.187 41.750 C 85.169 41.719 85.136 41.700 85.100 41.700 H 83.368 H 75.100 C 75.045 41.700 75.000 41.745 75.000 41.800 V 44.700 C 75.000 44.800 75.100 44.700 75.000 44.700 H 69.200 C 69.100 44.700 69.200 44.800 69.200 44.700 V 41.800 C 69.200 41.745 69.155 41.700 69.100 41.700 H 63.100 C 63.045 41.700 63.000 41.745 63.000 41.800 V 44.700 C 63.000 44.800 63.100 44.700 63.000 44.700 H 57.200 C 57.100 44.700 57.200 44.800 57.200 44.700 V 41.800 C 57.200 41.745 57.155 41.700 57.100 41.700 H 51.100 C 51.045 41.700 51.000 41.745 51.000 41.800 V 44.700 C 51.000 44.800 51.100 44.700 51.000 44.700 H 45.200 C 45.100 44.700 45.200 44.800 45.200 44.700 V 41.800 C 45.200 41.745 45.155 41.700 45.100 41.700 H 36.832 H 35.100 C 35.064 41.700 35.031 41.719 35.013 41.750 L 34.147 43.250 L 30.013 50.410 C 29.986 50.458 30.002 50.519 30.050 50.547 L 32.561 51.997 C 32.648 52.047 32.611 51.910 32.561 51.997 L 29.661 57.020 C 29.611 57.106 29.748 57.070 29.661 57.020 L 27.150 55.570 C 27.102 55.542 27.041 55.559 27.013 55.606 L 24.013 60.803 C 23.986 60.850 24.002 60.912 24.050 60.939 L 26.561 62.389 C 26.648 62.439 26.611 62.303 26.561 62.389 L 23.661 67.412 C 23.611 67.499 23.748 67.462 23.661 67.412 L 21.150 65.962 C 21.102 65.934 21.041 65.951 21.013 65.999 L 18.013 71.195 C 17.986 71.243 18.002 71.304 18.050 71.331 L 20.561 72.781 C 20.648 72.831 20.611 72.695 20.561 72.781 L 17.661 77.804 C 17.611 77.891 17.748 77.854 17.661 77.804 L 15.150 76.354 C 15.102 76.327 15.041 76.343 15.013 76.391 L 10.879 83.551 L 10.013 85.051 C 9.996 85.082 9.996 85.120 10.013 85.151 L 10.879 86.651 L 15.013 93.812 C 15.041 93.859 15.102 93.876 15.150 93.848 L 17.661 92.398 C 17.748 92.348 17.611 92.312 17.661 92.398 L 20.561 97.421 C 20.611 97.508 20.648 97.371 20.561 97.421 L 18.050 98.871 C 18.002 98.899 17.986 98.960 18.013 99.008 L 21.013 104.204 C 21.041 104.252 21.102 104.268 21.150 104.240 L 23.661 102.790 C 23.748 102.740 23.611 102.704 23.661 102.790 L 26.561 107.813 C 26.611 107.900 26.648 107.763 26.561 107.813 L 24.050 109.263 C 24.002 109.291 23.986 109.352 24.013 109.400 L 27.013 114.596 C 27.041 114.644 27.102 114.660 27.150 114.633 L 29.661 113.183 C 29.748 113.133 29.611 113.096 29.661 113.183 L 32.561 118.206 C 32.611 118.292 32.648 118.156 32.561 118.206 L 30.050 119.656 C 30.002 119.683 29.986 119.744 30.013 119.792 L 34.147 126.953 L 35.013 128.453 C 35.031 128.483 35.064 128.503 35.100 128.503 H 36.832 Z" stroke="rgb(0,0,0)" stroke-width="0.20" />
</g>
<g id="p-2" style="fill:none;stroke-linecap:round;stroke-linejoin:round;">
  <path d="M 199.001 85.101 C 199.001 92.233 196.951 99.214 193.096 105.214 C 189.240 111.213 183.741 115.978 177.254 118.941 C 170.767 121.903 163.565 122.939 156.506 121.924 C 149.447 120.909 142.828 117.886 137.438 113.216 C 132.049 108.546 128.115 102.425 126.106 95.582 C 124.096 88.739 124.096 81.463 126.106 74.620 C 128.115 67.778 132.049 61.657 137.438 56.986 C 142.828 52.316 149.447 49.294 156.506 48.279 C 163.565 47.264 170.767 48.299 177.254 51.262 C 183.741 54.224 189.240 58.989 193.096 64.989 C 196.951 70.988 199.001 77.970 199.001 85.101 Z" stroke="rgb(0,0,255)" stroke-width="0.20" />
  <path d="M 138.532 128.503 H 146.800 C 146.855 128.503 146.900 128.458 146.900 128.403 V 125.503 C 146.900 125.403 146.800 125.503 146.900 125.503 H 152.700 C 152.800 125.503 152.700 125.403 152.700 125.503 V 128.403 C 152.700 128.458 152.745 128.503 152.800 128.503 H 158.800 C 158.855 128.503 158.900 128.458 158.900 128.403 V 125.503 C 158.900 125.403 158.800 125.503 158.900 125.503 H 164.700 C 164.800 125.503 164.700 125.403 164.700 125.503 V 128.403 C 164.700 128.458 164.745 128.503 164.800 128.503 H 170.800 C 170.855 128.503 170.900 128.458 170.900 128.403 V 125.503 C 170.900 125.403 170.800 125.503 170.900 125.503 H 176.700 C 176.800 125.503 176.700 125.403 176.700 125.503 V 128.403 C 176.700 128.458 176.745 128.503 176.800 128.503 H 185.068 H 186.800 C 186.836 128.503 186.869 128.483 186.887 128.453 L 187.753 126.953 L 191.887 119.792 C 191.914 119.744 191.898 119.683 191.850 119.656 L 189.339 118.206 C 189.252 118.156 189.289 118.292 189.339 118.206 L 192.239 113.183 C 192.289 113.096 192.152 113.133 192.239 113.183 L 194.750 114.633 C 194.798 114.660 194.859 114.644 194.887 114.596 L 197.887 109.400 C 197.914 109.352 197.898 109.291 197.850 109.263 L 195.339 107.813 C 195.252 107.763 195.289 107.900 195.339 107.813 L 198.239 102.790 C 198.289 102.704 198.152 102.740 198.239 102.790 L 200.750 104.240 C 200.798 104.268 200.859 104.252 200.887 104.204 L 203.887 99.008 C 203.914 98.960 203.898 98.899 203.850 98.871 L 201.339 97.421 C 201.252 97.371 201.289 97.508 201.339 97.421 L 204.239 92.398 C 204.289 92.312 204.152 92.348 204.239 92.398 L 206.750 93.848 C 206.798 93.876 206.859 93.859 206.887 93.812 L 211.021 86.651 L 211.887 85.151 C 211.904 85.120 211.904 85.082 211.887 85.051 L 211.021 83.551 L 206.887 76.391 C 206.859 76.343 206.798 76.327 206.750 76.354 L 204.239 77.804 C 204.152 77.854 204.289 77.891 204.239 77.804 L 201.339 72.781 C 201.289 72.695 201.252 72.831 201.339 72.781 L 203.850 71.331 C 203.898 71.304 203.914 71.243 203.887 71.195 L 200.887 65.999 C 200.859 65.951 200.798 65.934 200.750 65.962 L 198.239 67.412 C 198.152 67.462 198.289 67.499 198.239 67.412 L 195.339 62.389 C 195.289 62.303 195.252 62.439 195.339 62.389 L 197.850 60.939 C 197.898 60.912 197.914 60.850 197.887 60.803 L 194.887 55.606 C 194.859 55.559 194.798 55.542 194.750 55.570 L 192.239 57.020 C 192.152 57.070 192.289 57.106 192.239 57.020 L 189.339 51.997 C 189.289 51.910 189.252 52.047 189.339 51.997 L 191.850 50.547 C 191.898 50.519 191.914 50.458 191.887 50.410 L 187.753 43.250 L 186.887 41.750 C 186.869 41.719 186.836 41.700 186.800 41.700 H 185.068 H 176.800 C 176.745 41.700 176.700 41.745 176.700 41.800 V 44.700 C 176.700 44.800 176.800 44.700 176.700 44.700 H 170.900 C 170.800 44.700 170.900 44.800 170.900 44.700 V 41.800 C 170.900 41.745 170.855 41.700 170.800 41.700 H 164.800 C 164.745 41.700 164.700 41.745 164.700 41.800 V 44.700 C 164.700 44.800 164.800 44.700 164.700 44.700 H 158.900 C 158.800 44.700 158.900 44.800 158.900 44.700 V 41.800 C 158.900 41.745 158.855 41.700 158.800 41.700 H 152.800 C 152.745 41.700 152.700 41.745 152.700 41.800 V 44.700 C 152.700 44.800 152.800 44.700 152.700 44.700 H 146.900 C 146.800 44.700 146.900 44.800 146.900 44.700 V 41.800 C 146.900 41.745 146.855 41.700 146.800 41.700 H 138.532 H 136.800 C 136.764 41.700 136.731 41.719 136.713 41.750 L 135.847 43.250 L 131.713 50.410 C 131.686 50.458 131.702 50.519 131.750 50.547 L 134.261 51.997 C 134.348 52.047 134.311 51.910 134.261 51.997 L 131.361 57.020 C 131.311 57.106 131.448 57.070 131.361 57.020 L 128.850 55.570 C 128.802 55.542 128.741 55.559 128.713 55.606 L 125.713 60.803 C 125.686 60.850 125.702 60.912 125.750 60.939 L 128.261 62.389 C 128.348 62.439 128.311 62.303 128.261 62.389 L 125.361 67.412 C 125.311 67.499 125.448 67.462 125.361 67.412 L 122.850 65.962 C 122.802 65.934 122.741 65.951 122.713 65.999 L 119.713 71.195 C 119.686 71.243 119.702 71.304 119.750 71.331 L 122.261 72.781 C 122.348 72.831 122.311 72.695 122.261 72.781 L 119.361 77.804 C 119.311 77.891 119.448 77.854 119.361 77.804 L 116.850 76.354 C 116.802 76.327 116.741 76.343 116.713 76.391 L 112.579 83.551 L 111.713 85.051 C 111.696 85.082 111.696 85.120 111.713 85.151 L 112.579 86.651 L 116.713 93.812 C 116.741 93.859 116.802 93.876 116.850 93.848 L 119.361 92.398 C 119.448 92.348 119.311 92.312 119.361 92.398 L 122.261 97.421 C 122.311 97.508 122.348 97.371 122.261 97.421 L 119.750 98.871 C 119.702 98.899 119.686 98.960 119.713 99.008 L 122.713 104.204 C 122.741 104.252 122.802 104.268 122.850 104.240 L 125.361 102.790 C 125.448 102.740 125.311 102.704 125.361 102.790 L 128.261 107.813 C 128.311 107.900 128.348 107.763 128.261 107.813 L 125.750 109.263 C 125.702 109.291 125.686 109.352 125.713 109.400 L 128.713 114.596 C 128.741 114.644 128.802 114.660 128.850 114.633 L 131.361 113.183 C 131.448 113.133 131.311 113.096 131.361 113.183 L 134.261 118.206 C 134.311 118.292 134.348 118.156 134.261 118.206 L 131.750 119.656 C 131.702 119.683 131.686 119.744 131.713 119.792 L 135.847 126.953 L 136.713 128.453 C 136.731 128.483 136.764 128.503 136.800 128.503 H 138.532 Z" stroke="rgb(0,0,0)" stroke-width="0.20" />
</g>
<g id="p-3" style="fill:none;stroke-linecap:round;stroke-linejoin:round;">
  <path d="M 11.832 37.200 H 20.000 C 20.100 37.200 20.000 37.100 20.000 37.200 V 40.100 C 20.000 40.155 20.045 40.200 20.100 40.200 H 26.100 C 26.155 40.200 26.200 40.155 26.200 40.100 V 37.200 C 26.200 37.100 26.100 37.200 26.200 37.200 H 32.000 C 32.100 37.200 32.000 37.100 32.000 37.200 V 40.100 C 32.000 40.155 32.045 40.200 32.100 40.200 H 38.100 C 38.155 40.200 38.200 40.155 38.200 40.100 V 37.200 C 38.200 37.100 38.100 37.200 38.200 37.200 H 44.000 C 44.100 37.200 44.000 37.100 44.000 37.200 V 40.100 C 44.000 40.155 44.045 40.200 44.100 40.200 H 50.100 C 50.155 40.200 50.200 40.155 50.200 40.100 V 37.200 C 50.200 37.100 50.100 37.200 50.200 37.200 H 58.368 C 58.423 37.200 58.468 37.155 58.468 37.100 C 58.468 37.155 58.423 37.200 58.368 37.200 H 60.100 C 60.155 37.200 60.200 37.155 60.200 37.100 V 34.100 C 60.200 34.045 60.155 34.000 60.100 34.000 H 57.602 C 57.502 34.000 57.602 34.100 57.602 34.000 V 28.200 C 57.602 28.100 57.502 28.200 57.602 28.200 H 60.100 C 60.155 28.200 60.200 28.155 60.200 28.100 V 22.100 C 60.200 22.045 60.155 22.000 60.100 22.000 H 57.602 C 57.502 22.000 57.602 22.100 57.602 22.000 V 16.200 C 57.602 16.100 57.502 16.200 57.602 16.200 H 60.100 C 60.155 16.200 60.200 16.155 60.200 16.100 V 13.100 C 60.200 13.045 60.155 13.000 60.100 13.000 H 58.368 C 58.423 13.000 58.468 13.045 58.468 13.100 C 58.468 13.045 58.423 13.000 58.368 13.000 H 50.200 C 50.100 13.000 50.200 13.100 50.200 13.000 V 10.100 C 50.200 10.045 50.155 10.000 50.100 10.000 H 44.100 C 44.045 10.000 44.000 10.045 44.000 10.100 V 13.000 C 44.000 13.100 44.100 13.000 44.000 13.000 H 38.200 C 38.100 13.000 38.200 13.100 38.200 13.000 V 10.100 C 38.200 10.045 38.155 10.000 38.100 10.000 H 32.100 C 32.045 10.000 32.000 10.045 32.000 10.100 V 13.000 C 32.000 13.100 32.100 13.000 32.000 13.000 H 26.200 C 26.100 13.000 26.200 13.100 26.200 13.000 V 10.100 C 26.200 10.045 26.155 10.000 26.100 10.000 H 20.100 C 20.045 10.000 20.000 10.045 20.000 10.100 V 13.000 C 20.000 13.100 20.100 13.000 20.000 13.000 H 11.832 C 11.777 13.000 11.732 13.045 11.732 13.100 C 11.732 13.045 11.777 13.000 11.832 13.000 H 10.100 C 10.045 13.000 10.000 13.045 10.000 13.100 V 16.100 C 10.000 16.155 10.045 16.200 10.100 16.200 H 12.598 C 12.698 16.200 12.598 16.100 12.598 16.200 V 22.000 C 12.598 22.100 12.698 22.000 12.598 22.000 H 10.100 C 10.045 22.000 10.000 22.045 10.000 22.100 V 28.100 C 10.000 28.155 10.045 28.200 10.100 28.200 H 12.598 C 12.698 28.200 12.598 28.100 12.598 28.200 V 34.000 C 12.598 34.100 12.698 34.000 12.598 34.000 H 10.100 C 10.045 34.000 10.000 34.045 10.000 34.100 V 37.100 C 10.000 37.155 10.045 37.200 10.100 37.200 H 11.832 C 11.777 37.200 11.732 37.155 11.732 37.100 C 11.732 37.155 11.777 37.200 11.832 37.200 Z" stroke="rgb(0,0,0)" stroke-width="0.20" />
</g>
<g id="p-4" style="fill:none;stroke-linecap:round;stroke-linejoin:round;">
  <path d="M 64.398 37.200 H 72.566 C 72.666 37.200 72.566 37.100 72.566 37.200 V 40.100 C 72.566 40.155 72.611 40.200 72.666 40.200 H 78.666 C 78.721 40.200 78.766 40.155 78.766 40.100 V 37.200 C 78.766 37.100 78.666 37.200 78.766 37.200 H 84.566 C 84.666 37.200 84.566 37.100 84.566 37.200 V 40.100 C 84.566 40.155 84.611 40.200 84.666 40.200 H 90.666 C 90.721 40.200 90.766 40.155 90.766 40.100 V 37.200 C 90.766 37.100 90.666 37.200 90.766 37.200 H 96.566 C 96.666 37.200 96.566 37.100 96.566 37.200 V 40.100 C 96.566 40.155 96.611 40.200 96.666 40.200 H 102.666 C 102.721 40.200 102.766 40.155 102.766 40.100 V 37.200 C 102.766 37.100 102.666 37.200 102.766 37.200 H 110.934 C 110.989 37.200 111.034 37.155 111.034 37.100 V 34.200 C 111.034 34.100 110.934 34.200 111.034 34.200 H 113.532 C 113.587 34.200 113.632 34.155 113.632 34.100 V 28.100 C 113.632 28.045 113.587 28.000 113.532 28.000 H 111.034 C 110.934 28.000 111.034 28.100 111.034 28.000 V 22.200 C 111.034 22.100 110.934 22.200 111.034 22.200 H 113.532 C 113.587 22.200 113.632 22.155 113.632 22.100 V 16.100 C 113.632 16.045 113.587 16.000 113.532 16.000 H 111.034 C 110.934 16.000 111.034 16.100 111.034 16.000 V 13.100 C 111.034 13.045 110.989 13.000 110.934 13.000 H 102.766 C 102.666 13.000 102.766 13.100 102.766 13.000 V 10.100 C 102.766 10.045 102.721 10.000 102.666 10.000 H 96.666 C 96.611 10.000 96.566 10.045 96.566 10.100 V 13.000 C 96.566 13.100 96.666 13.000 96.566 13.000 H 90.766 C 90.666 13.000 90.766 13.100 90.766 13.000 V 10.100 C 90.766 10.045 90.721 10.000 90.666 10.000 H 84.666 C 84.611 10.000 84.566 10.045 84.566 10.100 V 13.000 C 84.566 13.100 84.666 13.000 84.566 13.000 H 78.766 C 78.666 13.000 78.766 13.100 78.766 13.000 V 10.100 C 78.766 10.045 78.721 10.000 78.666 10.000 H 72.666 C 72.611 10.000 72.566 10.045 72.566 10.100 V 13.000 C 72.566 13.100 72.666 13.000 72.566 13.000 H 64.398 C 64.343 13.000 64.298 13.045 64.298 13.100 V 16.000 C 64.298 16.100 64.398 16.000 64.298 16.000 H 61.800 C 61.745 16.000 61.700 16.045 61.700 16.100 V 22.100 C 61.700 22.155 61.745 22.200 61.800 22.200 H 64.298 C 64.398 22.200 64.298 22.100 64.298 22.200 V 28.000 C 64.298 28.100 64.398 28.000 64.298 28.000 H 61.800 C 61.745 28.000 61.700 28.045 61.700 28.100 V 34.100 C 61.700 34.155 61.745 34.200 61.800 34.200 H 64.298 C 64.398 34.200 64.298 34.100 64.298 34.200 V 37.100 C 64.298 37.155 64.343 37.200 64.398 37.200 Z" stroke="rgb(0,0,0)" stroke-width="0.20" />
</g>
<g id="p-5" style="fill:none;stroke-linecap:round;stroke-linejoin:round;">
  <path d="M 116.964 37.200 H 125.132 C 125.232 37.200 125.132 37.100 125.132 37.200 V 40.100 C 125.132 40.155 125.177 40.200 125.232 40.200 H 131.232 C 131.287 40.200 131.332 40.155 131.332 40.100 V 37.200 C 131.332 37.100 131.232 37.200 131.332 37.200 H 137.132 C 137.232 37.200 137.132 37.100 137.132 37.200 V 40.100 C 137.132 40.155 137.177 40.200 137.232 40.200 H 143.232 C 143.287 40.200 143.332 40.155 143.332 40.100 V 37.200 C 143.332 37.100 143.232 37.200 143.332 37.200 H 149.132 C 149.232 37.200 149.132 37.100 149.132 37.200 V 40.100 C 149.132 40.155 149.177 40.200 149.232 40.200 H 155.232 C 155.287 40.200 155.332 40.155 155.332 40.100 V 37.200 C 155.332 37.100 155.232 37.200 155.332 37.200 H 163.500 C 163.555 37.200 163.600 37.155 163.600 37.100 C 163.600 37.155 163.555 37.200 163.500 37.200 H 165.232 C 165.287 37.200 165.332 37.155 165.332 37.100 V 34.100 C 165.332 34.045 165.287 34.000 165.232 34.000 H 162.734 C 162.634 34.000 162.734 34.100 162.734 34.000 V 28.200 C 162.734 28.100 162.634 28.200 162.734 28.200 H 165.232 C 165.287 28.200 165.332 28.155 165.332 28.100 V 22.100 C 165.332 22.045 165.287 22.000 165.232 22.000 H 162.734 C 162.634 22.000 162.734 22.100 162.734 22.000 V 16.200 C 162.734 16.100 162.634 16.200 162.734 16.200 H 165.232 C 165.287 16.200 165.332 16.155 165.332 16.100 V 13.100 C 165.332 13.045 165.287 13.000 165.232 13.000 H 163.500 C 163.555 13.000 163.600 13.045 163.600 13.100 C 163.600 13.045 163.555 13.000 163.500 13.000 H 155.332 C 155.232 13.000 155.332 13.100 155.332 13.000 V 10.100 C 155.332 10.045 155.287 10.000 155.232 10.000 H 149.232 C 149.177 10.000 149.132 10.045 149.132 10.100 V 13.000 C 149.132 13.100 149.232 13.000 149.132 13.000 H 143.332 C 143.232 13.000 143.332 13.100 143.332 13.000 V 10.100 C 143.332 10.045 143.287 10.000 143.232 10.000 H 137.232 C 137.177 10.000 137.132 10.045 137.132 10.100 V 13.000 C 137.132 13.100 137.232 13.000 137.132 13.000 H 131.332 C 131.232 13.000 131.332 13.100 131.332 13.000 V 10.100 C 131.332 10.045 131.287 10.000 131.232 10.000 H 125.232 C 125.177 10.000 125.132 10.045 125.132 10.100 V 13.000 C 125.132 13.100 125.232 13.000 125.132 13.000 H 116.964 C 116.909 13.000 116.864 13.045 116.864 13.100 C 116.864 13.045 116.909 13.000 116.964 13.000 H 115.232 C 115.177 13.000 115.132 13.045 115.132 13.100 V 16.100 C 115.132 16.155 115.177 16.200 115.232 16.200 H 117.730 C 117.830 16.200 117.730 16.100 117.730 16.200 V 22.000 C 117.730 22.100 117.830 22.000 117.730 22.000 H 115.232 C 115.177 22.000 115.132 22.045 115.132 22.100 V 28.100 C 115.132 28.155 115.177 28.200 115.232 28.200 H 117.730 C 117.830 28.200 117.730 28.100 117.730 28.200 V 34.000 C 117.730 34.100 117.830 34.000 117.730 34.000 H 115.232 C 115.177 34.000 115.132 34.045 115.132 34.100 V 37.100 C 115.132 37.155 115.177 37.200 115.232 37.200 H 116.964 C 116.909 37.200 116.864 37.155 116.864 37.100 C 116.864 37.155 116.909 37.200 116.964 37.200 Z" stroke="rgb(0,0,0)" stroke-width="0.20" />
</g>
<g id="p-6" style="fill:none;stroke-linecap:round;stroke-linejoin:round;">
  <path d="M 169.530 37.200 H 177.698 C 177.798 37.200 177.698 37.100 177.698 37.200 V 40.100 C 177.698 40.155 177.743 40.200 177.798 40.200 H 183.798 C 183.853 40.200 183.898 40.155 183.898 40.100 V 37.200 C 183.898 37.100 183.798 37.200 183.898 37.200 H 189.698 C 189.798 37.200 189.698 37.100 189.698 37.200 V 40.100 C 189.698 40.155 189.743 40.200 189.798 40.200 H 195.798 C 195.853 40.200 195.898 40.155 195.898 40.100 V 37.200 C 195.898 37.100 195.798 37.200 195.898 37.200 H 201.698 C 201.798 37.200 201.698 37.100 201.698 37.200 V 40.100 C 201.698 40.155 201.743 40.200 201.798 40.200 H 207.798 C 207.853 40.200 207.898 40.155 207.898 40.100 V 37.200 C 207.898 37.100 207.798 37.200 207.898 37.200 H 216.066 C 216.121 37.200 216.166 37.155 216.166 37.100 V 34.200 C 216.166 34.100 216.066 34.200 216.166 34.200 H 218.664 C 218.719 34.200 218.764 34.155 218.764 34.100 V 28.100 C 218.764 28.045 218.719 28.000 218.664 28.000 H 216.166 C 216.066 28.000 216.166 28.100 216.166 28.000 V 22.200 C 216.166 22.100 216.066 22.200 216.166 22.200 H 218.664 C 218.719 22.200 218.764 22.155 218.764 22.100 V 16.100 C 218.764 16.045 218.719 16.000 218.664 16.000 H 216.166 C 216.066 16.000 216.166 16.100 216.166 16.000 V 13.100 C 216.166 13.045 216.121 13.000 216.066 13.000 H 207.898 C 207.798 13.000 207.898 13.100 207.898 13.000 V 10.100 C 207.898 10.045 207.853 10.000 207.798 10.000 H 201.798 C 201.743 10.000 201.698 10.045 201.698 10.100 V 13.000 C 201.698 13.100 201.798 13.000 201.698 13.000 H 195.898 C 195.798 13.000 195.898 13.100 195.898 13.000 V 10.100 C 195.898 10.045 195.853 10.000 195.798 10.000 H 189.798 C 189.743 10.000 189.698 10.045 189.698 10.100 V 13.000 C 189.698 13.100 189.798 13.000 189.698 13.000 H 183.898 C 183.798 13.000 183.898 13.100 183.898 13.000 V 10.100 C 183.898 10.045 183.853 10.000 183.798 10.000 H 177.798 C 177.743 10.000 177.698 10.045 177.698 10.100 V 13.000 C 177.698 13.100 177.798 13.000 177.698 13.000 H 169.530 C 169.475 13.000 169.430 13.045 169.430 13.100 V 16.000 C 169.430 16.100 169.530 16.000 169.430 16.000 H 166.932 C 166.877 16.000 166.832 16.045 166.832 16.100 V 22.100 C 166.832 22.155 166.877 22.200 166.932 22.200 H 169.430 C 169.530 22.200 169.430 22.100 169.430 22.200 V 28.000 C 169.430 28.100 169.530 28.000 169.430 28.000 H 166.932 C 166.877 28.000 166.832 28.045 166.832 28.100 V 34.100 C 166.832 34.155 166.877 34.200 166.932 34.200 H 169.430 C 169.530 34.200 169.430 34.100 169.430 34.200 V 37.100 C 169.430 37.155 169.475 37.200 169.530 37.200 Z" stroke="rgb(0,0,0)" stroke-width="0.20" />
</g>
<g id="p-7" style="fill:none;stroke-linecap:round;stroke-linejoin:round;">
  <path d="M 222.096 37.200 H 230.264 C 230.364 37.200 230.264 37.100 230.264 37.200 V 40.100 C 230.264 40.155 230.309 40.200 230.364 40.200 H 236.364 C 236.419 40.200 236.464 40.155 236.464 40.100 V 37.200 C 236.464 37.100 236.364 37.200 236.464 37.200 H 242.264 C 242.364 37.200 242.264 37.100 242.264 37.200 V 40.100 C 242.264 40.155 242.309 40.200 242.364 40.200 H 248.364 C 248.419 40.200 248.464 40.155 248.464 40.100 V 37.200 C 248.464 37.100 248.364 37.200 248.464 37.200 H 254.264 C 254.364 37.200 254.264 37.100 254.264 37.200 V 40.100 C 254.264 40.155 254.309 40.200 254.364 40.200 H 260.364 C 260.419 40.200 260.464 40.155 260.464 40.100 V 37.200 C 260.464 37.100 260.364 37.200 260.464 37.200 H 268.632 C 268.687 37.200 268.732 37.155 268.732 37.100 C 268.732 37.155 268.687 37.200 268.632 37.200 H 270.364 C 270.419 37.200 270.464 37.155 270.464 37.100 V 34.100 C 270.464 34.045 270.419 34.000 270.364 34.000 H 267.866 C 267.766 34.000 267.866 34.100 267.866 34.000 V 28.200 C 267.866 28.100 267.766 28.200 267.866 28.200 H 270.364 C 270.419 28.200 270.464 28.155 270.464 28.100 V 22.100 C 270.464 22.045 270.419 22.000 270.364 22.000 H 267.866 C 267.766 22.000 267.866 22.100 267.866 22.000 V 16.200 C 267.866 16.100 267.766 16.200 267.866 16.200 H 270.364 C 270.419 16.200 270.464 16.155 270.464 16.100 V 13.100 C 270.464 13.045 270.419 13.000 270.364 13.000 H 268.632 C 268.687 13.000 268.732 13.045 268.732 13.100 C 268.732 13.045 268.687 13.000 268.632 13.000 H 260.464 C 260.364 13.000 260.464 13.100 260.464 13.000 V 10.100 C 260.464 10.045 260.419 10.000 260.364 10.000 H 254.364 C 254.309 10.000 254.264 10.045 254.264 10.100 V 13.000 C 254.264 13.100 254.364 13.000 254.264 13.000 H 248.464 C 248.364 13.000 248.464 13.100 248.464 13.000 V 10.100 C 248.464 10.045 248.419 10.000 248.364 10.000 H 242.364 C 242.309 10.000 242.264 10.045 242.264 10.100 V 13.000 C 242.264 13.100 242.364 13.000 242.264 13.000 H 236.464 C 236.364 13.000 236.464 13.100 236.464 13.000 V 10.100 C 236.464 10.045 236.419 10.000 236.364 10.000 H 230.364 C 230.309 10.000 230.264 10.045 230.264 10.100 V 13.000 C 230.264 13.100 230.364 13.000 230.264 13.000 H 222.096 C 222.041 13.000 221.996 13.045 221.996 13.100 C 221.996 13.045 222.041 13.000 222.096 13.000 H 220.364 C 220.309 13.000 220.264 13.045 220.264 13.100 V 16.100 C 220.264 16.155 220.309 16.200 220.364 16.200 H 222.862 C 222.962 16.200 222.862 16.100 222.862 16.200 V 22.000 C 222.862 22.100 222.962 22.000 222.862 22.000 H 220.364 C 220.309 22.000 220.264 22.045 220.264 22.100 V 28.100 C 220.264 28.155 220.309 28.200 220.364 28.200 H 222.862 C 222.962 28.200 222.862 28.100 222.862 28.200 V 34.000 C 222.862 34.100 222.962 34.000 222.862 34.000 H 220.364 C 220.309 34.000 220.264 34.045 220.264 34.100 V 37.100 C 220.264 37.155 220.309 37.200 220.364 37.200 H 222.096 C 222.041 37.200 221.996 37.155 221.996 37.100 C 221.996 37.155 222.041 37.200 222.096 37.200 Z" stroke="rgb(0,0,0)" stroke-width="0.20" />
</g>
<g id="p-8" style="fill:none;stroke-linecap:round;stroke-linejoin:round;">
  <path d="M 274.662 37.200 H 282.830 C 282.930 37.200 282.830 37.100 282.830 37.200 V 40.100 C 282.830 40.155 282.875 40.200 282.930 40.200 H 288.930 C 288.985 40.200 289.030 40.155 289.030 40.100 V 37.200 C 289.030 37.100 288.930 37.200 289.030 37.200 H 294.830 C 294.930 37.200 294.830 37.100 294.830 37.200 V 40.100 C 294.830 40.155 294.875 40.200 294.930 40.200 H 300.930 C 300.985 40.200 301.030 40.155 301.030 40.100 V 37.200 C 301.030 37.100 300.930 37.200 301.030 37.200 H 306.830 C 306.930 37.200 306.830 37.100 306.830 37.200 V 40.100 C 306.830 40.155 306.875 40.200 306.930 40.200 H 312.930 C 312.985 40.200 313.030 40.155 313.030 40.100 V 37.200 C 313.030 37.100 312.930 37.200 313.030 37.200 H 321.198 C 321.253 37.200 321.298 37.155 321.298 37.100 V 34.200 C 321.298 34.100 321.198 34.200 321.298 34.200 H 323.796 C 323.851 34.200 323.896 34.155 323.896 34.100 V 28.100 C 323.896 28.045 323.851 28.000 323.796 28.000 H 321.298 C 321.198 28.000 321.298 28.100 321.298 28.000 V 22.200 C 321.298 22.100 321.198 22.200 321.298 22.200 H 323.796 C 323.851 22.200 323.896 22.155 323.896 22.100 V 16.100 C 323.896 16.045 323.851 16.000 323.796 16.000 H 321.298 C 321.198 16.000 321.298 16.100 321.298 16.000 V 13.100 C 321.298 13.045 321.253 13.000 321.198 13.000 H 313.030 C 312.930 13.000 313.030 13.100 313.030 13.000 V 10.100 C 313.030 10.045 312.985 10.000 312.930 10.000 H 306.930 C 306.875 10.000 306.830 10.045 306.830 10.100 V 13.000 C 306.830 13.100 306.930 13.000 306.830 13.000 H 301.030 C 300.930 13.000 301.030 13.100 301.030 13.000 V 10.100 C 301.030 10.045 300.985 10.000 300.930 10.000 H 294.930 C 294.875 10.000 294.830 10.045 294.830 10.100 V 13.000 C 294.830 13.100 294.930 13.000 294.830 13.000 H 289.030 C 288.930 13.000 289.030 13.100 289.030 13.000 V 10.100 C 289.030 10.045 288.985 10.000 288.930 10.000 H 282.930 C 282.875 10.000 282.830 10.045 282.830 10.100 V 13.000 C 282.830 13.100 282.930 13.000 282.830 13.000 H 274.662 C 274.607 13.000 274.562 13.045 274.562 13.100 V 16.000 C 274.562 16.100 274.662 16.000 274.562 16.000 H 272.064 C 272.009 16.000 271.964 16.045 271.964 16.100 V 22.100 C 271.964 22.155 272.009 22.200 272.064 22.200 H 274.562 C 274.662 22.200 274.562 22.100 274.562 22.200 V 28.000 C 274.562 28.100 274.662 28.000 274.562 28.000 H 272.064 C 272.009 28.000 271.964 28.045 271.964 28.100 V 34.100 C 271.964 34.155 272.009 34.200 272.064 34.200 H 274.562 C 274.662 34.200 274.562 34.100 274.562 34.200 V 37.100 C 274.562 37.155 274.607 37.200 274.662 37.200 Z" stroke="rgb(0,0,0)" stroke-width="0.20" />
</g>
</svg>