<?xml version="1.0" encoding="UTF-8" standalone="no"?>
<!DOCTYPE svg PUBLIC "-//W3C//DTD SVG 1.1//EN" "http://www.w3.org/Graphics/SVG/1.1/DTD/svg11.dtd">
<svg width="100%" height="100%" viewBox="0 0 994 909" version="1.1" xmlns="http://www.w3.org/2000/svg" xmlns:xlink="http://www.w3.org/1999/xlink" xml:space="preserve" xmlns:serif="http://www.serif.com/" style="fill-rule:evenodd;clip-rule:evenodd;stroke-linecap:round;stroke-linejoin:round;">
    <g id="Artboard1" transform="matrix(1.04966,0,0,2.13443,0,0)">
        <rect x="0" y="0" width="946.488" height="425.764" style="fill:none;"/>
        <g>
            <path d="M91.695,69L98.666,70.979L90.618,77.833C90.664,77.846 90.591,77.855 90.618,77.833L83.648,75.854C83.621,75.847 83.588,75.851 83.575,75.863L75.473,82.765C75.457,82.777 75.465,82.793 75.492,82.801L82.462,84.78L74.415,91.634C74.461,91.647 74.388,91.658 74.415,91.634L67.445,89.655C67.418,89.648 67.385,89.652 67.372,89.666L59.27,96.566C59.254,96.578 59.262,96.596 59.289,96.602L66.259,98.581L58.211,105.436C58.257,105.45 58.184,105.459 58.211,105.436L51.241,103.458C51.214,103.45 51.182,103.454 51.168,103.467L43.067,110.367C43.051,110.381 43.059,110.397 43.086,110.403L50.056,112.382L42.008,119.238C42.054,119.251 41.981,119.26 42.008,119.238L35.038,117.259C35.011,117.251 34.979,117.256 34.965,117.268L26.864,124.169C26.847,124.182 26.855,124.198 26.882,124.206L33.853,126.185L25.805,133.039C25.851,133.052 25.778,133.063 25.805,133.039L18.835,131.06C18.808,131.053 18.775,131.057 18.762,131.071L7.96,140.271C7.949,140.279 7.949,140.29 7.96,140.298L18.762,149.499C18.775,149.512 18.808,149.516 18.835,149.508L25.805,147.529L33.853,154.385L26.882,156.363C26.855,156.37 26.847,156.387 26.864,156.399L34.965,163.3C34.979,163.313 35.011,163.317 35.038,163.31L42.008,161.332L42.003,161.32C42.008,161.315 42.024,161.318 42.024,161.323L42.008,161.332L50.056,168.186L43.086,170.165C43.059,170.172 43.051,170.188 43.067,170.2L51.168,177.102C51.182,177.114 51.214,177.118 51.241,177.112L58.211,175.133L58.206,175.121C58.211,175.117 58.227,175.119 58.227,175.124L58.211,175.133L66.259,181.987L59.289,183.966C59.262,183.974 59.254,183.99 59.27,184.003L67.372,190.903C67.385,190.915 67.418,190.921 67.445,190.913L74.415,188.934L82.462,195.789L75.492,197.768C75.465,197.775 75.457,197.791 75.473,197.804L83.575,204.705C83.588,204.718 83.621,204.722 83.648,204.715L90.618,202.736L98.666,209.591L91.695,211.569C91.668,211.577 91.66,211.593 91.677,211.605L102.479,220.807C102.487,220.815 102.506,220.821 102.525,220.821L124.129,220.821C124.159,220.821 124.183,220.809 124.183,220.794L124.183,216.836L140.278,216.836L140.278,220.794C140.278,220.809 140.303,220.821 140.332,220.821L156.536,220.821C156.565,220.821 156.59,220.809 156.59,220.794L156.59,216.836L172.685,216.836L172.685,220.794C172.685,220.809 172.709,220.821 172.739,220.821L188.942,220.821C188.972,220.821 188.996,220.809 188.996,220.794L188.996,216.836L205.091,216.836L205.091,220.794C205.091,220.809 205.116,220.821 205.145,220.821L221.349,220.821C221.378,220.821 221.403,220.809 221.403,220.794L221.403,216.836L237.498,216.836L237.498,220.794C237.498,220.809 237.522,220.821 237.552,220.821L253.755,220.821C253.785,220.821 253.809,220.809 253.809,220.794L253.809,216.836L269.904,216.836L269.904,220.794C269.904,220.809 269.929,220.821 269.958,220.821L291.563,220.821C291.582,220.821 291.601,220.815 291.609,220.807L302.411,211.605C302.427,211.593 302.419,211.577 302.392,211.569L295.422,209.591L303.469,202.736L303.454,202.727C303.454,202.722 303.47,202.72 303.474,202.724L303.469,202.736L310.44,204.715C310.467,204.722 310.499,204.718 310.512,204.705L318.614,197.804C318.63,197.791 318.622,197.775 318.595,197.768L311.625,195.789L319.673,188.934L319.657,188.925C319.657,188.92 319.673,188.918 319.678,188.923L319.673,188.934L326.643,190.913C326.67,190.921 326.702,190.915 326.716,190.903L334.817,184.003C334.834,183.99 334.825,183.974 334.798,183.966L327.828,181.987L335.876,175.133L335.86,175.124C335.86,175.119 335.876,175.117 335.881,175.121L335.876,175.133L342.846,177.112C342.873,177.118 342.905,177.114 342.919,177.102L351.021,170.2C351.037,170.188 351.029,170.172 351.002,170.165L344.032,168.186L352.079,161.332L359.049,163.31C359.076,163.317 359.109,163.313 359.122,163.3L367.224,156.399C367.24,156.387 367.232,156.37 367.205,156.363L360.235,154.385L368.282,147.529L368.267,147.52C368.267,147.516 368.283,147.514 368.287,147.518L368.282,147.529L375.253,149.508C375.28,149.516 375.312,149.512 375.326,149.499L386.128,140.298C386.138,140.29 386.138,140.279 386.128,140.271L375.326,131.071C375.312,131.057 375.28,131.053 375.253,131.06L368.282,133.039C368.31,133.063 368.237,133.052 368.282,133.039L360.235,126.185L367.205,124.206C367.232,124.198 367.24,124.182 367.224,124.169L359.122,117.268C359.109,117.256 359.076,117.251 359.049,117.259L352.079,119.238C352.106,119.26 352.033,119.251 352.079,119.238L344.032,112.382L351.002,110.403C351.029,110.397 351.037,110.381 351.021,110.367L342.919,103.467C342.905,103.454 342.873,103.45 342.846,103.458L335.876,105.436C335.903,105.459 335.83,105.45 335.876,105.436L327.828,98.581L334.798,96.602C334.825,96.596 334.834,96.578 334.817,96.566L326.716,89.666C326.702,89.652 326.67,89.648 326.643,89.655L319.673,91.634C319.7,91.658 319.627,91.647 319.673,91.634L311.625,84.78L318.595,82.801C318.622,82.793 318.63,82.777 318.614,82.765L310.512,75.863C310.499,75.851 310.467,75.847 310.44,75.854L303.469,77.833C303.496,77.855 303.424,77.846 303.469,77.833L295.422,70.979L302.392,69C302.419,68.992 302.427,68.976 302.411,68.963L291.609,59.762C291.601,59.754 291.582,59.749 291.563,59.749L269.958,59.749C269.929,59.749 269.904,59.761 269.904,59.775L269.904,63.733L253.809,63.733L253.809,59.775C253.809,59.761 253.785,59.749 253.755,59.749L237.552,59.749C237.522,59.749 237.498,59.761 237.498,59.775L237.498,63.733L221.403,63.733L221.403,59.775C221.403,59.761 221.378,59.749 221.349,59.749L205.145,59.749C205.116,59.749 205.091,59.761 205.091,59.775L205.091,63.733L188.996,63.733L188.996,59.775C188.996,59.761 188.972,59.749 188.942,59.749L172.739,59.749C172.709,59.749 172.685,59.761 172.685,59.775L172.685,63.733L156.59,63.733L156.59,59.775C156.59,59.761 156.565,59.749 156.536,59.749L140.332,59.749C140.303,59.749 140.278,59.761 140.278,59.775L140.278,63.733L124.183,63.733L124.183,59.775C124.183,59.761 124.159,59.749 124.129,59.749L102.525,59.749C102.506,59.749 102.487,59.754 102.479,59.762L91.677,68.963C91.66,68.976 91.668,68.992 91.695,69ZM197.044,133.644C204.496,133.644 210.546,136.62 210.546,140.285C210.546,143.949 204.496,146.925 197.044,146.925C189.591,146.925 183.541,143.949 183.541,140.285C183.541,136.62 189.591,133.644 197.044,133.644Z" style="fill:none;stroke:black;stroke-width:0.03px;"/>
        </g>
        <g transform="matrix(0.952692,0,0,0.468509,-19.0538,-8.69943)">
            <path d="M524.299,170.902L521.788,170.902L521.788,175.25L516.334,184.697L509.017,180.473C508.989,180.459 508.955,180.468 508.941,180.493L500.437,195.225C500.42,195.25 500.428,195.284 500.457,195.301L507.773,199.525L499.326,214.155L492.009,209.931C491.981,209.917 491.947,209.925 491.933,209.954L483.429,224.683C483.412,224.708 483.42,224.745 483.449,224.759L490.765,228.983L482.318,243.615L475.002,239.391C474.973,239.374 474.939,239.383 474.925,239.411L466.421,254.14C466.404,254.169 466.413,254.203 466.441,254.217L473.757,258.44L465.31,273.073L457.994,268.849C457.965,268.832 457.931,268.843 457.917,268.869L449.413,283.598C449.396,283.626 449.405,283.66 449.433,283.677L456.749,287.901L448.302,302.53L440.986,298.307C440.957,298.293 440.923,298.301 440.909,298.329L432.026,313.716L429.571,317.968C429.559,317.985 429.559,318.008 429.571,318.025L432.026,322.277L440.909,337.663C440.923,337.691 440.957,337.7 440.986,337.683L448.302,333.459L456.749,348.092L449.433,352.315C449.405,352.329 449.396,352.366 449.413,352.392L457.917,367.121C457.931,367.149 457.965,367.157 457.994,367.143L465.31,362.92L473.757,377.549L466.441,381.773C466.413,381.79 466.404,381.824 466.421,381.849L474.925,396.581C474.939,396.607 474.973,396.615 475.002,396.601L482.318,392.377L490.765,407.007L483.449,411.231C483.42,411.248 483.412,411.282 483.429,411.31L491.933,426.039C491.947,426.064 491.981,426.076 492.009,426.059L499.326,421.835L507.773,436.467L500.457,440.691C500.428,440.705 500.42,440.739 500.437,440.768L508.941,455.496C508.955,455.525 508.989,455.533 509.017,455.519L516.334,451.295L521.788,460.742L521.788,467.653L517.465,470.149C517.436,470.166 517.428,470.2 517.445,470.225L526.329,485.614L528.783,489.866C528.792,489.883 528.812,489.895 528.831,489.895L551.509,489.895C551.54,489.895 551.565,489.869 551.565,489.838L551.565,481.391L568.46,481.391L568.46,489.838C568.46,489.869 568.485,489.895 568.517,489.895L585.524,489.895C585.556,489.895 585.581,489.869 585.581,489.838L585.581,481.391L602.476,481.391L602.476,489.838C602.476,489.869 602.501,489.895 602.532,489.895L619.54,489.895C619.571,489.895 619.597,489.869 619.597,489.838L619.597,481.391L636.491,481.391L636.491,489.838C636.491,489.869 636.517,489.895 636.548,489.895L653.556,489.895C653.587,489.895 653.613,489.869 653.613,489.838L653.613,481.391L670.507,481.391L670.507,489.838C670.507,489.869 670.533,489.895 670.564,489.895L687.572,489.895C687.603,489.895 687.628,489.869 687.628,489.838L687.628,481.391L704.523,481.391L704.523,489.838C704.523,489.869 704.548,489.895 704.58,489.895L727.257,489.895C727.277,489.895 727.296,489.883 727.305,489.866L729.76,485.614L738.643,470.225C738.66,470.2 738.652,470.166 738.624,470.149L734.387,467.703L734.387,460.592L739.755,451.295L747.071,455.519C747.099,455.533 747.133,455.525 747.147,455.496L755.651,440.768C755.668,440.739 755.66,440.705 755.631,440.691L748.315,436.467L756.763,421.835L764.079,426.059C764.107,426.076 764.141,426.064 764.155,426.039L772.659,411.31C772.676,411.282 772.668,411.248 772.639,411.231L765.323,407.007L773.77,392.377L781.087,396.601C781.115,396.615 781.149,396.607 781.163,396.581L789.667,381.849C789.684,381.824 789.676,381.79 789.647,381.773L782.331,377.549L790.778,362.92L798.094,367.143C798.123,367.157 798.157,367.149 798.171,367.121L806.675,352.392C806.692,352.366 806.683,352.329 806.655,352.315L799.339,348.092L807.786,333.459L815.102,337.683C815.131,337.7 815.165,337.691 815.179,337.663L824.063,322.277L826.517,318.025C826.529,318.008 826.529,317.985 826.517,317.968L824.063,313.716L815.179,298.329C815.165,298.301 815.131,298.293 815.102,298.307L807.786,302.53L799.339,287.901L806.655,283.677C806.683,283.66 806.692,283.626 806.675,283.598L798.171,268.869C798.157,268.843 798.123,268.832 798.094,268.849L790.778,273.073L782.331,258.44L789.647,254.217C789.676,254.203 789.684,254.169 789.667,254.14L781.163,239.411C781.149,239.383 781.115,239.374 781.087,239.391L773.77,243.615L765.323,228.983L772.639,224.759C772.668,224.745 772.676,224.708 772.659,224.683L764.155,209.954C764.141,209.925 764.107,209.917 764.079,209.931L756.763,214.155L748.315,199.525L755.631,195.301C755.66,195.284 755.668,195.25 755.651,195.225L747.147,180.493C747.133,180.468 747.099,180.459 747.071,180.473L739.755,184.697L734.387,175.4L734.387,170.902L731.789,170.902L731.307,170.067L738.624,165.844C738.652,165.827 738.66,165.793 738.643,165.764L729.76,150.378L727.305,146.126C727.296,146.109 727.277,146.098 727.257,146.098L704.58,146.098C704.548,146.098 704.523,146.123 704.523,146.154L704.523,154.602L687.628,154.602L687.628,146.154C687.628,146.123 687.603,146.098 687.572,146.098L670.564,146.098C670.533,146.098 670.507,146.123 670.507,146.154L670.507,154.602L653.613,154.602L653.613,146.154C653.613,146.123 653.587,146.098 653.556,146.098L636.548,146.098C636.517,146.098 636.491,146.123 636.491,146.154L636.491,154.602L619.597,154.602L619.597,146.154C619.597,146.123 619.571,146.098 619.54,146.098L602.532,146.098C602.501,146.098 602.476,146.123 602.476,146.154L602.476,154.602L585.581,154.602L585.581,146.154C585.581,146.123 585.556,146.098 585.524,146.098L568.517,146.098C568.485,146.098 568.46,146.123 568.46,146.154L568.46,154.602L551.565,154.602L551.565,146.154C551.565,146.123 551.54,146.098 551.509,146.098L528.831,146.098C528.812,146.098 528.792,146.109 528.783,146.126L526.329,150.378L517.445,165.764C517.428,165.793 517.436,165.827 517.465,165.844L524.781,170.067L524.299,170.902ZM521.788,224.208L521.788,411.783C508.102,396.285 497.922,377.914 492.053,357.927C484.398,331.855 484.398,304.135 492.053,278.066C497.922,258.077 508.102,239.705 521.788,224.208ZM734.387,224.306C739.091,229.637 743.402,235.34 747.277,241.37C761.966,264.228 769.777,290.824 769.777,317.996C769.777,345.166 761.966,371.764 747.277,394.623C743.402,400.652 739.091,406.354 734.387,411.685L734.387,224.306ZM628.044,303.823C635.867,303.823 642.217,310.174 642.217,317.996C642.217,325.819 635.867,332.169 628.044,332.169C620.222,332.169 613.871,325.819 613.871,317.996C613.871,310.174 620.222,303.823 628.044,303.823Z" style="fill:none;stroke:black;stroke-width:0.06px;"/>
        </g>
        <path d="M29.556,4.608L29.556,8.565L8.006,8.565C7.976,8.565 7.952,8.577 7.952,8.592L7.952,19.216C7.952,19.231 7.976,19.243 8.006,19.243L14.968,19.243L14.968,27.158L8.006,27.158C7.976,27.158 7.952,27.17 7.952,27.185L7.952,35.153C7.952,35.168 7.976,35.18 8.006,35.18L14.968,35.18L14.968,43.095L8.006,43.095C7.976,43.095 7.952,43.107 7.952,43.121L7.952,53.746C7.952,53.76 7.976,53.772 8.006,53.772L29.556,53.772L29.556,57.73C29.556,57.745 29.58,57.757 29.61,57.757L45.813,57.757C45.843,57.757 45.867,57.745 45.867,57.73L45.867,53.772L61.962,53.772L61.962,57.73C61.962,57.745 61.987,57.757 62.016,57.757L78.22,57.757C78.249,57.757 78.274,57.745 78.274,57.73L78.274,53.772L94.369,53.772L94.369,57.73C94.369,57.745 94.393,57.757 94.423,57.757L110.626,57.757C110.656,57.757 110.68,57.745 110.68,57.73L110.68,53.772L126.776,53.772L126.776,57.73C126.776,57.745 126.8,57.757 126.83,57.757L143.033,57.757C143.063,57.757 143.087,57.745 143.087,57.73L143.087,53.772L159.182,53.772L159.182,57.73C159.182,57.745 159.206,57.757 159.236,57.757L175.439,57.757C175.469,57.757 175.493,57.745 175.493,57.73L175.493,53.772L197.044,53.772C197.073,53.772 197.098,53.76 197.098,53.746L197.098,43.121C197.098,43.107 197.073,43.095 197.044,43.095L190.082,43.095L190.082,35.18L197.044,35.18C197.073,35.18 197.098,35.168 197.098,35.153L197.098,27.185C197.098,27.17 197.073,27.158 197.044,27.158L190.082,27.158L190.082,19.243L197.044,19.243C197.073,19.243 197.098,19.231 197.098,19.216L197.098,8.592C197.098,8.577 197.073,8.565 197.044,8.565L175.493,8.565L175.493,4.608C175.493,4.593 175.469,4.581 175.439,4.581L159.236,4.581C159.206,4.581 159.182,4.593 159.182,4.608L159.182,8.565L143.087,8.565L143.087,4.608C143.087,4.593 143.063,4.581 143.033,4.581L126.83,4.581C126.8,4.581 126.776,4.593 126.776,4.608L126.776,8.565L110.68,8.565L110.68,4.608C110.68,4.593 110.656,4.581 110.626,4.581L94.423,4.581C94.393,4.581 94.369,4.593 94.369,4.608L94.369,8.565L78.274,8.565L78.274,4.608C78.274,4.593 78.249,4.581 78.22,4.581L62.016,4.581C61.987,4.581 61.962,4.593 61.962,4.608L61.962,8.565L45.867,8.565L45.867,4.608C45.867,4.593 45.843,4.581 45.813,4.581L29.61,4.581C29.58,4.581 29.556,4.593 29.556,4.608ZM122.779,27.849C122.779,24.184 116.728,21.208 109.276,21.208L95.773,21.208C88.321,21.208 82.271,24.184 82.271,27.849L82.271,34.489C82.271,38.154 88.321,41.129 95.773,41.129L109.276,41.129C116.728,41.129 122.779,38.154 122.779,34.489L122.779,27.849Z" style="fill:none;stroke:black;stroke-width:0.03px;"/>
        <g transform="matrix(0.952692,0,0,0.468509,-19.0538,-8.69943)">
            <path d="M238.558,133.342L256.269,133.342C256.326,133.342 256.269,133.285 256.269,133.342L256.269,141.789C256.269,141.82 256.294,141.846 256.326,141.846L273.334,141.846C273.365,141.846 273.39,141.82 273.39,141.789L273.39,133.342C273.39,133.285 273.334,133.342 273.39,133.342L290.285,133.342C290.341,133.342 290.285,133.285 290.285,133.342L290.285,141.789C290.285,141.82 290.31,141.846 290.341,141.846L307.349,141.846C307.38,141.846 307.406,141.82 307.406,141.789L307.406,133.342C307.406,133.285 307.349,133.342 307.406,133.342L324.3,133.342C324.357,133.342 324.3,133.285 324.3,133.342L324.3,141.789C324.3,141.82 324.326,141.846 324.357,141.846L341.365,141.846C341.396,141.846 341.422,141.82 341.422,141.789L341.422,133.342C341.422,133.285 341.365,133.342 341.422,133.342L358.316,133.342C358.373,133.342 358.316,133.285 358.316,133.342L358.316,141.789C358.316,141.82 358.342,141.846 358.373,141.846L375.381,141.846C375.412,141.846 375.437,141.82 375.437,141.789L375.437,133.342C375.437,133.285 375.381,133.342 375.437,133.342L392.332,133.342C392.389,133.342 392.332,133.285 392.332,133.342L392.332,141.789C392.332,141.82 392.357,141.846 392.389,141.846L409.397,141.846C409.428,141.846 409.453,141.82 409.453,141.789L409.453,133.342C409.453,133.285 409.397,133.342 409.453,133.342L427.164,133.342C427.195,133.342 427.221,133.316 427.221,133.285L427.221,110.665C427.221,110.608 427.164,110.665 427.221,110.665L434.529,110.665C434.56,110.665 434.585,110.639 434.585,110.608L434.585,93.6C434.585,93.569 434.56,93.543 434.529,93.543L427.221,93.543C427.164,93.543 427.221,93.6 427.221,93.543L427.221,76.649C427.221,76.592 427.164,76.649 427.221,76.649L434.529,76.649C434.56,76.649 434.585,76.623 434.585,76.592L434.585,59.584C434.585,59.553 434.56,59.528 434.529,59.528L427.221,59.528C427.164,59.528 427.221,59.584 427.221,59.528L427.221,36.907C427.221,36.876 427.195,36.85 427.164,36.85L409.453,36.85C409.397,36.85 409.453,36.907 409.453,36.85L409.453,28.403C409.453,28.372 409.428,28.346 409.397,28.346L392.389,28.346C392.357,28.346 392.332,28.372 392.332,28.403L392.332,36.85C392.332,36.907 392.389,36.85 392.332,36.85L375.437,36.85C375.381,36.85 375.437,36.907 375.437,36.85L375.437,28.403C375.437,28.372 375.412,28.346 375.381,28.346L358.373,28.346C358.342,28.346 358.316,28.372 358.316,28.403L358.316,36.85C358.316,36.907 358.373,36.85 358.316,36.85L341.422,36.85C341.365,36.85 341.422,36.907 341.422,36.85L341.422,28.403C341.422,28.372 341.396,28.346 341.365,28.346L324.357,28.346C324.326,28.346 324.3,28.372 324.3,28.403L324.3,36.85C324.3,36.907 324.357,36.85 324.3,36.85L307.406,36.85C307.349,36.85 307.406,36.907 307.406,36.85L307.406,28.403C307.406,28.372 307.38,28.346 307.349,28.346L290.341,28.346C290.31,28.346 290.285,28.372 290.285,28.403L290.285,36.85C290.285,36.907 290.341,36.85 290.285,36.85L273.39,36.85C273.334,36.85 273.39,36.907 273.39,36.85L273.39,28.403C273.39,28.372 273.365,28.346 273.334,28.346L256.326,28.346C256.294,28.346 256.269,28.372 256.269,28.403L256.269,36.85C256.269,36.907 256.326,36.85 256.269,36.85L238.558,36.85C238.527,36.85 238.501,36.876 238.501,36.907L238.501,59.528C238.501,59.584 238.558,59.528 238.501,59.528L231.194,59.528C231.163,59.528 231.137,59.553 231.137,59.584L231.137,76.592C231.137,76.623 231.163,76.649 231.194,76.649L238.501,76.649C238.558,76.649 238.501,76.592 238.501,76.649L238.501,93.543C238.501,93.6 238.558,93.543 238.501,93.543L231.194,93.543C231.163,93.543 231.137,93.569 231.137,93.6L231.137,110.608C231.137,110.639 231.163,110.665 231.194,110.665L238.501,110.665C238.558,110.665 238.501,110.608 238.501,110.665L238.501,133.285C238.501,133.316 238.527,133.342 238.558,133.342Z" style="fill:none;fill-rule:nonzero;stroke:black;stroke-width:0.06px;"/>
        </g>
        <g transform="matrix(0.952692,0,0,0.468509,-19.0538,-8.69943)">
            <path d="M443.803,133.342L461.514,133.342C461.571,133.342 461.514,133.285 461.514,133.342L461.514,141.789C461.514,141.82 461.54,141.846 461.571,141.846L478.579,141.846C478.61,141.846 478.636,141.82 478.636,141.789L478.636,133.342C478.636,133.285 478.579,133.342 478.636,133.342L495.53,133.342C495.587,133.342 495.53,133.285 495.53,133.342L495.53,141.789C495.53,141.82 495.556,141.846 495.587,141.846L512.595,141.846C512.626,141.846 512.651,141.82 512.651,141.789L512.651,133.342C512.651,133.285 512.595,133.342 512.651,133.342L529.546,133.342C529.603,133.342 529.546,133.285 529.546,133.342L529.546,141.789C529.546,141.82 529.571,141.846 529.603,141.846L546.61,141.846C546.642,141.846 546.667,141.82 546.667,141.789L546.667,133.342C546.667,133.285 546.61,133.342 546.667,133.342L563.562,133.342C563.618,133.342 563.562,133.285 563.562,133.342L563.562,141.789C563.562,141.82 563.587,141.846 563.618,141.846L580.626,141.846C580.657,141.846 580.683,141.82 580.683,141.789L580.683,133.342C580.683,133.285 580.626,133.342 580.683,133.342L597.577,133.342C597.634,133.342 597.577,133.285 597.577,133.342L597.577,141.789C597.577,141.82 597.603,141.846 597.634,141.846L614.642,141.846C614.673,141.846 614.699,141.82 614.699,141.789L614.699,133.342C614.699,133.285 614.642,133.342 614.699,133.342L632.409,133.342C632.441,133.342 632.466,133.316 632.466,133.285C632.466,133.316 632.441,133.342 632.409,133.342L637.319,133.342C637.35,133.342 637.376,133.316 637.376,133.285L637.376,110.608C637.376,110.577 637.35,110.551 637.319,110.551L630.011,110.551C629.955,110.551 630.011,110.608 630.011,110.551L630.011,93.657C630.011,93.6 629.955,93.657 630.011,93.657L637.319,93.657C637.35,93.657 637.376,93.631 637.376,93.6L637.376,76.592C637.376,76.561 637.35,76.535 637.319,76.535L630.011,76.535C629.955,76.535 630.011,76.592 630.011,76.535L630.011,59.641C630.011,59.584 629.955,59.641 630.011,59.641L637.319,59.641C637.35,59.641 637.376,59.615 637.376,59.584L637.376,36.907C637.376,36.876 637.35,36.85 637.319,36.85L632.409,36.85C632.441,36.85 632.466,36.876 632.466,36.907C632.466,36.876 632.441,36.85 632.409,36.85L614.699,36.85C614.642,36.85 614.699,36.907 614.699,36.85L614.699,28.403C614.699,28.372 614.673,28.346 614.642,28.346L597.634,28.346C597.603,28.346 597.577,28.372 597.577,28.403L597.577,36.85C597.577,36.907 597.634,36.85 597.577,36.85L580.683,36.85C580.626,36.85 580.683,36.907 580.683,36.85L580.683,28.403C580.683,28.372 580.657,28.346 580.626,28.346L563.618,28.346C563.587,28.346 563.562,28.372 563.562,28.403L563.562,36.85C563.562,36.907 563.618,36.85 563.562,36.85L546.667,36.85C546.61,36.85 546.667,36.907 546.667,36.85L546.667,28.403C546.667,28.372 546.642,28.346 546.61,28.346L529.603,28.346C529.571,28.346 529.546,28.372 529.546,28.403L529.546,36.85C529.546,36.907 529.603,36.85 529.546,36.85L512.651,36.85C512.595,36.85 512.651,36.907 512.651,36.85L512.651,28.403C512.651,28.372 512.626,28.346 512.595,28.346L495.587,28.346C495.556,28.346 495.53,28.372 495.53,28.403L495.53,36.85C495.53,36.907 495.587,36.85 495.53,36.85L478.636,36.85C478.579,36.85 478.636,36.907 478.636,36.85L478.636,28.403C478.636,28.372 478.61,28.346 478.579,28.346L461.571,28.346C461.54,28.346 461.514,28.372 461.514,28.403L461.514,36.85C461.514,36.907 461.571,36.85 461.514,36.85L443.803,36.85C443.772,36.85 443.747,36.876 443.747,36.907C443.747,36.876 443.772,36.85 443.803,36.85L438.894,36.85C438.863,36.85 438.837,36.876 438.837,36.907L438.837,59.584C438.837,59.615 438.863,59.641 438.894,59.641L446.202,59.641C446.258,59.641 446.202,59.584 446.202,59.641L446.202,76.535C446.202,76.592 446.258,76.535 446.202,76.535L438.894,76.535C438.863,76.535 438.837,76.561 438.837,76.592L438.837,93.6C438.837,93.631 438.863,93.657 438.894,93.657L446.202,93.657C446.258,93.657 446.202,93.6 446.202,93.657L446.202,110.551C446.202,110.608 446.258,110.551 446.202,110.551L438.894,110.551C438.863,110.551 438.837,110.577 438.837,110.608L438.837,133.285C438.837,133.316 438.863,133.342 438.894,133.342L443.803,133.342C443.772,133.342 443.747,133.316 443.747,133.285C443.747,133.316 443.772,133.342 443.803,133.342Z" style="fill:none;fill-rule:nonzero;stroke:black;stroke-width:0.06px;"/>
        </g>
        <g transform="matrix(0.952692,0,0,0.468509,-19.0538,-8.69943)">
            <path d="M649.049,133.342L666.76,133.342C666.816,133.342 666.76,133.285 666.76,133.342L666.76,141.789C666.76,141.82 666.785,141.846 666.816,141.846L683.824,141.846C683.855,141.846 683.881,141.82 683.881,141.789L683.881,133.342C683.881,133.285 683.824,133.342 683.881,133.342L700.775,133.342C700.832,133.342 700.775,133.285 700.775,133.342L700.775,141.789C700.775,141.82 700.801,141.846 700.832,141.846L717.84,141.846C717.871,141.846 717.897,141.82 717.897,141.789L717.897,133.342C717.897,133.285 717.84,133.342 717.897,133.342L734.791,133.342C734.848,133.342 734.791,133.285 734.791,133.342L734.791,141.789C734.791,141.82 734.817,141.846 734.848,141.846L751.856,141.846C751.887,141.846 751.912,141.82 751.912,141.789L751.912,133.342C751.912,133.285 751.856,133.342 751.912,133.342L768.807,133.342C768.864,133.342 768.807,133.285 768.807,133.342L768.807,141.789C768.807,141.82 768.832,141.846 768.864,141.846L785.871,141.846C785.903,141.846 785.928,141.82 785.928,141.789L785.928,133.342C785.928,133.285 785.871,133.342 785.928,133.342L802.823,133.342C802.879,133.342 802.823,133.285 802.823,133.342L802.823,141.789C802.823,141.82 802.848,141.846 802.879,141.846L819.887,141.846C819.918,141.846 819.944,141.82 819.944,141.789L819.944,133.342C819.944,133.285 819.887,133.342 819.944,133.342L837.655,133.342C837.686,133.342 837.711,133.316 837.711,133.285L837.711,110.665C837.711,110.608 837.655,110.665 837.711,110.665L845.019,110.665C845.05,110.665 845.076,110.639 845.076,110.608L845.076,93.6C845.076,93.569 845.05,93.543 845.019,93.543L837.711,93.543C837.655,93.543 837.711,93.6 837.711,93.543L837.711,76.649C837.711,76.592 837.655,76.649 837.711,76.649L845.019,76.649C845.05,76.649 845.076,76.623 845.076,76.592L845.076,59.584C845.076,59.553 845.05,59.528 845.019,59.528L837.711,59.528C837.655,59.528 837.711,59.584 837.711,59.528L837.711,36.907C837.711,36.876 837.686,36.85 837.655,36.85L819.944,36.85C819.887,36.85 819.944,36.907 819.944,36.85L819.944,28.403C819.944,28.372 819.918,28.346 819.887,28.346L802.879,28.346C802.848,28.346 802.823,28.372 802.823,28.403L802.823,36.85C802.823,36.907 802.879,36.85 802.823,36.85L785.928,36.85C785.871,36.85 785.928,36.907 785.928,36.85L785.928,28.403C785.928,28.372 785.903,28.346 785.871,28.346L768.864,28.346C768.832,28.346 768.807,28.372 768.807,28.403L768.807,36.85C768.807,36.907 768.864,36.85 768.807,36.85L751.912,36.85C751.856,36.85 751.912,36.907 751.912,36.85L751.912,28.403C751.912,28.372 751.887,28.346 751.856,28.346L734.848,28.346C734.817,28.346 734.791,28.372 734.791,28.403L734.791,36.85C734.791,36.907 734.848,36.85 734.791,36.85L717.897,36.85C717.84,36.85 717.897,36.907 717.897,36.85L717.897,28.403C717.897,28.372 717.871,28.346 717.84,28.346L700.832,28.346C700.801,28.346 700.775,28.372 700.775,28.403L700.775,36.85C700.775,36.907 700.832,36.85 700.775,36.85L683.881,36.85C683.824,36.85 683.881,36.907 683.881,36.85L683.881,28.403C683.881,28.372 683.855,28.346 683.824,28.346L666.816,28.346C666.785,28.346 666.76,28.372 666.76,28.403L666.76,36.85C666.76,36.907 666.816,36.85 666.76,36.85L649.049,36.85C649.018,36.85 648.992,36.876 648.992,36.907L648.992,59.528C648.992,59.584 649.049,59.528 648.992,59.528L641.684,59.528C641.653,59.528 641.628,59.553 641.628,59.584L641.628,76.592C641.628,76.623 641.653,76.649 641.684,76.649L648.992,76.649C649.049,76.649 648.992,76.592 648.992,76.649L648.992,93.543C648.992,93.6 649.049,93.543 648.992,93.543L641.684,93.543C641.653,93.543 641.628,93.569 641.628,93.6L641.628,110.608C641.628,110.639 641.653,110.665 641.684,110.665L648.992,110.665C649.049,110.665 648.992,110.608 648.992,110.665L648.992,133.285C648.992,133.316 649.018,133.342 649.049,133.342Z" style="fill:none;fill-rule:nonzero;stroke:black;stroke-width:0.06px;"/>
        </g>
        <g transform="matrix(0.952692,0,0,0.468509,-73.6429,46.2449)">
            <path d="M854.294,133.342L872.005,133.342C872.062,133.342 872.005,133.285 872.005,133.342L872.005,141.789C872.005,141.82 872.031,141.846 872.062,141.846L889.07,141.846C889.101,141.846 889.126,141.82 889.126,141.789L889.126,133.342C889.126,133.285 889.07,133.342 889.126,133.342L906.021,133.342C906.077,133.342 906.021,133.285 906.021,133.342L906.021,141.789C906.021,141.82 906.046,141.846 906.077,141.846L923.085,141.846C923.117,141.846 923.142,141.82 923.142,141.789L923.142,133.342C923.142,133.285 923.085,133.342 923.142,133.342L940.037,133.342C940.093,133.342 940.037,133.285 940.037,133.342L940.037,141.789C940.037,141.82 940.062,141.846 940.093,141.846L957.101,141.846C957.132,141.846 957.158,141.82 957.158,141.789L957.158,133.342C957.158,133.285 957.101,133.342 957.158,133.342L974.052,133.342C974.109,133.342 974.052,133.285 974.052,133.342L974.052,141.789C974.052,141.82 974.078,141.846 974.109,141.846L991.117,141.846C991.148,141.846 991.174,141.82 991.174,141.789L991.174,133.342C991.174,133.285 991.117,133.342 991.174,133.342L1008.07,133.342C1008.12,133.342 1008.07,133.285 1008.07,133.342L1008.07,141.789C1008.07,141.82 1008.09,141.846 1008.12,141.846L1025.13,141.846C1025.16,141.846 1025.19,141.82 1025.19,141.789L1025.19,133.342C1025.19,133.285 1025.13,133.342 1025.19,133.342L1042.9,133.342C1042.93,133.342 1042.96,133.316 1042.96,133.285C1042.96,133.316 1042.93,133.342 1042.9,133.342L1047.81,133.342C1047.84,133.342 1047.87,133.316 1047.87,133.285L1047.87,110.608C1047.87,110.577 1047.84,110.551 1047.81,110.551L1040.5,110.551C1040.44,110.551 1040.5,110.608 1040.5,110.551L1040.5,93.657C1040.5,93.6 1040.44,93.657 1040.5,93.657L1047.81,93.657C1047.84,93.657 1047.87,93.631 1047.87,93.6L1047.87,76.592C1047.87,76.561 1047.84,76.535 1047.81,76.535L1040.5,76.535C1040.44,76.535 1040.5,76.592 1040.5,76.535L1040.5,59.641C1040.5,59.584 1040.44,59.641 1040.5,59.641L1047.81,59.641C1047.84,59.641 1047.87,59.615 1047.87,59.584L1047.87,36.907C1047.87,36.876 1047.84,36.85 1047.81,36.85L1042.9,36.85C1042.93,36.85 1042.96,36.876 1042.96,36.907C1042.96,36.876 1042.93,36.85 1042.9,36.85L1025.19,36.85C1025.13,36.85 1025.19,36.907 1025.19,36.85L1025.19,28.403C1025.19,28.372 1025.16,28.346 1025.13,28.346L1008.12,28.346C1008.09,28.346 1008.07,28.372 1008.07,28.403L1008.07,36.85C1008.07,36.907 1008.12,36.85 1008.07,36.85L991.174,36.85C991.117,36.85 991.174,36.907 991.174,36.85L991.174,28.403C991.174,28.372 991.148,28.346 991.117,28.346L974.109,28.346C974.078,28.346 974.052,28.372 974.052,28.403L974.052,36.85C974.052,36.907 974.109,36.85 974.052,36.85L957.158,36.85C957.101,36.85 957.158,36.907 957.158,36.85L957.158,28.403C957.158,28.372 957.132,28.346 957.101,28.346L940.093,28.346C940.062,28.346 940.037,28.372 940.037,28.403L940.037,36.85C940.037,36.907 940.093,36.85 940.037,36.85L923.142,36.85C923.085,36.85 923.142,36.907 923.142,36.85L923.142,28.403C923.142,28.372 923.117,28.346 923.085,28.346L906.077,28.346C906.046,28.346 906.021,28.372 906.021,28.403L906.021,36.85C906.021,36.907 906.077,36.85 906.021,36.85L889.126,36.85C889.07,36.85 889.126,36.907 889.126,36.85L889.126,28.403C889.126,28.372 889.101,28.346 889.07,28.346L872.062,28.346C872.031,28.346 872.005,28.372 872.005,28.403L872.005,36.85C872.005,36.907 872.062,36.85 872.005,36.85L854.294,36.85C854.263,36.85 854.237,36.876 854.237,36.907C854.237,36.876 854.263,36.85 854.294,36.85L849.385,36.85C849.353,36.85 849.328,36.876 849.328,36.907L849.328,59.584C849.328,59.615 849.353,59.641 849.385,59.641L856.692,59.641C856.749,59.641 856.692,59.584 856.692,59.641L856.692,76.535C856.692,76.592 856.749,76.535 856.692,76.535L849.385,76.535C849.353,76.535 849.328,76.561 849.328,76.592L849.328,93.6C849.328,93.631 849.353,93.657 849.385,93.657L856.692,93.657C856.749,93.657 856.692,93.6 856.692,93.657L856.692,110.551C856.692,110.608 856.749,110.551 856.692,110.551L849.385,110.551C849.353,110.551 849.328,110.577 849.328,110.608L849.328,133.285C849.328,133.316 849.353,133.342 849.385,133.342L854.294,133.342C854.263,133.342 854.237,133.316 854.237,133.285C854.237,133.316 854.263,133.342 854.294,133.342Z" style="fill:none;fill-rule:nonzero;stroke:black;stroke-width:0.06px;"/>
        </g>
        <g transform="matrix(0.952692,0,0,0.468509,-271.517,156.954)">
            <path d="M1059.54,133.342L1077.25,133.342C1077.31,133.342 1077.25,133.285 1077.25,133.342L1077.25,141.789C1077.25,141.82 1077.28,141.846 1077.31,141.846L1094.32,141.846C1094.35,141.846 1094.37,141.82 1094.37,141.789L1094.37,133.342C1094.37,133.285 1094.32,133.342 1094.37,133.342L1111.27,133.342C1111.32,133.342 1111.27,133.285 1111.27,133.342L1111.27,141.789C1111.27,141.82 1111.29,141.846 1111.32,141.846L1128.33,141.846C1128.36,141.846 1128.39,141.82 1128.39,141.789L1128.39,133.342C1128.39,133.285 1128.33,133.342 1128.39,133.342L1145.28,133.342C1145.34,133.342 1145.28,133.285 1145.28,133.342L1145.28,141.789C1145.28,141.82 1145.31,141.846 1145.34,141.846L1162.35,141.846C1162.38,141.846 1162.4,141.82 1162.4,141.789L1162.4,133.342C1162.4,133.285 1162.35,133.342 1162.4,133.342L1179.3,133.342C1179.35,133.342 1179.3,133.285 1179.3,133.342L1179.3,141.789C1179.3,141.82 1179.32,141.846 1179.35,141.846L1196.36,141.846C1196.39,141.846 1196.42,141.82 1196.42,141.789L1196.42,133.342C1196.42,133.285 1196.36,133.342 1196.42,133.342L1213.31,133.342C1213.37,133.342 1213.31,133.285 1213.31,133.342L1213.31,141.789C1213.31,141.82 1213.34,141.846 1213.37,141.846L1230.38,141.846C1230.41,141.846 1230.43,141.82 1230.43,141.789L1230.43,133.342C1230.43,133.285 1230.38,133.342 1230.43,133.342L1248.15,133.342C1248.18,133.342 1248.2,133.316 1248.2,133.285L1248.2,110.665C1248.2,110.608 1248.15,110.665 1248.2,110.665L1255.51,110.665C1255.54,110.665 1255.57,110.639 1255.57,110.608L1255.57,93.6C1255.57,93.569 1255.54,93.543 1255.51,93.543L1248.2,93.543C1248.15,93.543 1248.2,93.6 1248.2,93.543L1248.2,76.649C1248.2,76.592 1248.15,76.649 1248.2,76.649L1255.51,76.649C1255.54,76.649 1255.57,76.623 1255.57,76.592L1255.57,59.584C1255.57,59.553 1255.54,59.528 1255.51,59.528L1248.2,59.528C1248.15,59.528 1248.2,59.584 1248.2,59.528L1248.2,36.907C1248.2,36.876 1248.18,36.85 1248.15,36.85L1230.43,36.85C1230.38,36.85 1230.43,36.907 1230.43,36.85L1230.43,28.403C1230.43,28.372 1230.41,28.346 1230.38,28.346L1213.37,28.346C1213.34,28.346 1213.31,28.372 1213.31,28.403L1213.31,36.85C1213.31,36.907 1213.37,36.85 1213.31,36.85L1196.42,36.85C1196.36,36.85 1196.42,36.907 1196.42,36.85L1196.42,28.403C1196.42,28.372 1196.39,28.346 1196.36,28.346L1179.35,28.346C1179.32,28.346 1179.3,28.372 1179.3,28.403L1179.3,36.85C1179.3,36.907 1179.35,36.85 1179.3,36.85L1162.4,36.85C1162.35,36.85 1162.4,36.907 1162.4,36.85L1162.4,28.403C1162.4,28.372 1162.38,28.346 1162.35,28.346L1145.34,28.346C1145.31,28.346 1145.28,28.372 1145.28,28.403L1145.28,36.85C1145.28,36.907 1145.34,36.85 1145.28,36.85L1128.39,36.85C1128.33,36.85 1128.39,36.907 1128.39,36.85L1128.39,28.403C1128.39,28.372 1128.36,28.346 1128.33,28.346L1111.32,28.346C1111.29,28.346 1111.27,28.372 1111.27,28.403L1111.27,36.85C1111.27,36.907 1111.32,36.85 1111.27,36.85L1094.37,36.85C1094.32,36.85 1094.37,36.907 1094.37,36.85L1094.37,28.403C1094.37,28.372 1094.35,28.346 1094.32,28.346L1077.31,28.346C1077.28,28.346 1077.25,28.372 1077.25,28.403L1077.25,36.85C1077.25,36.907 1077.31,36.85 1077.25,36.85L1059.54,36.85C1059.51,36.85 1059.48,36.876 1059.48,36.907L1059.48,59.528C1059.48,59.584 1059.54,59.528 1059.48,59.528L1052.17,59.528C1052.14,59.528 1052.12,59.553 1052.12,59.584L1052.12,76.592C1052.12,76.623 1052.14,76.649 1052.17,76.649L1059.48,76.649C1059.54,76.649 1059.48,76.592 1059.48,76.649L1059.48,93.543C1059.48,93.6 1059.54,93.543 1059.48,93.543L1052.17,93.543C1052.14,93.543 1052.12,93.569 1052.12,93.6L1052.12,110.608C1052.12,110.639 1052.14,110.665 1052.17,110.665L1059.48,110.665C1059.54,110.665 1059.48,110.608 1059.48,110.665L1059.48,133.285C1059.48,133.316 1059.51,133.342 1059.54,133.342Z" style="fill:none;fill-rule:nonzero;stroke:black;stroke-width:0.06px;"/>
        </g>
        <path d="M105.334,265.46L97.287,272.315C97.333,272.328 97.26,272.337 97.287,272.315L90.317,270.336C90.29,270.329 90.257,270.333 90.244,270.345L82.142,277.247C82.126,277.259 82.134,277.275 82.161,277.283L89.131,279.262L81.084,286.116C81.129,286.129 81.057,286.14 81.084,286.116L74.113,284.137C74.086,284.13 74.054,284.134 74.041,284.148L65.939,291.048C65.923,291.06 65.931,291.077 65.958,291.084L72.928,293.063L64.88,299.918C64.926,299.931 64.853,299.941 64.88,299.918L57.91,297.939C57.883,297.931 57.851,297.935 57.837,297.949L49.736,304.849C49.719,304.863 49.728,304.878 49.755,304.885L56.725,306.864L48.677,313.719C48.723,313.733 48.65,313.742 48.677,313.719L41.707,311.741C41.68,311.733 41.647,311.738 41.634,311.75L33.532,318.65C33.516,318.664 33.524,318.68 33.551,318.688L40.521,320.666L32.474,327.521C32.52,327.534 32.447,327.544 32.474,327.521L25.504,325.542C25.477,325.535 25.444,325.539 25.431,325.552L14.629,334.753C14.618,334.761 14.618,334.772 14.629,334.78L25.431,343.98C25.444,343.994 25.477,343.998 25.504,343.99L32.474,342.011L32.469,342C32.473,341.995 32.489,341.997 32.489,342.002L32.474,342.011L40.521,348.866L33.551,350.845C33.524,350.852 33.516,350.869 33.532,350.881L41.634,357.782C41.647,357.795 41.68,357.799 41.707,357.792L48.677,355.813L48.672,355.801C48.677,355.797 48.693,355.799 48.693,355.804L48.677,355.813L56.725,362.668L49.755,364.646C49.728,364.654 49.719,364.67 49.736,364.682L57.837,371.584C57.851,371.596 57.883,371.6 57.91,371.593L64.88,369.615L64.875,369.603C64.88,369.599 64.896,369.601 64.896,369.606L64.88,369.615L72.928,376.469L65.958,378.447C65.931,378.455 65.923,378.471 65.939,378.485L74.041,385.385C74.054,385.397 74.086,385.403 74.113,385.395L81.084,383.416L81.079,383.404C81.083,383.4 81.099,383.402 81.099,383.407L81.084,383.416L89.131,390.271L82.161,392.25C82.134,392.257 82.126,392.273 82.142,392.286L90.244,399.186C90.257,399.2 90.29,399.204 90.317,399.197L97.287,397.218L97.282,397.206C97.287,397.202 97.302,397.204 97.302,397.209L97.287,397.218L105.334,404.072L98.364,406.051C98.337,406.059 98.329,406.075 98.345,406.087L109.148,415.289C109.156,415.297 109.175,415.302 109.193,415.302L130.798,415.302C130.828,415.302 130.852,415.29 130.852,415.276L130.852,411.318L146.947,411.318L146.955,411.307C146.963,411.305 146.975,411.31 146.97,411.314L146.947,411.318L146.947,415.276C146.947,415.29 146.971,415.302 147.001,415.302L163.204,415.302C163.234,415.302 163.258,415.29 163.258,415.276L163.258,411.318L179.354,411.318L179.361,411.307C179.37,411.305 179.381,411.31 179.376,411.314L179.354,411.318L179.354,415.276C179.354,415.29 179.378,415.302 179.408,415.302L195.611,415.302C195.641,415.302 195.665,415.29 195.665,415.276L195.665,411.318L211.76,411.318L211.768,411.307C211.776,411.305 211.788,411.31 211.783,411.314L211.76,411.318L211.76,415.276C211.76,415.29 211.784,415.302 211.814,415.302L228.017,415.302C228.047,415.302 228.071,415.29 228.071,415.276L228.071,411.318L244.167,411.318L244.174,411.307C244.183,411.305 244.195,411.31 244.189,411.314L244.167,411.318L244.167,415.276C244.167,415.29 244.191,415.302 244.221,415.302L260.424,415.302C260.454,415.302 260.478,415.29 260.478,415.276L260.478,411.318L276.573,411.318L276.581,411.307C276.589,411.305 276.601,411.31 276.596,411.314L276.573,411.318L276.573,415.276C276.573,415.29 276.598,415.302 276.627,415.302L298.232,415.302C298.25,415.302 298.269,415.297 298.277,415.289L309.08,406.087C309.096,406.075 309.088,406.059 309.061,406.051L302.091,404.072L310.138,397.218L317.108,399.197C317.135,399.204 317.168,399.2 317.181,399.186L325.283,392.286C325.299,392.273 325.291,392.257 325.264,392.25L318.294,390.271L326.342,383.416L333.312,385.395C333.339,385.403 333.371,385.397 333.385,385.385L341.486,378.485C341.502,378.471 341.494,378.455 341.467,378.447L334.497,376.469L342.545,369.615L349.515,371.593C349.542,371.6 349.574,371.596 349.588,371.584L357.689,364.682C357.706,364.67 357.698,364.654 357.671,364.646L350.7,362.668L358.748,355.813L365.718,357.792C365.745,357.799 365.778,357.795 365.791,357.782L373.893,350.881C373.909,350.869 373.901,350.852 373.874,350.845L366.904,348.866L374.951,342.011L374.936,342.002C374.936,341.997 374.952,341.995 374.956,342L374.951,342.011L381.921,343.99C381.948,343.998 381.981,343.994 381.994,343.98L392.797,334.78C392.807,334.772 392.807,334.761 392.797,334.753L381.994,325.552C381.981,325.539 381.948,325.535 381.921,325.542L374.951,327.521C374.978,327.544 374.905,327.534 374.951,327.521L366.904,320.666L373.874,318.688C373.901,318.68 373.909,318.664 373.893,318.65L365.791,311.75C365.778,311.738 365.745,311.733 365.718,311.741L358.748,313.719C358.775,313.742 358.702,313.733 358.748,313.719L350.7,306.864L357.671,304.885C357.698,304.878 357.706,304.863 357.689,304.849L349.588,297.949C349.574,297.935 349.542,297.931 349.515,297.939L342.545,299.918C342.572,299.941 342.499,299.931 342.545,299.918L334.497,293.063L341.467,291.084C341.494,291.077 341.502,291.06 341.486,291.048L333.385,284.148C333.371,284.134 333.339,284.13 333.312,284.137L326.342,286.116C326.369,286.14 326.296,286.129 326.342,286.116L318.294,279.262L325.264,277.283C325.291,277.275 325.299,277.259 325.283,277.247L317.181,270.345C317.168,270.333 317.135,270.329 317.108,270.336L310.138,272.315C310.165,272.337 310.092,272.328 310.138,272.315L302.091,265.46L309.061,263.482C309.088,263.474 309.096,263.458 309.08,263.444L298.277,254.244C298.269,254.236 298.25,254.23 298.232,254.23L276.627,254.23C276.598,254.23 276.573,254.242 276.573,254.257L276.573,258.215L260.478,258.215C260.478,258.241 260.424,258.215 260.478,258.215L260.478,254.257C260.478,254.242 260.454,254.23 260.424,254.23L244.221,254.23C244.191,254.23 244.167,254.242 244.167,254.257L244.167,258.215L228.071,258.215C228.071,258.241 228.017,258.215 228.071,258.215L228.071,254.257C228.071,254.242 228.047,254.23 228.017,254.23L211.814,254.23C211.784,254.23 211.76,254.242 211.76,254.257L211.76,258.215L195.665,258.215C195.665,258.241 195.611,258.215 195.665,258.215L195.665,254.257C195.665,254.242 195.641,254.23 195.611,254.23L179.408,254.23C179.378,254.23 179.354,254.242 179.354,254.257L179.354,258.215L163.258,258.215C163.258,258.241 163.204,258.215 163.258,258.215L163.258,254.257C163.258,254.242 163.234,254.23 163.204,254.23L147.001,254.23C146.971,254.23 146.947,254.242 146.947,254.257L146.947,258.215L130.852,258.215C130.852,258.241 130.798,258.215 130.852,258.215L130.852,254.257C130.852,254.242 130.828,254.23 130.798,254.23L109.193,254.23C109.175,254.23 109.156,254.236 109.148,254.244L98.345,263.444C98.329,263.458 98.337,263.474 98.364,263.482L105.334,265.46ZM130.832,411.308C130.825,411.312 130.825,411.318 130.852,411.318L130.844,411.307L130.832,411.308ZM163.238,411.308C163.231,411.312 163.231,411.318 163.258,411.318L163.251,411.307L163.238,411.308ZM195.645,411.308C195.638,411.312 195.638,411.318 195.665,411.318L195.657,411.307L195.645,411.308ZM228.051,411.308C228.044,411.312 228.044,411.318 228.071,411.318L228.064,411.307L228.051,411.308ZM260.458,411.308C260.451,411.312 260.451,411.318 260.478,411.318L260.47,411.307L260.458,411.308ZM302.063,404.076C302.066,404.08 302.077,404.084 302.091,404.072L302.067,404.07L302.063,404.076ZM105.334,404.072C105.355,404.089 105.37,404.073 105.358,404.07L105.334,404.072ZM318.294,390.271C318.248,390.258 318.267,390.294 318.294,390.271ZM334.47,376.473C334.472,376.477 334.484,376.481 334.497,376.469L334.474,376.466L334.47,376.473ZM350.7,362.668C350.655,362.654 350.673,362.69 350.7,362.668ZM56.725,362.668C56.752,362.69 56.771,362.654 56.725,362.668ZM40.521,348.866C40.542,348.883 40.557,348.867 40.545,348.864L40.521,348.866ZM366.876,348.87C366.879,348.874 366.89,348.878 366.904,348.866L366.881,348.864L366.876,348.87ZM203.713,331.446C207.439,331.446 210.464,332.934 210.464,334.766C210.464,336.599 207.439,338.087 203.713,338.087C199.986,338.087 196.961,336.599 196.961,334.766C196.961,332.934 199.986,331.446 203.713,331.446ZM40.521,320.666C40.556,320.676 40.554,320.658 40.539,320.658L40.521,320.666ZM366.876,320.662C366.874,320.667 366.881,320.673 366.904,320.666L366.886,320.658L366.876,320.662ZM350.673,306.86C350.671,306.865 350.678,306.871 350.7,306.864L350.683,306.856L350.673,306.86ZM334.47,293.059C334.467,293.064 334.474,293.069 334.497,293.063L334.479,293.055L334.47,293.059ZM318.267,279.258C318.264,279.263 318.271,279.268 318.294,279.262L318.276,279.254L318.267,279.258ZM105.334,265.46C105.38,265.474 105.361,265.437 105.334,265.46ZM302.063,265.456C302.061,265.461 302.068,265.467 302.091,265.46L302.073,265.452L302.063,265.456ZM244.174,258.226C244.183,258.228 244.195,258.222 244.189,258.218L244.167,258.215L244.174,258.226ZM211.768,258.226C211.776,258.228 211.788,258.222 211.783,258.218L211.76,258.215L211.768,258.226ZM179.361,258.226C179.37,258.228 179.381,258.222 179.376,258.218L179.354,258.215L179.361,258.226ZM146.955,258.226C146.963,258.228 146.975,258.222 146.97,258.218L146.947,258.215L146.955,258.226ZM276.581,258.226C276.589,258.228 276.601,258.222 276.596,258.218L276.573,258.215L276.581,258.226Z" style="fill:none;stroke:black;stroke-width:0.03px;"/>
        <path d="M491.429,415.302L513.033,415.302C513.063,415.302 513.087,415.29 513.087,415.276L513.087,411.318C513.087,411.292 513.033,411.318 513.087,411.318L529.182,411.318C529.236,411.318 529.182,411.292 529.182,411.318L529.182,415.276C529.182,415.29 529.206,415.302 529.236,415.302L545.439,415.302C545.469,415.302 545.493,415.29 545.493,415.276L545.493,411.318C545.493,411.292 545.439,411.318 545.493,411.318L561.589,411.318C561.643,411.318 561.589,411.292 561.589,411.318L561.589,415.276C561.589,415.29 561.613,415.302 561.643,415.302L577.846,415.302C577.876,415.302 577.9,415.29 577.9,415.276L577.9,411.318C577.9,411.292 577.846,411.318 577.9,411.318L593.995,411.318C594.049,411.318 593.995,411.292 593.995,411.318L593.995,415.276C593.995,415.29 594.019,415.302 594.049,415.302L610.252,415.302C610.282,415.302 610.306,415.29 610.306,415.276L610.306,411.318C610.306,411.292 610.252,411.318 610.306,411.318L626.402,411.318C626.456,411.318 626.402,411.292 626.402,411.318L626.402,415.276C626.402,415.29 626.426,415.302 626.456,415.302L642.659,415.302C642.689,415.302 642.713,415.29 642.713,415.276L642.713,411.318C642.713,411.292 642.659,411.318 642.713,411.318L658.808,411.318C658.862,411.318 658.808,411.292 658.808,411.318L658.808,415.276C658.808,415.29 658.833,415.302 658.862,415.302L680.467,415.302C680.485,415.302 680.504,415.297 680.513,415.289L691.315,406.087C691.331,406.075 691.323,406.059 691.296,406.051L684.326,404.072C684.28,404.059 684.299,404.095 684.326,404.072L692.373,397.218C692.4,397.194 692.327,397.205 692.373,397.218L699.343,399.197C699.37,399.204 699.403,399.2 699.416,399.186L707.518,392.286C707.534,392.273 707.526,392.257 707.499,392.25L700.529,390.271C700.483,390.258 700.502,390.294 700.529,390.271L708.577,383.416C708.604,383.393 708.531,383.402 708.577,383.416L715.547,385.395C715.574,385.403 715.606,385.397 715.62,385.385L723.721,378.485C723.737,378.471 723.729,378.455 723.702,378.447L716.732,376.469C716.686,376.455 716.705,376.493 716.732,376.469L724.78,369.615C724.807,369.592 724.734,369.601 724.78,369.615L731.75,371.593C731.777,371.6 731.809,371.596 731.823,371.584L739.924,364.682C739.941,364.67 739.933,364.654 739.906,364.646L732.935,362.668C732.89,362.654 732.908,362.69 732.935,362.668L740.983,355.813C741.01,355.79 740.937,355.8 740.983,355.813L747.953,357.792C747.98,357.799 748.013,357.795 748.026,357.782L756.128,350.881C756.144,350.869 756.136,350.852 756.109,350.845L749.139,348.866C749.093,348.853 749.112,348.889 749.139,348.866L757.186,342.011C757.213,341.988 757.14,341.998 757.186,342.011L764.156,343.99C764.183,343.998 764.216,343.994 764.229,343.98L775.032,334.78C775.042,334.772 775.042,334.761 775.032,334.753L764.229,325.552C764.216,325.539 764.183,325.535 764.156,325.542L757.186,327.521C757.14,327.534 757.213,327.544 757.186,327.521L749.139,320.666C749.112,320.643 749.093,320.68 749.139,320.666L756.109,318.688C756.136,318.68 756.144,318.664 756.128,318.65L748.026,311.75C748.013,311.738 747.98,311.733 747.953,311.741L740.983,313.719C740.937,313.733 741.01,313.742 740.983,313.719L732.935,306.864C732.908,306.841 732.89,306.877 732.935,306.864L739.906,304.885C739.933,304.878 739.941,304.863 739.924,304.849L731.823,297.949C731.809,297.935 731.777,297.931 731.75,297.939L724.78,299.918C724.734,299.931 724.807,299.941 724.78,299.918L716.732,293.063C716.705,293.04 716.686,293.076 716.732,293.063L723.702,291.084C723.729,291.077 723.737,291.06 723.721,291.048L715.62,284.148C715.606,284.134 715.574,284.13 715.547,284.137L708.577,286.116C708.531,286.129 708.604,286.14 708.577,286.116L700.529,279.262C700.502,279.239 700.483,279.275 700.529,279.262L707.499,277.283C707.526,277.275 707.534,277.259 707.518,277.247L699.416,270.345C699.403,270.333 699.37,270.329 699.343,270.336L692.373,272.315C692.327,272.328 692.4,272.337 692.373,272.315L684.326,265.46C684.299,265.437 684.28,265.474 684.326,265.46L691.296,263.482C691.323,263.474 691.331,263.458 691.315,263.444L680.513,254.244C680.504,254.236 680.485,254.23 680.467,254.23L658.862,254.23C658.833,254.23 658.808,254.242 658.808,254.257L658.808,258.215C658.808,258.241 658.862,258.215 658.808,258.215L642.713,258.215C642.659,258.215 642.713,258.241 642.713,258.215L642.713,254.257C642.713,254.242 642.689,254.23 642.659,254.23L626.456,254.23C626.426,254.23 626.402,254.242 626.402,254.257L626.402,258.215C626.402,258.241 626.456,258.215 626.402,258.215L610.306,258.215C610.252,258.215 610.306,258.241 610.306,258.215L610.306,254.257C610.306,254.242 610.282,254.23 610.252,254.23L594.049,254.23C594.019,254.23 593.995,254.242 593.995,254.257L593.995,258.215C593.995,258.241 594.049,258.215 593.995,258.215L577.9,258.215C577.846,258.215 577.9,258.241 577.9,258.215L577.9,254.257C577.9,254.242 577.876,254.23 577.846,254.23L561.643,254.23C561.613,254.23 561.589,254.242 561.589,254.257L561.589,258.215C561.589,258.241 561.643,258.215 561.589,258.215L545.493,258.215C545.439,258.215 545.493,258.241 545.493,258.215L545.493,254.257C545.493,254.242 545.469,254.23 545.439,254.23L529.236,254.23C529.206,254.23 529.182,254.242 529.182,254.257L529.182,258.215C529.182,258.241 529.236,258.215 529.182,258.215L513.087,258.215C513.033,258.215 513.087,258.241 513.087,258.215L513.087,254.257C513.087,254.242 513.063,254.23 513.033,254.23L491.429,254.23C491.41,254.23 491.391,254.236 491.383,254.244L480.58,263.444C480.564,263.458 480.572,263.474 480.599,263.482L487.569,265.46C487.615,265.474 487.596,265.437 487.569,265.46L479.522,272.315C479.495,272.337 479.568,272.328 479.522,272.315L472.552,270.336C472.525,270.329 472.492,270.333 472.479,270.345L464.377,277.247C464.361,277.259 464.369,277.275 464.396,277.283L471.366,279.262C471.412,279.275 471.393,279.239 471.366,279.262L463.319,286.116C463.292,286.14 463.364,286.129 463.319,286.116L456.348,284.137C456.321,284.13 456.289,284.134 456.276,284.148L448.174,291.048C448.158,291.06 448.166,291.077 448.193,291.084L455.163,293.063C455.209,293.076 455.19,293.04 455.163,293.063L447.115,299.918C447.088,299.941 447.161,299.931 447.115,299.918L440.145,297.939C440.118,297.931 440.086,297.935 440.072,297.949L431.971,304.849C431.954,304.863 431.963,304.878 431.99,304.885L438.96,306.864C439.006,306.877 438.987,306.841 438.96,306.864L430.912,313.719C430.885,313.742 430.958,313.733 430.912,313.719L423.942,311.741C423.915,311.733 423.882,311.738 423.869,311.75L415.767,318.65C415.751,318.664 415.759,318.68 415.786,318.688L422.756,320.666C422.802,320.68 422.783,320.643 422.756,320.666L414.709,327.521C414.682,327.544 414.755,327.534 414.709,327.521L407.739,325.542C407.712,325.535 407.679,325.539 407.666,325.552L396.864,334.753C396.853,334.761 396.853,334.772 396.864,334.78L407.666,343.98C407.679,343.994 407.712,343.998 407.739,343.99L414.709,342.011C414.755,341.998 414.682,341.988 414.709,342.011L422.756,348.866C422.783,348.889 422.802,348.853 422.756,348.866L415.786,350.845C415.759,350.852 415.751,350.869 415.767,350.881L423.869,357.782C423.882,357.795 423.915,357.799 423.942,357.792L430.912,355.813C430.958,355.8 430.885,355.79 430.912,355.813L438.96,362.668C438.987,362.69 439.006,362.654 438.96,362.668L431.99,364.646C431.963,364.654 431.954,364.67 431.971,364.682L440.072,371.584C440.086,371.596 440.118,371.6 440.145,371.593L447.115,369.615C447.161,369.601 447.088,369.592 447.115,369.615L455.163,376.469C455.19,376.493 455.209,376.455 455.163,376.469L448.193,378.447C448.166,378.455 448.158,378.471 448.174,378.485L456.276,385.385C456.289,385.397 456.321,385.403 456.348,385.395L463.319,383.416C463.364,383.402 463.292,383.393 463.319,383.416L471.366,390.271C471.393,390.294 471.412,390.258 471.366,390.271L464.396,392.25C464.369,392.257 464.361,392.273 464.377,392.286L472.479,399.186C472.492,399.2 472.525,399.204 472.552,399.197L479.522,397.218C479.568,397.205 479.495,397.194 479.522,397.218L487.569,404.072C487.596,404.095 487.615,404.059 487.569,404.072L480.599,406.051C480.572,406.059 480.564,406.075 480.58,406.087L491.383,415.289C491.391,415.297 491.41,415.302 491.429,415.302ZM591.991,271.753C587.964,271.66 583.931,271.66 579.905,271.753L580.51,278.055C578.094,278.111 575.683,278.204 573.279,278.335L571.872,272.064C567.865,272.282 563.882,272.592 559.935,272.994L562.536,279.171C560.169,279.412 557.817,279.69 555.484,280.004L552.099,273.919C548.212,274.442 544.376,275.055 540.606,275.756L545.14,281.657C542.878,282.077 540.643,282.532 538.439,283.022L533.161,277.272C529.487,278.088 525.894,278.988 522.393,279.971L528.748,285.45C526.648,286.039 524.585,286.661 522.564,287.314L515.522,282.041C512.153,283.129 508.89,284.295 505.744,285.534L513.765,290.458C511.878,291.201 510.038,291.974 508.25,292.774L499.617,288.108C496.635,289.442 493.784,290.845 491.071,292.311L500.559,296.556C498.931,297.436 497.36,298.34 495.849,299.268L485.838,295.324C483.317,296.871 480.947,298.476 478.734,300.132L489.455,303.596C488.128,304.59 486.864,305.604 485.666,306.637L474.523,303.511C472.526,305.233 470.696,307 469.037,308.807L480.728,311.403C479.733,312.486 478.807,313.585 477.953,314.698L465.953,312.468C464.528,314.322 463.282,316.208 462.218,318.12L474.591,319.785C473.953,320.932 473.389,322.089 472.898,323.253L460.337,321.974C459.52,323.915 458.889,325.874 458.447,327.844L471.197,328.536C470.931,329.718 470.742,330.904 470.628,332.092L457.814,331.795C457.625,333.774 457.625,335.758 457.814,337.738L470.628,337.441C470.742,338.628 470.931,339.814 471.197,340.996L458.447,341.688C458.889,343.659 459.52,345.617 460.337,347.558L472.898,346.279C473.389,347.444 473.953,348.6 474.591,349.747L462.218,351.412C463.282,353.324 464.528,355.21 465.953,357.064L477.953,354.834C478.807,355.947 479.733,357.046 480.728,358.13L469.037,360.726C470.696,362.532 472.526,364.299 474.523,366.021L485.666,362.895C486.864,363.928 488.128,364.943 489.455,365.937L478.734,369.4C480.947,371.057 483.317,372.661 485.838,374.208L495.849,370.264C497.36,371.192 498.931,372.096 500.559,372.976L491.071,377.222C493.784,378.688 496.635,380.09 499.617,381.424L508.25,376.758C510.038,377.559 511.878,378.331 513.765,379.075L505.744,383.998C508.89,385.237 512.153,386.403 515.522,387.491L522.564,382.219C524.585,382.871 526.648,383.493 528.748,384.082L522.393,389.562C525.894,390.544 529.487,391.444 533.161,392.26L538.439,386.51C540.643,387 542.878,387.455 545.14,387.875L540.606,393.776C544.376,394.477 548.212,395.09 552.099,395.613L555.484,389.528C557.817,389.842 560.169,390.12 562.536,390.361L559.935,396.538C563.882,396.94 567.865,397.25 571.872,397.468L573.279,391.198C575.683,391.328 578.094,391.421 580.51,391.477L579.905,397.779C583.931,397.872 587.964,397.872 591.991,397.779L591.386,391.477C593.802,391.421 596.213,391.328 598.617,391.198L600.024,397.468C604.03,397.25 608.014,396.94 611.961,396.538L609.359,390.361C611.727,390.12 614.079,389.842 616.412,389.528L619.796,395.613C623.684,395.09 627.52,394.477 631.29,393.776L626.756,387.875C629.018,387.455 631.253,387 633.457,386.51L638.735,392.26C642.409,391.444 646.002,390.544 649.503,389.562L643.148,384.082C645.248,383.493 647.311,382.871 649.332,382.219L656.374,387.491C659.743,386.403 663.006,385.237 666.151,383.998L658.131,379.075C660.018,378.331 661.857,377.559 663.646,376.758L672.279,381.424C675.26,380.09 678.112,378.688 680.825,377.222L671.337,372.976C672.964,372.096 674.535,371.192 676.047,370.264L686.058,374.208C688.578,372.661 690.949,371.057 693.162,369.4L682.44,365.937C683.768,364.943 685.032,363.928 686.23,362.895L697.372,366.021C699.369,364.299 701.2,362.532 702.859,360.726L691.168,358.13C692.163,357.046 693.089,355.947 693.943,354.834L705.943,357.064C707.367,355.21 708.614,353.324 709.677,351.412L697.304,349.747C697.942,348.6 698.507,347.444 698.997,346.279L711.559,347.558C712.376,345.617 713.007,343.659 713.449,341.688L700.699,340.996C700.964,339.814 701.154,338.628 701.268,337.441L714.081,337.738C714.271,335.758 714.271,333.774 714.081,331.795L701.268,332.092C701.154,330.904 700.964,329.718 700.699,328.536L713.449,327.844C713.007,325.874 712.376,323.915 711.559,321.974L698.997,323.253C698.507,322.089 697.942,320.932 697.304,319.785L709.677,318.12C708.614,316.208 707.367,314.322 705.943,312.468L693.943,314.698C693.089,313.585 692.163,312.486 691.168,311.403L702.859,308.807C701.2,307 699.369,305.233 697.372,303.511L686.23,306.637C685.032,305.604 683.768,304.59 682.44,303.596L693.162,300.132C690.949,298.476 688.578,296.871 686.058,295.324L676.047,299.268C674.535,298.34 672.964,297.436 671.337,296.556L680.825,292.311C678.112,290.845 675.26,289.442 672.279,288.108L663.646,292.774C661.857,291.974 660.018,291.201 658.131,290.458L666.151,285.534C663.006,284.295 659.743,283.129 656.374,282.041L649.332,287.314C647.311,286.661 645.248,286.039 643.148,285.45L649.503,279.971C646.002,278.988 642.409,278.088 638.735,277.272L633.457,283.022C631.253,282.532 629.018,282.077 626.756,281.657L631.29,275.756C627.52,275.055 623.684,274.442 619.796,273.919L616.412,280.004C614.079,279.69 611.727,279.412 609.359,279.171L611.961,272.994C608.014,272.592 604.03,272.282 600.024,272.064L598.617,278.335C596.213,278.204 593.802,278.111 591.386,278.055L591.991,271.753Z" style="fill:none;stroke:black;stroke-width:0.03px;"/>
        <path d="M199.073,229.616L199.035,229.608L182.162,229.608C182.162,229.635 182.108,229.608 182.162,229.608L182.162,225.651C182.162,225.636 182.138,225.624 182.108,225.624L165.905,225.624C165.875,225.624 165.851,225.636 165.851,225.651L165.851,229.608L149.756,229.608C149.756,229.635 149.702,229.608 149.756,229.608L149.756,225.651C149.756,225.636 149.731,225.624 149.702,225.624L133.498,225.624C133.469,225.624 133.444,225.636 133.444,225.651L133.444,229.608L117.349,229.608C117.349,229.635 117.295,229.608 117.349,229.608L117.349,225.651C117.349,225.636 117.325,225.624 117.295,225.624L101.092,225.624C101.062,225.624 101.038,225.636 101.038,225.651L101.038,229.608L84.943,229.608C84.943,229.635 84.889,229.608 84.943,229.608L84.943,225.651C84.943,225.636 84.918,225.624 84.889,225.624L68.685,225.624C68.656,225.624 68.631,225.636 68.631,225.651L68.631,229.608L52.536,229.608C52.536,229.635 52.482,229.608 52.536,229.608L52.536,225.651C52.536,225.636 52.512,225.624 52.482,225.624L36.279,225.624C36.249,225.624 36.225,225.636 36.225,225.651L36.225,229.608L14.674,229.608C14.645,229.608 14.62,229.62 14.62,229.635L14.62,234.947C14.62,234.962 14.645,234.974 14.674,234.974L21.636,234.974L21.644,234.962C21.652,234.96 21.664,234.966 21.659,234.97L21.636,234.974L21.636,242.889L14.674,242.889C14.645,242.889 14.62,242.901 14.62,242.915L14.62,248.228C14.62,248.242 14.645,248.254 14.674,248.254L36.225,248.254L36.232,248.243C36.241,248.24 36.253,248.246 36.248,248.25L36.225,248.254L36.225,252.212C36.225,252.226 36.249,252.238 36.279,252.238L52.482,252.238C52.512,252.238 52.536,252.226 52.536,252.212L52.536,248.254L68.631,248.254L68.639,248.243C68.647,248.24 68.659,248.246 68.654,248.25L68.631,248.254L68.631,252.212C68.631,252.226 68.656,252.238 68.685,252.238L84.889,252.238C84.918,252.238 84.943,252.226 84.943,252.212L84.943,248.254L101.038,248.254L101.045,248.243C101.054,248.24 101.066,248.246 101.061,248.25L101.038,248.254L101.038,252.212C101.038,252.226 101.062,252.238 101.092,252.238L117.295,252.238C117.325,252.238 117.349,252.226 117.349,252.212L117.349,248.254L133.444,248.254L133.452,248.243C133.46,248.24 133.472,248.246 133.467,248.25L133.444,248.254L133.444,252.212C133.444,252.226 133.469,252.238 133.498,252.238L149.702,252.238C149.731,252.238 149.756,252.226 149.756,252.212L149.756,248.254L165.851,248.254L165.859,248.243C165.867,248.24 165.879,248.246 165.874,248.25L165.851,248.254L165.851,252.212C165.851,252.226 165.875,252.238 165.905,252.238L182.108,252.238C182.138,252.238 182.162,252.226 182.162,252.212L182.162,248.254L199.035,248.254C199.065,248.254 199.089,248.242 199.089,248.228C199.089,248.242 199.065,248.254 199.035,248.254L203.713,248.254C203.742,248.254 203.767,248.242 203.767,248.228L203.767,242.915C203.767,242.901 203.742,242.889 203.713,242.889L196.751,242.889C196.751,242.915 196.697,242.889 196.751,242.889L196.751,234.974L203.713,234.974C203.742,234.974 203.767,234.962 203.767,234.947L203.767,229.635C203.767,229.62 203.742,229.608 203.713,229.608L199.035,229.608C199.065,229.608 199.089,229.62 199.089,229.635C199.089,229.627 199.083,229.621 199.073,229.616ZM52.516,248.244C52.509,248.248 52.509,248.254 52.536,248.254L52.528,248.243L52.516,248.244ZM84.922,248.244C84.916,248.248 84.916,248.254 84.943,248.254L84.935,248.243L84.922,248.244ZM117.329,248.244C117.322,248.248 117.322,248.254 117.349,248.254L117.342,248.243L117.329,248.244ZM149.735,248.244C149.729,248.248 149.729,248.254 149.756,248.254L149.748,248.243L149.735,248.244ZM182.142,248.244C182.135,248.248 182.135,248.254 182.162,248.254L182.155,248.243L182.142,248.244ZM21.644,242.9C21.652,242.903 21.664,242.897 21.659,242.893L21.636,242.889L21.644,242.9ZM122.696,235.611L95.691,235.611L95.691,242.251L122.696,242.251L122.696,235.611ZM196.73,234.964C196.724,234.967 196.724,234.974 196.751,234.974L196.743,234.962L196.73,234.964ZM165.859,229.619C165.867,229.622 165.879,229.616 165.874,229.612L165.851,229.608L165.859,229.619ZM133.452,229.619C133.46,229.622 133.472,229.616 133.467,229.612L133.444,229.608L133.452,229.619ZM101.045,229.619C101.054,229.622 101.066,229.616 101.061,229.612L101.038,229.608L101.045,229.619ZM68.639,229.619C68.647,229.622 68.659,229.616 68.654,229.612L68.631,229.608L68.639,229.619ZM36.232,229.619C36.241,229.622 36.253,229.616 36.248,229.612L36.225,229.608L36.232,229.619Z" style="fill:none;stroke:black;stroke-width:0.03px;"/>
        <g transform="matrix(0.952692,0,0,0.468509,-12.385,212.344)">
            <path d="M238.558,76.649L256.269,76.649C256.326,76.649 256.269,76.592 256.269,76.649L256.269,85.096C256.269,85.127 256.294,85.153 256.326,85.153L273.334,85.153C273.365,85.153 273.39,85.127 273.39,85.096L273.39,76.649C273.39,76.592 273.334,76.649 273.39,76.649L290.285,76.649C290.341,76.649 290.285,76.592 290.285,76.649L290.285,85.096C290.285,85.127 290.31,85.153 290.341,85.153L307.349,85.153C307.38,85.153 307.406,85.127 307.406,85.096L307.406,76.649C307.406,76.592 307.349,76.649 307.406,76.649L324.3,76.649C324.357,76.649 324.3,76.592 324.3,76.649L324.3,85.096C324.3,85.127 324.326,85.153 324.357,85.153L341.365,85.153C341.396,85.153 341.422,85.127 341.422,85.096L341.422,76.649C341.422,76.592 341.365,76.649 341.422,76.649L358.316,76.649C358.373,76.649 358.316,76.592 358.316,76.649L358.316,85.096C358.316,85.127 358.342,85.153 358.373,85.153L375.381,85.153C375.412,85.153 375.437,85.127 375.437,85.096L375.437,76.649C375.437,76.592 375.381,76.649 375.437,76.649L392.332,76.649C392.389,76.649 392.332,76.592 392.332,76.649L392.332,85.096C392.332,85.127 392.357,85.153 392.389,85.153L409.397,85.153C409.428,85.153 409.453,85.127 409.453,85.096L409.453,76.649C409.453,76.592 409.397,76.649 409.453,76.649L427.164,76.649C427.195,76.649 427.221,76.623 427.221,76.592L427.221,65.31C427.221,65.254 427.164,65.31 427.221,65.31L434.529,65.31C434.56,65.31 434.585,65.285 434.585,65.254L434.585,48.246C434.585,48.214 434.56,48.189 434.529,48.189L427.221,48.189C427.164,48.189 427.221,48.246 427.221,48.189L427.221,36.907C427.221,36.876 427.195,36.85 427.164,36.85L409.453,36.85C409.397,36.85 409.453,36.907 409.453,36.85L409.453,28.403C409.453,28.372 409.428,28.346 409.397,28.346L392.389,28.346C392.357,28.346 392.332,28.372 392.332,28.403L392.332,36.85C392.332,36.907 392.389,36.85 392.332,36.85L375.437,36.85C375.381,36.85 375.437,36.907 375.437,36.85L375.437,28.403C375.437,28.372 375.412,28.346 375.381,28.346L358.373,28.346C358.342,28.346 358.316,28.372 358.316,28.403L358.316,36.85C358.316,36.907 358.373,36.85 358.316,36.85L341.422,36.85C341.365,36.85 341.422,36.907 341.422,36.85L341.422,28.403C341.422,28.372 341.396,28.346 341.365,28.346L324.357,28.346C324.326,28.346 324.3,28.372 324.3,28.403L324.3,36.85C324.3,36.907 324.357,36.85 324.3,36.85L307.406,36.85C307.349,36.85 307.406,36.907 307.406,36.85L307.406,28.403C307.406,28.372 307.38,28.346 307.349,28.346L290.341,28.346C290.31,28.346 290.285,28.372 290.285,28.403L290.285,36.85C290.285,36.907 290.341,36.85 290.285,36.85L273.39,36.85C273.334,36.85 273.39,36.907 273.39,36.85L273.39,28.403C273.39,28.372 273.365,28.346 273.334,28.346L256.326,28.346C256.294,28.346 256.269,28.372 256.269,28.403L256.269,36.85C256.269,36.907 256.326,36.85 256.269,36.85L238.558,36.85C238.527,36.85 238.501,36.876 238.501,36.907L238.501,48.189C238.501,48.246 238.558,48.189 238.501,48.189L231.194,48.189C231.163,48.189 231.137,48.214 231.137,48.246L231.137,65.254C231.137,65.285 231.163,65.31 231.194,65.31L238.501,65.31C238.558,65.31 238.501,65.254 238.501,65.31L238.501,76.592C238.501,76.623 238.527,76.649 238.558,76.649Z" style="fill:none;fill-rule:nonzero;stroke:black;stroke-width:0.06px;"/>
        </g>
        <g transform="matrix(0.952692,0,0,0.468509,-12.385,212.344)">
            <path d="M443.803,76.649L461.514,76.649C461.571,76.649 461.514,76.592 461.514,76.649L461.514,85.096C461.514,85.127 461.54,85.153 461.571,85.153L478.579,85.153C478.61,85.153 478.636,85.127 478.636,85.096L478.636,76.649C478.636,76.592 478.579,76.649 478.636,76.649L495.53,76.649C495.587,76.649 495.53,76.592 495.53,76.649L495.53,85.096C495.53,85.127 495.556,85.153 495.587,85.153L512.595,85.153C512.626,85.153 512.651,85.127 512.651,85.096L512.651,76.649C512.651,76.592 512.595,76.649 512.651,76.649L529.546,76.649C529.603,76.649 529.546,76.592 529.546,76.649L529.546,85.096C529.546,85.127 529.571,85.153 529.603,85.153L546.61,85.153C546.642,85.153 546.667,85.127 546.667,85.096L546.667,76.649C546.667,76.592 546.61,76.649 546.667,76.649L563.562,76.649C563.618,76.649 563.562,76.592 563.562,76.649L563.562,85.096C563.562,85.127 563.587,85.153 563.618,85.153L580.626,85.153C580.657,85.153 580.683,85.127 580.683,85.096L580.683,76.649C580.683,76.592 580.626,76.649 580.683,76.649L597.577,76.649C597.634,76.649 597.577,76.592 597.577,76.649L597.577,85.096C597.577,85.127 597.603,85.153 597.634,85.153L614.642,85.153C614.673,85.153 614.699,85.127 614.699,85.096L614.699,76.649C614.699,76.592 614.642,76.649 614.699,76.649L632.409,76.649C632.441,76.649 632.466,76.623 632.466,76.592C632.466,76.623 632.441,76.649 632.409,76.649L637.319,76.649C637.35,76.649 637.376,76.623 637.376,76.592L637.376,65.254C637.376,65.222 637.35,65.197 637.319,65.197L630.011,65.197C629.955,65.197 630.011,65.254 630.011,65.197L630.011,48.302C630.011,48.246 629.955,48.302 630.011,48.302L637.319,48.302C637.35,48.302 637.376,48.277 637.376,48.246L637.376,36.907C637.376,36.876 637.35,36.85 637.319,36.85L632.409,36.85C632.441,36.85 632.466,36.876 632.466,36.907C632.466,36.876 632.441,36.85 632.409,36.85L614.699,36.85C614.642,36.85 614.699,36.907 614.699,36.85L614.699,28.403C614.699,28.372 614.673,28.346 614.642,28.346L597.634,28.346C597.603,28.346 597.577,28.372 597.577,28.403L597.577,36.85C597.577,36.907 597.634,36.85 597.577,36.85L580.683,36.85C580.626,36.85 580.683,36.907 580.683,36.85L580.683,28.403C580.683,28.372 580.657,28.346 580.626,28.346L563.618,28.346C563.587,28.346 563.562,28.372 563.562,28.403L563.562,36.85C563.562,36.907 563.618,36.85 563.562,36.85L546.667,36.85C546.61,36.85 546.667,36.907 546.667,36.85L546.667,28.403C546.667,28.372 546.642,28.346 546.61,28.346L529.603,28.346C529.571,28.346 529.546,28.372 529.546,28.403L529.546,36.85C529.546,36.907 529.603,36.85 529.546,36.85L512.651,36.85C512.595,36.85 512.651,36.907 512.651,36.85L512.651,28.403C512.651,28.372 512.626,28.346 512.595,28.346L495.587,28.346C495.556,28.346 495.53,28.372 495.53,28.403L495.53,36.85C495.53,36.907 495.587,36.85 495.53,36.85L478.636,36.85C478.579,36.85 478.636,36.907 478.636,36.85L478.636,28.403C478.636,28.372 478.61,28.346 478.579,28.346L461.571,28.346C461.54,28.346 461.514,28.372 461.514,28.403L461.514,36.85C461.514,36.907 461.571,36.85 461.514,36.85L443.803,36.85C443.772,36.85 443.747,36.876 443.747,36.907C443.747,36.876 443.772,36.85 443.803,36.85L438.894,36.85C438.863,36.85 438.837,36.876 438.837,36.907L438.837,48.246C438.837,48.277 438.863,48.302 438.894,48.302L446.202,48.302C446.258,48.302 446.202,48.246 446.202,48.302L446.202,65.197C446.202,65.254 446.258,65.197 446.202,65.197L438.894,65.197C438.863,65.197 438.837,65.222 438.837,65.254L438.837,76.592C438.837,76.623 438.863,76.649 438.894,76.649L443.803,76.649C443.772,76.649 443.747,76.623 443.747,76.592C443.747,76.623 443.772,76.649 443.803,76.649Z" style="fill:none;fill-rule:nonzero;stroke:black;stroke-width:0.06px;"/>
        </g>
        <g transform="matrix(0.952692,0,0,0.468509,-12.385,212.344)">
            <path d="M649.049,76.649L666.76,76.649C666.816,76.649 666.76,76.592 666.76,76.649L666.76,85.096C666.76,85.127 666.785,85.153 666.816,85.153L683.824,85.153C683.855,85.153 683.881,85.127 683.881,85.096L683.881,76.649C683.881,76.592 683.824,76.649 683.881,76.649L700.775,76.649C700.832,76.649 700.775,76.592 700.775,76.649L700.775,85.096C700.775,85.127 700.801,85.153 700.832,85.153L717.84,85.153C717.871,85.153 717.897,85.127 717.897,85.096L717.897,76.649C717.897,76.592 717.84,76.649 717.897,76.649L734.791,76.649C734.848,76.649 734.791,76.592 734.791,76.649L734.791,85.096C734.791,85.127 734.817,85.153 734.848,85.153L751.856,85.153C751.887,85.153 751.912,85.127 751.912,85.096L751.912,76.649C751.912,76.592 751.856,76.649 751.912,76.649L768.807,76.649C768.864,76.649 768.807,76.592 768.807,76.649L768.807,85.096C768.807,85.127 768.832,85.153 768.864,85.153L785.871,85.153C785.903,85.153 785.928,85.127 785.928,85.096L785.928,76.649C785.928,76.592 785.871,76.649 785.928,76.649L802.823,76.649C802.879,76.649 802.823,76.592 802.823,76.649L802.823,85.096C802.823,85.127 802.848,85.153 802.879,85.153L819.887,85.153C819.918,85.153 819.944,85.127 819.944,85.096L819.944,76.649C819.944,76.592 819.887,76.649 819.944,76.649L837.655,76.649C837.686,76.649 837.711,76.623 837.711,76.592L837.711,65.31C837.711,65.254 837.655,65.31 837.711,65.31L845.019,65.31C845.05,65.31 845.076,65.285 845.076,65.254L845.076,48.246C845.076,48.214 845.05,48.189 845.019,48.189L837.711,48.189C837.655,48.189 837.711,48.246 837.711,48.189L837.711,36.907C837.711,36.876 837.686,36.85 837.655,36.85L819.944,36.85C819.887,36.85 819.944,36.907 819.944,36.85L819.944,28.403C819.944,28.372 819.918,28.346 819.887,28.346L802.879,28.346C802.848,28.346 802.823,28.372 802.823,28.403L802.823,36.85C802.823,36.907 802.879,36.85 802.823,36.85L785.928,36.85C785.871,36.85 785.928,36.907 785.928,36.85L785.928,28.403C785.928,28.372 785.903,28.346 785.871,28.346L768.864,28.346C768.832,28.346 768.807,28.372 768.807,28.403L768.807,36.85C768.807,36.907 768.864,36.85 768.807,36.85L751.912,36.85C751.856,36.85 751.912,36.907 751.912,36.85L751.912,28.403C751.912,28.372 751.887,28.346 751.856,28.346L734.848,28.346C734.817,28.346 734.791,28.372 734.791,28.403L734.791,36.85C734.791,36.907 734.848,36.85 734.791,36.85L717.897,36.85C717.84,36.85 717.897,36.907 717.897,36.85L717.897,28.403C717.897,28.372 717.871,28.346 717.84,28.346L700.832,28.346C700.801,28.346 700.775,28.372 700.775,28.403L700.775,36.85C700.775,36.907 700.832,36.85 700.775,36.85L683.881,36.85C683.824,36.85 683.881,36.907 683.881,36.85L683.881,28.403C683.881,28.372 683.855,28.346 683.824,28.346L666.816,28.346C666.785,28.346 666.76,28.372 666.76,28.403L666.76,36.85C666.76,36.907 666.816,36.85 666.76,36.85L649.049,36.85C649.018,36.85 648.992,36.876 648.992,36.907L648.992,48.189C648.992,48.246 649.049,48.189 648.992,48.189L641.684,48.189C641.653,48.189 641.628,48.214 641.628,48.246L641.628,65.254C641.628,65.285 641.653,65.31 641.684,65.31L648.992,65.31C649.049,65.31 648.992,65.254 648.992,65.31L648.992,76.592C648.992,76.623 649.018,76.649 649.049,76.649Z" style="fill:none;fill-rule:nonzero;stroke:black;stroke-width:0.06px;"/>
        </g>
        <g transform="matrix(0.952692,0,0,0.468509,-78.3203,240.923)">
            <path d="M854.294,76.649L872.005,76.649C872.062,76.649 872.005,76.592 872.005,76.649L872.005,85.096C872.005,85.127 872.031,85.153 872.062,85.153L889.07,85.153C889.101,85.153 889.126,85.127 889.126,85.096L889.126,76.649C889.126,76.592 889.07,76.649 889.126,76.649L906.021,76.649C906.077,76.649 906.021,76.592 906.021,76.649L906.021,85.096C906.021,85.127 906.046,85.153 906.077,85.153L923.085,85.153C923.117,85.153 923.142,85.127 923.142,85.096L923.142,76.649C923.142,76.592 923.085,76.649 923.142,76.649L940.037,76.649C940.093,76.649 940.037,76.592 940.037,76.649L940.037,85.096C940.037,85.127 940.062,85.153 940.093,85.153L957.101,85.153C957.132,85.153 957.158,85.127 957.158,85.096L957.158,76.649C957.158,76.592 957.101,76.649 957.158,76.649L974.052,76.649C974.109,76.649 974.052,76.592 974.052,76.649L974.052,85.096C974.052,85.127 974.078,85.153 974.109,85.153L991.117,85.153C991.148,85.153 991.174,85.127 991.174,85.096L991.174,76.649C991.174,76.592 991.117,76.649 991.174,76.649L1008.07,76.649C1008.12,76.649 1008.07,76.592 1008.07,76.649L1008.07,85.096C1008.07,85.127 1008.09,85.153 1008.12,85.153L1025.13,85.153C1025.16,85.153 1025.19,85.127 1025.19,85.096L1025.19,76.649C1025.19,76.592 1025.13,76.649 1025.19,76.649L1042.9,76.649C1042.93,76.649 1042.96,76.623 1042.96,76.592C1042.96,76.623 1042.93,76.649 1042.9,76.649L1047.81,76.649C1047.84,76.649 1047.87,76.623 1047.87,76.592L1047.87,65.254C1047.87,65.222 1047.84,65.197 1047.81,65.197L1040.5,65.197C1040.44,65.197 1040.5,65.254 1040.5,65.197L1040.5,48.302C1040.5,48.246 1040.44,48.302 1040.5,48.302L1047.81,48.302C1047.84,48.302 1047.87,48.277 1047.87,48.246L1047.87,36.907C1047.87,36.876 1047.84,36.85 1047.81,36.85L1042.9,36.85C1042.93,36.85 1042.96,36.876 1042.96,36.907C1042.96,36.876 1042.93,36.85 1042.9,36.85L1025.19,36.85C1025.13,36.85 1025.19,36.907 1025.19,36.85L1025.19,28.403C1025.19,28.372 1025.16,28.346 1025.13,28.346L1008.12,28.346C1008.09,28.346 1008.07,28.372 1008.07,28.403L1008.07,36.85C1008.07,36.907 1008.12,36.85 1008.07,36.85L991.174,36.85C991.117,36.85 991.174,36.907 991.174,36.85L991.174,28.403C991.174,28.372 991.148,28.346 991.117,28.346L974.109,28.346C974.078,28.346 974.052,28.372 974.052,28.403L974.052,36.85C974.052,36.907 974.109,36.85 974.052,36.85L957.158,36.85C957.101,36.85 957.158,36.907 957.158,36.85L957.158,28.403C957.158,28.372 957.132,28.346 957.101,28.346L940.093,28.346C940.062,28.346 940.037,28.372 940.037,28.403L940.037,36.85C940.037,36.907 940.093,36.85 940.037,36.85L923.142,36.85C923.085,36.85 923.142,36.907 923.142,36.85L923.142,28.403C923.142,28.372 923.117,28.346 923.085,28.346L906.077,28.346C906.046,28.346 906.021,28.372 906.021,28.403L906.021,36.85C906.021,36.907 906.077,36.85 906.021,36.85L889.126,36.85C889.07,36.85 889.126,36.907 889.126,36.85L889.126,28.403C889.126,28.372 889.101,28.346 889.07,28.346L872.062,28.346C872.031,28.346 872.005,28.372 872.005,28.403L872.005,36.85C872.005,36.907 872.062,36.85 872.005,36.85L854.294,36.85C854.263,36.85 854.237,36.876 854.237,36.907C854.237,36.876 854.263,36.85 854.294,36.85L849.385,36.85C849.353,36.85 849.328,36.876 849.328,36.907L849.328,48.246C849.328,48.277 849.353,48.302 849.385,48.302L856.692,48.302C856.749,48.302 856.692,48.246 856.692,48.302L856.692,65.197C856.692,65.254 856.749,65.197 856.692,65.197L849.385,65.197C849.353,65.197 849.328,65.222 849.328,65.254L849.328,76.592C849.328,76.623 849.353,76.649 849.385,76.649L854.294,76.649C854.263,76.649 854.237,76.623 854.237,76.592C854.237,76.623 854.263,76.649 854.294,76.649Z" style="fill:none;fill-rule:nonzero;stroke:black;stroke-width:0.06px;"/>
        </g>
        <g transform="matrix(0.952692,0,0,0.468509,-273.856,376.322)">
            <path d="M1059.54,76.649L1077.25,76.649C1077.31,76.649 1077.25,76.592 1077.25,76.649L1077.25,85.096C1077.25,85.127 1077.28,85.153 1077.31,85.153L1094.32,85.153C1094.35,85.153 1094.37,85.127 1094.37,85.096L1094.37,76.649C1094.37,76.592 1094.32,76.649 1094.37,76.649L1111.27,76.649C1111.32,76.649 1111.27,76.592 1111.27,76.649L1111.27,85.096C1111.27,85.127 1111.29,85.153 1111.32,85.153L1128.33,85.153C1128.36,85.153 1128.39,85.127 1128.39,85.096L1128.39,76.649C1128.39,76.592 1128.33,76.649 1128.39,76.649L1145.28,76.649C1145.34,76.649 1145.28,76.592 1145.28,76.649L1145.28,85.096C1145.28,85.127 1145.31,85.153 1145.34,85.153L1162.35,85.153C1162.38,85.153 1162.4,85.127 1162.4,85.096L1162.4,76.649C1162.4,76.592 1162.35,76.649 1162.4,76.649L1179.3,76.649C1179.35,76.649 1179.3,76.592 1179.3,76.649L1179.3,85.096C1179.3,85.127 1179.32,85.153 1179.35,85.153L1196.36,85.153C1196.39,85.153 1196.42,85.127 1196.42,85.096L1196.42,76.649C1196.42,76.592 1196.36,76.649 1196.42,76.649L1213.31,76.649C1213.37,76.649 1213.31,76.592 1213.31,76.649L1213.31,85.096C1213.31,85.127 1213.34,85.153 1213.37,85.153L1230.38,85.153C1230.41,85.153 1230.43,85.127 1230.43,85.096L1230.43,76.649C1230.43,76.592 1230.38,76.649 1230.43,76.649L1248.15,76.649C1248.18,76.649 1248.2,76.623 1248.2,76.592L1248.2,65.31C1248.2,65.254 1248.15,65.31 1248.2,65.31L1255.51,65.31C1255.54,65.31 1255.57,65.285 1255.57,65.254L1255.57,48.246C1255.57,48.214 1255.54,48.189 1255.51,48.189L1248.2,48.189C1248.15,48.189 1248.2,48.246 1248.2,48.189L1248.2,36.907C1248.2,36.876 1248.18,36.85 1248.15,36.85L1230.43,36.85C1230.38,36.85 1230.43,36.907 1230.43,36.85L1230.43,28.403C1230.43,28.372 1230.41,28.346 1230.38,28.346L1213.37,28.346C1213.34,28.346 1213.31,28.372 1213.31,28.403L1213.31,36.85C1213.31,36.907 1213.37,36.85 1213.31,36.85L1196.42,36.85C1196.36,36.85 1196.42,36.907 1196.42,36.85L1196.42,28.403C1196.42,28.372 1196.39,28.346 1196.36,28.346L1179.35,28.346C1179.32,28.346 1179.3,28.372 1179.3,28.403L1179.3,36.85C1179.3,36.907 1179.35,36.85 1179.3,36.85L1162.4,36.85C1162.35,36.85 1162.4,36.907 1162.4,36.85L1162.4,28.403C1162.4,28.372 1162.38,28.346 1162.35,28.346L1145.34,28.346C1145.31,28.346 1145.28,28.372 1145.28,28.403L1145.28,36.85C1145.28,36.907 1145.34,36.85 1145.28,36.85L1128.39,36.85C1128.33,36.85 1128.39,36.907 1128.39,36.85L1128.39,28.403C1128.39,28.372 1128.36,28.346 1128.33,28.346L1111.32,28.346C1111.29,28.346 1111.27,28.372 1111.27,28.403L1111.27,36.85C1111.27,36.907 1111.32,36.85 1111.27,36.85L1094.37,36.85C1094.32,36.85 1094.37,36.907 1094.37,36.85L1094.37,28.403C1094.37,28.372 1094.35,28.346 1094.32,28.346L1077.31,28.346C1077.28,28.346 1077.25,28.372 1077.25,28.403L1077.25,36.85C1077.25,36.907 1077.31,36.85 1077.25,36.85L1059.54,36.85C1059.51,36.85 1059.48,36.876 1059.48,36.907L1059.48,48.189C1059.48,48.246 1059.54,48.189 1059.48,48.189L1052.17,48.189C1052.14,48.189 1052.12,48.214 1052.12,48.246L1052.12,65.254C1052.12,65.285 1052.14,65.31 1052.17,65.31L1059.48,65.31C1059.54,65.31 1059.48,65.254 1059.48,65.31L1059.48,76.592C1059.48,76.623 1059.51,76.649 1059.54,76.649Z" style="fill:none;fill-rule:nonzero;stroke:black;stroke-width:0.06px;"/>
        </g>
        <g transform="matrix(1,0,0,1,6.66884,3.55271e-15)">
            <path d="M582.881,312.259C580.483,312.166 578.074,312.166 575.677,312.259L574.344,316.333C571.068,316.545 567.863,316.967 564.81,317.589L559.514,314.389C557.344,314.898 555.257,315.49 553.275,316.16L556.263,320.016C553.642,321.005 551.295,322.159 549.284,323.448L541.444,321.979C540.081,322.953 538.877,323.979 537.842,325.047L544.349,327.651C543.085,329.152 542.226,330.729 541.795,332.34L533.511,332.995C533.322,334.174 533.322,335.359 533.511,336.538L541.795,337.193C542.226,338.804 543.085,340.38 544.349,341.882L537.842,344.486C538.877,345.554 540.081,346.579 541.444,347.554L549.284,346.085C551.295,347.374 553.642,348.528 556.263,349.517L553.275,353.373C555.257,354.043 557.344,354.635 559.514,355.144L564.81,351.944C567.863,352.566 571.068,352.988 574.344,353.2L575.677,357.274C578.074,357.367 580.483,357.367 582.881,357.274L584.214,353.2C587.489,352.988 590.695,352.566 593.747,351.944L599.043,355.144C601.214,354.635 603.3,354.043 605.282,353.373L602.295,349.517C604.916,348.528 607.262,347.374 609.274,346.085L617.114,347.554C618.476,346.579 619.68,345.554 620.716,344.486L614.208,341.882C615.473,340.38 616.332,338.804 616.763,337.193L625.046,336.538C625.235,335.359 625.235,334.174 625.046,332.995L616.763,332.34C616.332,330.729 615.473,329.152 614.208,327.651L620.716,325.047C619.68,323.979 618.476,322.953 617.114,321.979L609.274,323.448C607.262,322.159 604.916,321.005 602.295,320.016L605.282,316.16C603.3,315.49 601.214,314.898 599.043,314.389L593.747,317.589C590.695,316.967 587.489,316.545 584.214,316.333L582.881,312.259ZM574.328,332.319C575.598,331.698 577.348,331.313 579.279,331.313C581.21,331.313 582.96,331.698 584.23,332.319L584.23,337.213C582.96,337.835 581.21,338.219 579.279,338.219C577.348,338.219 575.598,337.835 574.328,337.213L574.328,332.319Z" style="fill:none;stroke:black;stroke-width:0.03px;stroke-miterlimit:1.5;"/>
        </g>
    </g>
</svg>
