<?xml version="1.0" encoding="UTF-8" standalone="no"?>
<!DOCTYPE svg PUBLIC "-//W3C//DTD SVG 1.1//EN" "http://www.w3.org/Graphics/SVG/1.1/DTD/svg11.dtd">
<svg width="100%" height="100%" viewBox="0 0 947 700" version="1.1" xmlns="http://www.w3.org/2000/svg" xmlns:xlink="http://www.w3.org/1999/xlink" xml:space="preserve" xmlns:serif="http://www.serif.com/" style="fill-rule:evenodd;clip-rule:evenodd;stroke-linecap:round;stroke-linejoin:round;stroke-miterlimit:1.5;">
    <g id="Artboard1" transform="matrix(1,0,0,1.64355,0,0)">
        <rect x="0" y="0" width="946.488" height="425.764" style="fill:none;"/>
        <g id="p-0">
        </g>
        <g id="p-1" transform="matrix(1,0,0,0.608439,0,0)">
            <path d="M92.299,147.393L84.078,161.631C84.325,161.773 83.937,161.875 84.078,161.631L76.961,157.521C76.825,157.442 76.652,157.49 76.572,157.623L68.068,172.355C67.992,172.488 68.037,172.664 68.173,172.74L75.291,176.851L67.071,191.089C67.317,191.231 66.929,191.336 67.071,191.089L59.953,186.979C59.817,186.9 59.644,186.948 59.564,187.084L51.06,201.813C50.984,201.949 51.029,202.122 51.165,202.198L58.283,206.308L50.063,220.547C50.309,220.689 49.921,220.793 50.063,220.547L42.945,216.437C42.809,216.36 42.636,216.405 42.557,216.541L30.838,236.837L28.383,241.089C28.335,241.177 28.335,241.285 28.383,241.373L30.838,245.625L42.557,265.924C42.636,266.057 42.809,266.105 42.945,266.026L50.063,261.916L58.283,276.154L51.165,280.264C51.029,280.344 50.984,280.517 51.06,280.653L59.564,295.381C59.644,295.517 59.817,295.563 59.953,295.483L67.071,291.373L67.045,291.25C67.071,291.205 67.156,291.228 67.155,291.279L67.071,291.373L75.291,305.612L68.173,309.722C68.037,309.801 67.992,309.974 68.068,310.11L76.572,324.839C76.652,324.975 76.825,325.02 76.961,324.944L84.078,320.834L92.299,335.072L85.181,339.182C85.045,339.259 85,339.432 85.076,339.568L96.795,359.867L99.249,364.119C99.3,364.204 99.394,364.26 99.496,364.26L127.843,364.26C127.998,364.26 128.126,364.133 128.126,363.977L128.126,355.757L144.567,355.757L144.607,355.637C144.651,355.61 144.713,355.672 144.687,355.717L144.567,355.757L144.567,363.977C144.567,364.133 144.694,364.26 144.85,364.26L161.858,364.26C162.014,364.26 162.142,364.133 162.142,363.977L162.142,355.757L178.583,355.757L178.623,355.637C178.667,355.61 178.729,355.672 178.702,355.717L178.583,355.757L178.583,363.977C178.583,364.133 178.71,364.26 178.866,364.26L195.874,364.26C196.03,364.26 196.157,364.133 196.157,363.977L196.157,355.757L212.598,355.757L212.638,355.637C212.683,355.61 212.745,355.672 212.718,355.717L212.598,355.757L212.598,363.977C212.598,364.133 212.726,364.26 212.882,364.26L241.228,364.26C241.33,364.26 241.424,364.204 241.475,364.119L243.93,359.867L255.648,339.568C255.725,339.432 255.679,339.259 255.543,339.182L248.426,335.072L256.646,320.834L256.562,320.739C256.561,320.687 256.646,320.664 256.671,320.71L256.646,320.834L263.764,324.944C263.9,325.02 264.073,324.975 264.152,324.839L272.656,310.11C272.733,309.974 272.687,309.801 272.551,309.722L265.433,305.612L273.654,291.373L273.57,291.279C273.569,291.228 273.654,291.205 273.679,291.25L273.654,291.373L280.772,295.483C280.908,295.563 281.081,295.517 281.16,295.381L289.664,280.653C289.74,280.517 289.695,280.344 289.559,280.264L282.441,276.154L290.662,261.916L290.578,261.822C290.577,261.77 290.662,261.748 290.687,261.793L290.662,261.916L297.78,266.026C297.916,266.105 298.089,266.057 298.168,265.924L309.886,245.625L312.341,241.373C312.389,241.285 312.389,241.177 312.341,241.089L309.886,236.837L298.168,216.541C298.089,216.405 297.916,216.36 297.78,216.437L290.662,220.547C290.803,220.793 290.415,220.689 290.662,220.547L282.441,206.308L289.559,202.198C289.695,202.122 289.74,201.949 289.664,201.813L281.16,187.084C281.081,186.948 280.908,186.9 280.772,186.979L273.654,191.089C273.796,191.336 273.407,191.231 273.654,191.089L265.433,176.851L272.551,172.74C272.687,172.664 272.733,172.488 272.656,172.355L264.152,157.623C264.073,157.49 263.9,157.442 263.764,157.521L256.646,161.631C256.788,161.875 256.399,161.773 256.646,161.631L248.426,147.393L255.543,143.283C255.679,143.203 255.725,143.031 255.648,142.894L243.93,122.598L241.475,118.346C241.424,118.259 241.33,118.205 241.228,118.205L212.882,118.205C212.726,118.205 212.598,118.332 212.598,118.488L212.598,126.709L196.157,126.709C196.157,126.992 195.874,126.709 196.157,126.709L196.157,118.488C196.157,118.332 196.03,118.205 195.874,118.205L178.866,118.205C178.71,118.205 178.583,118.332 178.583,118.488L178.583,126.709L162.142,126.709C162.142,126.992 161.858,126.709 162.142,126.709L162.142,118.488C162.142,118.332 162.014,118.205 161.858,118.205L144.85,118.205C144.694,118.205 144.567,118.332 144.567,118.488L144.567,126.709L128.126,126.709C128.126,126.992 127.843,126.709 128.126,126.709L128.126,118.488C128.126,118.332 127.998,118.205 127.843,118.205L99.496,118.205C99.394,118.205 99.3,118.259 99.249,118.346L96.795,122.598L85.076,142.894C85,143.031 85.045,143.203 85.181,143.283L92.299,147.393ZM128.02,355.65C127.984,355.686 127.984,355.757 128.126,355.757L128.086,355.637L128.02,355.65ZM162.035,355.65C162,355.686 162,355.757 162.142,355.757L162.102,355.637L162.035,355.65ZM196.051,355.65C196.016,355.686 196.016,355.757 196.157,355.757L196.118,355.637L196.051,355.65ZM265.288,305.651C265.301,305.7 265.363,305.735 265.433,305.612L265.309,305.587L265.288,305.651ZM75.291,305.612C75.397,305.797 75.483,305.624 75.415,305.587L75.291,305.612ZM282.296,276.193C282.309,276.242 282.37,276.277 282.441,276.154L282.317,276.129L282.296,276.193ZM58.283,276.154C58.389,276.339 58.475,276.167 58.407,276.129L58.283,276.154ZM170.362,232.729C175.056,232.729 178.866,236.539 178.866,241.233C178.866,245.926 175.056,249.737 170.362,249.737C165.669,249.737 161.858,245.926 161.858,241.233C161.858,236.539 165.669,232.729 170.362,232.729ZM248.28,147.354C248.267,147.402 248.302,147.464 248.426,147.393L248.331,147.309L248.28,147.354ZM212.638,126.828C212.683,126.855 212.745,126.793 212.718,126.749L212.598,126.709L212.638,126.828ZM178.623,126.828C178.667,126.855 178.729,126.793 178.702,126.749L178.583,126.709L178.623,126.828ZM144.607,126.828C144.651,126.855 144.713,126.793 144.687,126.749L144.567,126.709L144.607,126.828Z" style="fill:none;stroke:black;stroke-width:0.6px;"/>
        </g>
        <g transform="matrix(1,0,0,0.608439,-0.000453384,25.8708)">
            <g id="p-2">
                <path d="M373.465,100.763L380.583,104.873L372.362,119.112C372.609,119.253 372.221,119.355 372.362,119.112L365.245,115.001C365.108,114.922 364.936,114.97 364.856,115.103L356.352,129.835C356.276,129.968 356.321,130.144 356.457,130.221L363.575,134.331L355.354,148.569C355.601,148.711 355.213,148.816 355.354,148.569L348.237,144.459C348.101,144.38 347.928,144.428 347.848,144.564L339.344,159.293C339.268,159.429 339.313,159.602 339.449,159.678L346.567,163.788L338.347,178.027C338.593,178.169 338.205,178.274 338.347,178.027L331.229,173.917C331.093,173.84 330.92,173.885 330.84,174.022L319.122,194.318L316.667,198.57C316.619,198.657 316.619,198.765 316.667,198.853L319.122,203.105L330.84,223.404C330.92,223.537 331.093,223.585 331.229,223.506L338.347,219.396L346.567,233.634L339.449,237.744C339.313,237.824 339.268,237.997 339.344,238.133L347.848,252.862C347.928,252.998 348.101,253.043 348.237,252.964L355.354,248.853L363.575,263.092L356.457,267.202C356.321,267.281 356.276,267.454 356.352,267.59L364.856,282.319C364.936,282.455 365.108,282.501 365.245,282.424L372.362,278.314L372.332,278.237C372.311,278.114 372.507,278.167 372.427,278.263L372.362,278.314L380.583,292.552L373.465,296.662C373.329,296.739 373.284,296.912 373.36,297.048L385.079,317.347L387.533,321.599C387.584,321.684 387.678,321.741 387.78,321.741L416.126,321.741C416.282,321.741 416.41,321.613 416.41,321.457L416.41,313.237L432.851,313.237L432.862,313.155C432.906,313.039 433.048,313.182 432.932,313.225L432.851,313.237L432.851,321.457C432.851,321.613 432.978,321.741 433.134,321.741L450.142,321.741C450.298,321.741 450.426,321.613 450.426,321.457L450.426,313.237L466.867,313.237L466.878,313.155C466.921,313.039 467.064,313.182 466.948,313.225L466.867,313.237L466.867,321.457C466.867,321.613 466.994,321.741 467.15,321.741L484.158,321.741C484.314,321.741 484.441,321.613 484.441,321.457L484.441,313.237L500.882,313.237L500.894,313.155C500.937,313.039 501.08,313.182 500.964,313.225L500.882,313.237L500.882,321.457C500.882,321.613 501.01,321.741 501.166,321.741L529.512,321.741C529.614,321.741 529.708,321.684 529.759,321.599L532.214,317.347L543.932,297.048C544.009,296.912 543.963,296.739 543.827,296.662L536.709,292.552L544.93,278.314L544.865,278.263C544.785,278.167 544.981,278.114 544.96,278.237L544.93,278.314L552.048,282.424C552.184,282.501 552.357,282.455 552.436,282.319L560.94,267.59C561.017,267.454 560.971,267.281 560.835,267.202L553.717,263.092L561.938,248.853L561.873,248.803C561.793,248.707 561.989,248.656 561.968,248.778L561.938,248.853L569.056,252.964C569.192,253.043 569.365,252.998 569.444,252.862L577.948,238.133C578.024,237.997 577.979,237.824 577.843,237.744L570.725,233.634L578.946,219.396L578.881,219.345C578.801,219.25 578.997,219.198 578.976,219.32L578.946,219.396L586.063,223.506C586.2,223.585 586.372,223.537 586.452,223.404L598.17,203.105L600.625,198.853C600.673,198.765 600.673,198.657 600.625,198.57L598.17,194.318L586.452,174.022C586.372,173.885 586.2,173.84 586.063,173.917L578.946,178.027C579.087,178.274 578.699,178.169 578.946,178.027L570.725,163.788L577.843,159.678C577.979,159.602 578.024,159.429 577.948,159.293L569.444,144.564C569.365,144.428 569.192,144.38 569.056,144.459L561.938,148.569C562.08,148.816 561.691,148.711 561.938,148.569L553.717,134.331L560.835,130.221C560.971,130.144 561.017,129.968 560.94,129.835L552.436,115.103C552.357,114.97 552.184,114.922 552.048,115.001L544.93,119.112C545.072,119.355 544.683,119.253 544.93,119.112L536.709,104.873L543.827,100.763C543.963,100.684 544.009,100.511 543.932,100.375L532.214,80.079L529.759,75.827C529.708,75.739 529.614,75.685 529.512,75.685L501.166,75.685C501.01,75.685 500.882,75.812 500.882,75.968L500.882,84.189L484.441,84.189C484.441,84.472 484.158,84.189 484.441,84.189L484.441,75.968C484.441,75.812 484.314,75.685 484.158,75.685L467.15,75.685C466.994,75.685 466.867,75.812 466.867,75.968L466.867,84.189L450.426,84.189C450.426,84.472 450.142,84.189 450.426,84.189L450.426,75.968C450.426,75.812 450.298,75.685 450.142,75.685L433.134,75.685C432.978,75.685 432.851,75.812 432.851,75.968L432.851,84.189L416.41,84.189C416.41,84.472 416.126,84.189 416.41,84.189L416.41,75.968C416.41,75.812 416.282,75.685 416.126,75.685L387.78,75.685C387.678,75.685 387.584,75.739 387.533,75.827L385.079,80.079L373.36,100.375C373.284,100.511 373.329,100.684 373.465,100.763ZM484.335,313.13C484.3,313.166 484.3,313.237 484.441,313.237L484.43,313.155C484.415,313.117 484.39,313.107 484.367,313.112L484.335,313.13ZM416.304,313.13C416.268,313.166 416.268,313.237 416.41,313.237L416.398,313.155C416.384,313.117 416.358,313.107 416.335,313.112L416.304,313.13ZM450.319,313.13C450.284,313.166 450.284,313.237 450.426,313.237L450.414,313.155C450.4,313.117 450.374,313.107 450.351,313.112L450.319,313.13ZM536.709,292.552C536.648,292.517 536.608,292.514 536.585,292.527C536.563,292.539 536.557,292.566 536.564,292.591C536.577,292.639 536.639,292.674 536.709,292.552ZM380.583,292.552C380.645,292.659 380.7,292.645 380.721,292.608C380.743,292.57 380.731,292.509 380.659,292.522L380.583,292.552ZM486.991,278.888L486.991,218.555L430.299,218.555L430.299,278.888C435.545,280.743 440.985,282.087 446.544,282.887C460.189,284.849 474.067,283.458 486.991,278.888ZM363.575,263.092C363.637,263.2 363.692,263.186 363.713,263.148C363.735,263.111 363.723,263.049 363.652,263.061L363.575,263.092ZM553.593,263.067C553.525,263.105 553.611,263.277 553.717,263.092L553.641,263.061L553.593,263.067ZM543.684,156.193L515.338,156.193L515.338,241.232L543.684,241.232L543.684,156.193ZM346.567,233.634C346.629,233.742 346.684,233.728 346.706,233.691C346.727,233.653 346.715,233.592 346.644,233.604L346.567,233.634ZM570.601,233.609C570.533,233.647 570.619,233.819 570.725,233.634L570.649,233.604L570.601,233.609ZM458.645,190.209C463.338,190.209 467.149,194.019 467.149,198.713C467.149,203.406 463.338,207.217 458.645,207.217C453.952,207.217 450.141,203.406 450.141,198.713C450.141,194.019 453.952,190.209 458.645,190.209ZM486.991,118.537C474.067,113.966 460.189,112.577 446.544,114.539C440.985,115.339 435.545,116.682 430.299,118.537L430.299,178.87L486.991,178.87L486.991,118.537ZM570.598,163.719C570.554,163.76 570.571,163.877 570.725,163.788L570.674,163.724C570.658,163.711 570.644,163.706 570.631,163.706L570.598,163.719ZM346.618,163.724L346.567,163.788C346.752,163.895 346.739,163.704 346.662,163.706L346.618,163.724ZM553.59,134.261C553.546,134.302 553.563,134.419 553.717,134.331L553.666,134.267C553.651,134.254 553.636,134.248 553.623,134.248L553.59,134.261ZM536.582,104.802C536.538,104.843 536.555,104.962 536.709,104.873L536.659,104.808C536.643,104.795 536.628,104.789 536.615,104.789L536.582,104.802ZM380.634,104.808L380.583,104.873C380.768,104.979 380.755,104.788 380.677,104.789L380.634,104.808ZM466.878,84.27C466.921,84.386 467.064,84.244 466.948,84.2L466.867,84.189L466.878,84.27ZM432.862,84.27C432.906,84.386 433.048,84.244 432.932,84.2L432.851,84.189L432.862,84.27ZM500.894,84.27C500.937,84.386 501.08,84.244 500.964,84.2L500.882,84.189L500.894,84.27Z" style="fill:none;stroke:black;stroke-width:0.57px;stroke-miterlimit:4;"/>
            </g>
        </g>
        <g id="p-3" transform="matrix(1,0,0,0.608439,0,0)">
            <path d="M165.653,36.934L165.736,37.134C165.736,37.056 165.704,36.985 165.653,36.934ZM74.161,105.343C74.126,105.378 74.126,105.449 74.268,105.449L74.228,105.329L74.161,105.343ZM108.177,105.343C108.142,105.378 108.142,105.449 108.283,105.449L108.244,105.329L108.177,105.343ZM142.193,105.343C142.157,105.378 142.157,105.449 142.299,105.449L142.259,105.329L142.193,105.343ZM35.751,96.498C35.795,96.524 35.857,96.462 35.83,96.418L35.711,96.378L35.751,96.498ZM120.756,64.063C120.756,56.241 114.405,49.89 106.583,49.89L92.409,49.89C84.587,49.89 78.236,56.241 78.236,64.063L78.236,78.236C78.236,86.059 84.587,92.409 92.409,92.409L106.583,92.409C114.405,92.409 120.756,86.059 120.756,78.236L120.756,64.063ZM163.175,79.831C163.14,79.866 163.14,79.937 163.281,79.937L163.241,79.817L163.175,79.831ZM35.751,62.482C35.795,62.508 35.857,62.446 35.83,62.402L35.711,62.362L35.751,62.482ZM163.175,45.815C163.14,45.85 163.14,45.921 163.281,45.921L163.241,45.802L163.175,45.815ZM124.764,36.97C124.809,36.997 124.871,36.935 124.844,36.89L124.724,36.85L124.764,36.97ZM90.749,36.97C90.793,36.997 90.855,36.935 90.828,36.89L90.709,36.85L90.749,36.97ZM56.733,36.97C56.777,36.997 56.839,36.935 56.813,36.89L56.693,36.85L56.733,36.97ZM170.362,36.85L142.299,36.85C142.299,37.134 142.016,36.85 142.299,36.85L142.299,28.63C142.299,28.474 142.172,28.346 142.016,28.346L125.008,28.346C124.852,28.346 124.724,28.474 124.724,28.63L124.724,36.85L108.283,36.85C108.283,37.134 108,36.85 108.283,36.85L108.283,28.63C108.283,28.474 108.156,28.346 108,28.346L90.992,28.346C90.836,28.346 90.709,28.474 90.709,28.63L90.709,36.85L74.268,36.85C74.268,37.134 73.984,36.85 74.268,36.85L74.268,28.63C74.268,28.474 74.14,28.346 73.984,28.346L56.976,28.346C56.82,28.346 56.693,28.474 56.693,28.63L56.693,36.85L33.54,36.85C33.384,36.85 33.256,36.978 33.256,37.134C33.256,36.978 33.384,36.85 33.54,36.85L28.63,36.85C28.474,36.85 28.346,36.978 28.346,37.134L28.346,45.638C28.346,45.794 28.474,45.921 28.63,45.921L35.711,45.921L35.751,45.802C35.795,45.775 35.857,45.837 35.83,45.881L35.711,45.921L35.711,62.362L28.63,62.362C28.474,62.362 28.346,62.49 28.346,62.646L28.346,79.654C28.346,79.809 28.474,79.937 28.63,79.937L35.711,79.937L35.751,79.817C35.795,79.791 35.857,79.853 35.83,79.897L35.711,79.937L35.711,96.378L28.63,96.378C28.474,96.378 28.346,96.506 28.346,96.661L28.346,105.165C28.346,105.321 28.474,105.449 28.63,105.449L33.54,105.449L33.339,105.366C33.288,105.314 33.256,105.243 33.256,105.165C33.256,105.243 33.288,105.314 33.339,105.366L33.54,105.449L56.693,105.449L56.733,105.329C56.777,105.303 56.839,105.365 56.813,105.409L56.693,105.449L56.693,113.669C56.693,113.825 56.82,113.953 56.976,113.953L73.984,113.953C74.14,113.953 74.268,113.825 74.268,113.669L74.268,105.449L90.709,105.449L90.749,105.329C90.793,105.303 90.855,105.365 90.828,105.409L90.709,105.449L90.709,113.669C90.709,113.825 90.836,113.953 90.992,113.953L108,113.953C108.156,113.953 108.283,113.825 108.283,113.669L108.283,105.449L124.724,105.449L124.764,105.329C124.809,105.303 124.871,105.365 124.844,105.409L124.724,105.449L124.724,113.669C124.724,113.825 124.852,113.953 125.008,113.953L142.016,113.953C142.172,113.953 142.299,113.825 142.299,113.669L142.299,105.449L165.453,105.449L165.653,105.366L165.736,105.165C165.736,105.243 165.704,105.314 165.653,105.366C165.601,105.417 165.531,105.449 165.453,105.449L170.362,105.449C170.518,105.449 170.646,105.321 170.646,105.165L170.646,96.661C170.646,96.506 170.518,96.378 170.362,96.378L163.281,96.378C163.281,96.661 162.998,96.378 163.281,96.378L163.281,79.937L170.362,79.937C170.518,79.937 170.646,79.809 170.646,79.654L170.646,62.646C170.646,62.49 170.518,62.362 170.362,62.362L163.281,62.362C163.281,62.646 162.998,62.362 163.281,62.362L163.281,45.921L170.362,45.921C170.518,45.921 170.646,45.794 170.646,45.638L170.646,37.134C170.646,36.978 170.518,36.85 170.362,36.85Z" style="fill:none;stroke:black;stroke-width:0.57px;stroke-miterlimit:4;"/>
        </g>
        <g id="p-4" transform="matrix(1,0,0,0.608439,0,0)">
            <path d="M182.546,105.449L205.699,105.449C205.982,105.449 205.699,105.165 205.699,105.449L205.699,113.669C205.699,113.825 205.826,113.953 205.982,113.953L222.99,113.953C223.146,113.953 223.274,113.825 223.274,113.669L223.274,105.449C223.274,105.165 222.99,105.449 223.274,105.449L239.715,105.449C239.998,105.449 239.715,105.165 239.715,105.449L239.715,113.669C239.715,113.825 239.842,113.953 239.998,113.953L257.006,113.953C257.162,113.953 257.289,113.825 257.289,113.669L257.289,105.449C257.289,105.165 257.006,105.449 257.289,105.449L273.73,105.449C274.014,105.449 273.73,105.165 273.73,105.449L273.73,113.669C273.73,113.825 273.858,113.953 274.014,113.953L291.022,113.953C291.178,113.953 291.305,113.825 291.305,113.669L291.305,105.449C291.305,105.165 291.022,105.449 291.305,105.449L314.459,105.449C314.614,105.449 314.742,105.321 314.742,105.165L314.742,96.945C314.742,96.661 314.459,96.945 314.742,96.945L321.823,96.945C321.979,96.945 322.106,96.817 322.106,96.661L322.106,79.654C322.106,79.498 321.979,79.37 321.823,79.37L314.742,79.37C314.459,79.37 314.742,79.654 314.742,79.37L314.742,62.929C314.742,62.646 314.459,62.929 314.742,62.929L321.823,62.929C321.979,62.929 322.106,62.802 322.106,62.646L322.106,45.638C322.106,45.482 321.979,45.354 321.823,45.354L314.742,45.354C314.459,45.354 314.742,45.638 314.742,45.354L314.742,37.134C314.742,36.978 314.614,36.85 314.459,36.85L291.305,36.85C291.022,36.85 291.305,37.134 291.305,36.85L291.305,28.63C291.305,28.474 291.178,28.346 291.022,28.346L274.014,28.346C273.858,28.346 273.73,28.474 273.73,28.63L273.73,36.85C273.73,37.134 274.014,36.85 273.73,36.85L257.289,36.85C257.006,36.85 257.289,37.134 257.289,36.85L257.289,28.63C257.289,28.474 257.162,28.346 257.006,28.346L239.998,28.346C239.842,28.346 239.715,28.474 239.715,28.63L239.715,36.85C239.715,37.134 239.998,36.85 239.715,36.85L223.274,36.85C222.99,36.85 223.274,37.134 223.274,36.85L223.274,28.63C223.274,28.474 223.146,28.346 222.99,28.346L205.982,28.346C205.826,28.346 205.699,28.474 205.699,28.63L205.699,36.85C205.699,37.134 205.982,36.85 205.699,36.85L182.546,36.85C182.39,36.85 182.262,36.978 182.262,37.134L182.262,45.354C182.262,45.638 182.546,45.354 182.262,45.354L175.181,45.354C175.025,45.354 174.898,45.482 174.898,45.638L174.898,62.646C174.898,62.802 175.025,62.929 175.181,62.929L182.262,62.929C182.546,62.929 182.262,62.646 182.262,62.929L182.262,79.37C182.262,79.654 182.546,79.37 182.262,79.37L175.181,79.37C175.025,79.37 174.898,79.498 174.898,79.654L174.898,96.661C174.898,96.817 175.025,96.945 175.181,96.945L182.262,96.945C182.546,96.945 182.262,96.661 182.262,96.945L182.262,105.165C182.262,105.321 182.39,105.449 182.546,105.449Z" style="fill:none;fill-rule:nonzero;stroke:black;stroke-width:0.57px;stroke-miterlimit:4;"/>
        </g>
        <g id="p-5" transform="matrix(1,0,0,0.608439,0,0)">
            <path d="M331.551,105.449L354.705,105.449C354.988,105.449 354.705,105.165 354.705,105.449L354.705,113.669C354.705,113.825 354.832,113.953 354.988,113.953L371.996,113.953C372.152,113.953 372.28,113.825 372.28,113.669L372.28,105.449C372.28,105.165 371.996,105.449 372.28,105.449L388.721,105.449C389.004,105.449 388.721,105.165 388.721,105.449L388.721,113.669C388.721,113.825 388.848,113.953 389.004,113.953L406.012,113.953C406.168,113.953 406.295,113.825 406.295,113.669L406.295,105.449C406.295,105.165 406.012,105.449 406.295,105.449L422.736,105.449C423.02,105.449 422.736,105.165 422.736,105.449L422.736,113.669C422.736,113.825 422.864,113.953 423.02,113.953L440.028,113.953C440.184,113.953 440.311,113.825 440.311,113.669L440.311,105.449C440.311,105.165 440.028,105.449 440.311,105.449L463.465,105.449C463.62,105.449 463.748,105.321 463.748,105.165C463.748,105.321 463.62,105.449 463.465,105.449L468.374,105.449C468.53,105.449 468.658,105.321 468.658,105.165L468.658,96.661C468.658,96.506 468.53,96.378 468.374,96.378L461.293,96.378C461.01,96.378 461.293,96.661 461.293,96.378L461.293,79.937C461.293,79.654 461.01,79.937 461.293,79.937L468.374,79.937C468.53,79.937 468.658,79.809 468.658,79.654L468.658,62.646C468.658,62.49 468.53,62.362 468.374,62.362L461.293,62.362C461.01,62.362 461.293,62.646 461.293,62.362L461.293,45.921C461.293,45.638 461.01,45.921 461.293,45.921L468.374,45.921C468.53,45.921 468.658,45.794 468.658,45.638L468.658,37.134C468.658,36.978 468.53,36.85 468.374,36.85L463.465,36.85C463.62,36.85 463.748,36.978 463.748,37.134C463.748,36.978 463.62,36.85 463.465,36.85L440.311,36.85C440.028,36.85 440.311,37.134 440.311,36.85L440.311,28.63C440.311,28.474 440.184,28.346 440.028,28.346L423.02,28.346C422.864,28.346 422.736,28.474 422.736,28.63L422.736,36.85C422.736,37.134 423.02,36.85 422.736,36.85L406.295,36.85C406.012,36.85 406.295,37.134 406.295,36.85L406.295,28.63C406.295,28.474 406.168,28.346 406.012,28.346L389.004,28.346C388.848,28.346 388.721,28.474 388.721,28.63L388.721,36.85C388.721,37.134 389.004,36.85 388.721,36.85L372.28,36.85C371.996,36.85 372.28,37.134 372.28,36.85L372.28,28.63C372.28,28.474 372.152,28.346 371.996,28.346L354.988,28.346C354.832,28.346 354.705,28.474 354.705,28.63L354.705,36.85C354.705,37.134 354.988,36.85 354.705,36.85L331.551,36.85C331.396,36.85 331.268,36.978 331.268,37.134C331.268,36.978 331.396,36.85 331.551,36.85L326.642,36.85C326.486,36.85 326.358,36.978 326.358,37.134L326.358,45.638C326.358,45.794 326.486,45.921 326.642,45.921L333.723,45.921C334.006,45.921 333.723,45.638 333.723,45.921L333.723,62.362C333.723,62.646 334.006,62.362 333.723,62.362L326.642,62.362C326.486,62.362 326.358,62.49 326.358,62.646L326.358,79.654C326.358,79.809 326.486,79.937 326.642,79.937L333.723,79.937C334.006,79.937 333.723,79.654 333.723,79.937L333.723,96.378C333.723,96.661 334.006,96.378 333.723,96.378L326.642,96.378C326.486,96.378 326.358,96.506 326.358,96.661L326.358,105.165C326.358,105.321 326.486,105.449 326.642,105.449L331.551,105.449C331.396,105.449 331.268,105.321 331.268,105.165C331.268,105.321 331.396,105.449 331.551,105.449Z" style="fill:none;fill-rule:nonzero;stroke:black;stroke-width:0.57px;stroke-miterlimit:4;"/>
        </g>
        <g id="p-6" transform="matrix(1,0,0,0.608439,0,0)">
            <path d="M480.557,105.449L503.711,105.449C503.994,105.449 503.711,105.165 503.711,105.449L503.711,113.669C503.711,113.825 503.838,113.953 503.994,113.953L521.002,113.953C521.158,113.953 521.286,113.825 521.286,113.669L521.286,105.449C521.286,105.165 521.002,105.449 521.286,105.449L537.727,105.449C538.01,105.449 537.727,105.165 537.727,105.449L537.727,113.669C537.727,113.825 537.854,113.953 538.01,113.953L555.018,113.953C555.174,113.953 555.301,113.825 555.301,113.669L555.301,105.449C555.301,105.165 555.018,105.449 555.301,105.449L571.742,105.449C572.026,105.449 571.742,105.165 571.742,105.449L571.742,113.669C571.742,113.825 571.87,113.953 572.026,113.953L589.034,113.953C589.19,113.953 589.317,113.825 589.317,113.669L589.317,105.449C589.317,105.165 589.034,105.449 589.317,105.449L612.471,105.449C612.626,105.449 612.754,105.321 612.754,105.165L612.754,96.945C612.754,96.661 612.471,96.945 612.754,96.945L619.835,96.945C619.991,96.945 620.118,96.817 620.118,96.661L620.118,79.654C620.118,79.498 619.991,79.37 619.835,79.37L612.754,79.37C612.471,79.37 612.754,79.654 612.754,79.37L612.754,62.929C612.754,62.646 612.471,62.929 612.754,62.929L619.835,62.929C619.991,62.929 620.118,62.802 620.118,62.646L620.118,45.638C620.118,45.482 619.991,45.354 619.835,45.354L612.754,45.354C612.471,45.354 612.754,45.638 612.754,45.354L612.754,37.134C612.754,36.978 612.626,36.85 612.471,36.85L589.317,36.85C589.034,36.85 589.317,37.134 589.317,36.85L589.317,28.63C589.317,28.474 589.19,28.346 589.034,28.346L572.026,28.346C571.87,28.346 571.742,28.474 571.742,28.63L571.742,36.85C571.742,37.134 572.026,36.85 571.742,36.85L555.301,36.85C555.018,36.85 555.301,37.134 555.301,36.85L555.301,28.63C555.301,28.474 555.174,28.346 555.018,28.346L538.01,28.346C537.854,28.346 537.727,28.474 537.727,28.63L537.727,36.85C537.727,37.134 538.01,36.85 537.727,36.85L521.286,36.85C521.002,36.85 521.286,37.134 521.286,36.85L521.286,28.63C521.286,28.474 521.158,28.346 521.002,28.346L503.994,28.346C503.838,28.346 503.711,28.474 503.711,28.63L503.711,36.85C503.711,37.134 503.994,36.85 503.711,36.85L480.557,36.85C480.402,36.85 480.274,36.978 480.274,37.134L480.274,45.354C480.274,45.638 480.557,45.354 480.274,45.354L473.193,45.354C473.037,45.354 472.91,45.482 472.91,45.638L472.91,62.646C472.91,62.802 473.037,62.929 473.193,62.929L480.274,62.929C480.557,62.929 480.274,62.646 480.274,62.929L480.274,79.37C480.274,79.654 480.557,79.37 480.274,79.37L473.193,79.37C473.037,79.37 472.91,79.498 472.91,79.654L472.91,96.661C472.91,96.817 473.037,96.945 473.193,96.945L480.274,96.945C480.557,96.945 480.274,96.661 480.274,96.945L480.274,105.165C480.274,105.321 480.402,105.449 480.557,105.449Z" style="fill:none;fill-rule:nonzero;stroke:black;stroke-width:0.57px;stroke-miterlimit:4;"/>
        </g>
        <g id="p-7" transform="matrix(1,0,0,0.608439,0,0)">
            <path d="M629.563,105.449L652.717,105.449C653,105.449 652.717,105.165 652.717,105.449L652.717,113.669C652.717,113.825 652.844,113.953 653,113.953L670.008,113.953C670.164,113.953 670.292,113.825 670.292,113.669L670.292,105.449C670.292,105.165 670.008,105.449 670.292,105.449L686.733,105.449C687.016,105.449 686.733,105.165 686.733,105.449L686.733,113.669C686.733,113.825 686.86,113.953 687.016,113.953L704.024,113.953C704.18,113.953 704.307,113.825 704.307,113.669L704.307,105.449C704.307,105.165 704.024,105.449 704.307,105.449L720.748,105.449C721.032,105.449 720.748,105.165 720.748,105.449L720.748,113.669C720.748,113.825 720.876,113.953 721.032,113.953L738.04,113.953C738.196,113.953 738.323,113.825 738.323,113.669L738.323,105.449C738.323,105.165 738.04,105.449 738.323,105.449L761.477,105.449C761.632,105.449 761.76,105.321 761.76,105.165C761.76,105.321 761.632,105.449 761.477,105.449L766.386,105.449C766.542,105.449 766.67,105.321 766.67,105.165L766.67,96.661C766.67,96.506 766.542,96.378 766.386,96.378L759.305,96.378C759.022,96.378 759.305,96.661 759.305,96.378L759.305,79.937C759.305,79.654 759.022,79.937 759.305,79.937L766.386,79.937C766.542,79.937 766.67,79.809 766.67,79.654L766.67,62.646C766.67,62.49 766.542,62.362 766.386,62.362L759.305,62.362C759.022,62.362 759.305,62.646 759.305,62.362L759.305,45.921C759.305,45.638 759.022,45.921 759.305,45.921L766.386,45.921C766.542,45.921 766.67,45.794 766.67,45.638L766.67,37.134C766.67,36.978 766.542,36.85 766.386,36.85L761.477,36.85C761.632,36.85 761.76,36.978 761.76,37.134C761.76,36.978 761.632,36.85 761.477,36.85L738.323,36.85C738.04,36.85 738.323,37.134 738.323,36.85L738.323,28.63C738.323,28.474 738.196,28.346 738.04,28.346L721.032,28.346C720.876,28.346 720.748,28.474 720.748,28.63L720.748,36.85C720.748,37.134 721.032,36.85 720.748,36.85L704.307,36.85C704.024,36.85 704.307,37.134 704.307,36.85L704.307,28.63C704.307,28.474 704.18,28.346 704.024,28.346L687.016,28.346C686.86,28.346 686.733,28.474 686.733,28.63L686.733,36.85C686.733,37.134 687.016,36.85 686.733,36.85L670.292,36.85C670.008,36.85 670.292,37.134 670.292,36.85L670.292,28.63C670.292,28.474 670.164,28.346 670.008,28.346L653,28.346C652.844,28.346 652.717,28.474 652.717,28.63L652.717,36.85C652.717,37.134 653,36.85 652.717,36.85L629.563,36.85C629.408,36.85 629.28,36.978 629.28,37.134C629.28,36.978 629.408,36.85 629.563,36.85L624.654,36.85C624.498,36.85 624.37,36.978 624.37,37.134L624.37,45.638C624.37,45.794 624.498,45.921 624.654,45.921L631.735,45.921C632.018,45.921 631.735,45.638 631.735,45.921L631.735,62.362C631.735,62.646 632.018,62.362 631.735,62.362L624.654,62.362C624.498,62.362 624.37,62.49 624.37,62.646L624.37,79.654C624.37,79.809 624.498,79.937 624.654,79.937L631.735,79.937C632.018,79.937 631.735,79.654 631.735,79.937L631.735,96.378C631.735,96.661 632.018,96.378 631.735,96.378L624.654,96.378C624.498,96.378 624.37,96.506 624.37,96.661L624.37,105.165C624.37,105.321 624.498,105.449 624.654,105.449L629.563,105.449C629.408,105.449 629.28,105.321 629.28,105.165C629.28,105.321 629.408,105.449 629.563,105.449Z" style="fill:none;fill-rule:nonzero;stroke:black;stroke-width:0.57px;stroke-miterlimit:4;"/>
        </g>
        <g id="p-8" transform="matrix(1,0,0,0.608439,0,0)">
            <path d="M778.569,105.449L801.723,105.449C802.006,105.449 801.723,105.165 801.723,105.449L801.723,113.669C801.723,113.825 801.85,113.953 802.006,113.953L819.014,113.953C819.17,113.953 819.298,113.825 819.298,113.669L819.298,105.449C819.298,105.165 819.014,105.449 819.298,105.449L835.739,105.449C836.022,105.449 835.739,105.165 835.739,105.449L835.739,113.669C835.739,113.825 835.866,113.953 836.022,113.953L853.03,113.953C853.186,113.953 853.313,113.825 853.313,113.669L853.313,105.449C853.313,105.165 853.03,105.449 853.313,105.449L869.754,105.449C870.038,105.449 869.754,105.165 869.754,105.449L869.754,113.669C869.754,113.825 869.882,113.953 870.038,113.953L887.046,113.953C887.202,113.953 887.329,113.825 887.329,113.669L887.329,105.449C887.329,105.165 887.046,105.449 887.329,105.449L910.483,105.449C910.638,105.449 910.766,105.321 910.766,105.165L910.766,96.945C910.766,96.661 910.483,96.945 910.766,96.945L917.847,96.945C918.003,96.945 918.13,96.817 918.13,96.661L918.13,79.654C918.13,79.498 918.003,79.37 917.847,79.37L910.766,79.37C910.483,79.37 910.766,79.654 910.766,79.37L910.766,62.929C910.766,62.646 910.483,62.929 910.766,62.929L917.847,62.929C918.003,62.929 918.13,62.802 918.13,62.646L918.13,45.638C918.13,45.482 918.003,45.354 917.847,45.354L910.766,45.354C910.483,45.354 910.766,45.638 910.766,45.354L910.766,37.134C910.766,36.978 910.638,36.85 910.483,36.85L887.329,36.85C887.046,36.85 887.329,37.134 887.329,36.85L887.329,28.63C887.329,28.474 887.202,28.346 887.046,28.346L870.038,28.346C869.882,28.346 869.754,28.474 869.754,28.63L869.754,36.85C869.754,37.134 870.038,36.85 869.754,36.85L853.313,36.85C853.03,36.85 853.313,37.134 853.313,36.85L853.313,28.63C853.313,28.474 853.186,28.346 853.03,28.346L836.022,28.346C835.866,28.346 835.739,28.474 835.739,28.63L835.739,36.85C835.739,37.134 836.022,36.85 835.739,36.85L819.298,36.85C819.014,36.85 819.298,37.134 819.298,36.85L819.298,28.63C819.298,28.474 819.17,28.346 819.014,28.346L802.006,28.346C801.85,28.346 801.723,28.474 801.723,28.63L801.723,36.85C801.723,37.134 802.006,36.85 801.723,36.85L778.569,36.85C778.414,36.85 778.286,36.978 778.286,37.134L778.286,45.354C778.286,45.638 778.569,45.354 778.286,45.354L771.205,45.354C771.049,45.354 770.922,45.482 770.922,45.638L770.922,62.646C770.922,62.802 771.049,62.929 771.205,62.929L778.286,62.929C778.569,62.929 778.286,62.646 778.286,62.929L778.286,79.37C778.286,79.654 778.569,79.37 778.286,79.37L771.205,79.37C771.049,79.37 770.922,79.498 770.922,79.654L770.922,96.661C770.922,96.817 771.049,96.945 771.205,96.945L778.286,96.945C778.569,96.945 778.286,96.661 778.286,96.945L778.286,105.165C778.286,105.321 778.414,105.449 778.569,105.449Z" style="fill:none;fill-rule:nonzero;stroke:black;stroke-width:0.57px;stroke-miterlimit:4;"/>
        </g>
        <g id="p-01" serif:id="p-0">
        </g>
        <g id="p-11" serif:id="p-1" transform="matrix(1,0,0,0.608439,0.00566929,206.869)">
            <path d="M92.299,104.873L84.078,119.112C84.325,119.254 83.937,119.356 84.078,119.112L76.961,115.002C76.825,114.922 76.652,114.97 76.572,115.104L68.068,129.835C67.992,129.969 68.037,130.144 68.173,130.221L75.291,134.331L67.071,148.569C67.317,148.711 66.929,148.816 67.071,148.569L59.953,144.459C59.817,144.38 59.644,144.428 59.564,144.564L51.06,159.293C50.984,159.429 51.029,159.602 51.165,159.678L58.283,163.789L50.063,178.027C50.309,178.169 49.921,178.274 50.063,178.027L42.945,173.917C42.809,173.84 42.636,173.886 42.557,174.022L30.838,194.318L28.383,198.57C28.335,198.658 28.335,198.765 28.383,198.853L30.838,203.105L42.557,223.404C42.636,223.537 42.809,223.586 42.945,223.506L50.063,219.396L50.038,219.273C50.063,219.228 50.148,219.25 50.147,219.302L50.063,219.396L58.283,233.634L51.165,237.745C51.029,237.824 50.984,237.997 51.06,238.133L59.564,252.862C59.644,252.998 59.817,253.043 59.953,252.964L67.071,248.854L67.045,248.731C67.071,248.686 67.156,248.708 67.155,248.759L67.071,248.854L75.291,263.092L68.173,267.202C68.037,267.282 67.992,267.454 68.068,267.591L76.572,282.319C76.652,282.455 76.825,282.501 76.961,282.424L84.078,278.314L92.299,292.552L85.181,296.663C85.045,296.739 85,296.912 85.076,297.048L96.795,317.347L99.249,321.599C99.3,321.684 99.394,321.741 99.496,321.741L127.843,321.741C127.998,321.741 128.126,321.613 128.126,321.457L128.126,313.237L144.567,313.237L144.607,313.117C144.651,313.091 144.713,313.153 144.687,313.197L144.567,313.237L144.567,321.457C144.567,321.613 144.694,321.741 144.85,321.741L161.858,321.741C162.014,321.741 162.142,321.613 162.142,321.457L162.142,313.237L178.583,313.237L178.623,313.117C178.667,313.091 178.729,313.153 178.702,313.197L178.583,313.237L178.583,321.457C178.583,321.613 178.71,321.741 178.866,321.741L195.874,321.741C196.03,321.741 196.157,321.613 196.157,321.457L196.157,313.237L212.598,313.237L212.638,313.117C212.683,313.091 212.745,313.153 212.718,313.197L212.598,313.237L212.598,321.457C212.598,321.613 212.726,321.741 212.882,321.741L241.228,321.741C241.33,321.741 241.424,321.684 241.475,321.599L243.93,317.347L255.648,297.048C255.725,296.912 255.679,296.739 255.543,296.663L248.426,292.552L256.646,278.314L256.562,278.22C256.561,278.168 256.646,278.145 256.671,278.19L256.646,278.314L263.764,282.424C263.9,282.501 264.073,282.455 264.152,282.319L272.656,267.591C272.733,267.454 272.687,267.282 272.551,267.202L265.433,263.092L273.654,248.854L280.772,252.964C280.908,253.043 281.081,252.998 281.16,252.862L289.664,238.133C289.74,237.997 289.695,237.824 289.559,237.745L282.441,233.634L290.662,219.396L290.578,219.302C290.577,219.25 290.662,219.228 290.687,219.273L290.662,219.396L297.78,223.506C297.916,223.586 298.089,223.537 298.168,223.404L309.886,203.105L312.341,198.853C312.389,198.765 312.389,198.658 312.341,198.57L309.886,194.318L298.168,174.022C298.089,173.886 297.916,173.84 297.78,173.917L290.662,178.027C290.803,178.274 290.415,178.169 290.662,178.027L282.441,163.789L289.559,159.678C289.695,159.602 289.74,159.429 289.664,159.293L281.16,144.564C281.081,144.428 280.908,144.38 280.772,144.459L273.654,148.569C273.796,148.816 273.407,148.711 273.654,148.569L265.433,134.331L272.551,130.221C272.687,130.144 272.733,129.969 272.656,129.835L264.152,115.104C264.073,114.97 263.9,114.922 263.764,115.002L256.646,119.112C256.788,119.356 256.399,119.254 256.646,119.112L248.426,104.873L255.543,100.763C255.679,100.684 255.725,100.511 255.648,100.375L243.93,80.079L241.475,75.827C241.424,75.739 241.33,75.685 241.228,75.685L212.882,75.685C212.726,75.685 212.598,75.813 212.598,75.969L212.598,84.189L196.157,84.189C196.157,84.472 195.874,84.189 196.157,84.189L196.157,75.969C196.157,75.813 196.03,75.685 195.874,75.685L178.866,75.685C178.71,75.685 178.583,75.813 178.583,75.969L178.583,84.189L162.142,84.189C162.142,84.472 161.858,84.189 162.142,84.189L162.142,75.969C162.142,75.813 162.014,75.685 161.858,75.685L144.85,75.685C144.694,75.685 144.567,75.813 144.567,75.969L144.567,84.189L128.126,84.189C128.126,84.472 127.843,84.189 128.126,84.189L128.126,75.969C128.126,75.813 127.998,75.685 127.843,75.685L99.496,75.685C99.394,75.685 99.3,75.739 99.249,75.827L96.795,80.079L85.076,100.375C85,100.511 85.045,100.684 85.181,100.763L92.299,104.873ZM128.02,313.131C127.984,313.166 127.984,313.237 128.126,313.237L128.086,313.117L128.02,313.131ZM162.035,313.131C162,313.166 162,313.237 162.142,313.237L162.102,313.117L162.035,313.131ZM196.051,313.131C196.016,313.166 196.016,313.237 196.157,313.237L196.118,313.117L196.051,313.131ZM265.288,263.131C265.301,263.18 265.363,263.215 265.433,263.092L265.309,263.067L265.288,263.131ZM75.291,263.092C75.397,263.277 75.483,263.105 75.415,263.067L75.291,263.092ZM282.296,233.674C282.309,233.722 282.37,233.758 282.441,233.634L282.317,233.609L282.296,233.674ZM58.283,233.634C58.389,233.819 58.475,233.647 58.407,233.609L58.283,233.634ZM170.362,190.209C175.056,190.209 178.866,194.019 178.866,198.713C178.866,203.406 175.056,207.217 170.362,207.217C165.669,207.217 161.858,203.406 161.858,198.713C161.858,194.019 165.669,190.209 170.362,190.209ZM248.426,104.873C248.284,104.627 248.179,105.015 248.426,104.873ZM212.638,84.309C212.683,84.335 212.745,84.273 212.718,84.229L212.598,84.189L212.638,84.309ZM178.623,84.309C178.667,84.335 178.729,84.273 178.702,84.229L178.583,84.189L178.623,84.309ZM144.607,84.309C144.651,84.335 144.713,84.273 144.687,84.229L144.567,84.189L144.607,84.309Z" style="fill:none;stroke:black;stroke-width:0.6px;"/>
        </g>
        <g id="p-21" serif:id="p-2" transform="matrix(1,0,0,0.608439,0.00566929,206.869)">
            <path d="M373.465,100.763L380.582,104.873L372.362,119.112C372.609,119.254 372.22,119.356 372.362,119.112L365.244,115.002C365.108,114.922 364.935,114.97 364.856,115.104L356.352,129.835C356.275,129.969 356.321,130.144 356.457,130.221L363.574,134.331L355.354,148.569C355.601,148.711 355.212,148.816 355.354,148.569L348.236,144.459C348.1,144.38 347.927,144.428 347.848,144.564L339.344,159.293C339.267,159.429 339.313,159.602 339.449,159.678L346.567,163.789L338.346,178.027C338.593,178.169 338.204,178.274 338.346,178.027L331.228,173.917C331.092,173.84 330.919,173.886 330.84,174.022L319.122,194.318L316.667,198.57C316.619,198.658 316.619,198.765 316.667,198.853L319.122,203.105L330.84,223.404C330.919,223.537 331.092,223.586 331.228,223.506L338.346,219.396L346.567,233.634L339.449,237.745C339.313,237.824 339.267,237.997 339.344,238.133L347.848,252.862C347.927,252.998 348.1,253.043 348.236,252.964L355.354,248.854L355.329,248.731C355.354,248.686 355.439,248.708 355.438,248.759L355.354,248.854L363.574,263.092L356.457,267.202C356.321,267.282 356.275,267.454 356.352,267.591L364.856,282.319C364.935,282.455 365.108,282.501 365.244,282.424L372.362,278.314L372.337,278.19C372.362,278.145 372.447,278.168 372.446,278.22L372.362,278.314L380.582,292.552L373.465,296.663C373.329,296.739 373.283,296.912 373.36,297.048L385.078,317.347L387.533,321.599C387.584,321.684 387.677,321.741 387.78,321.741L416.126,321.741C416.282,321.741 416.409,321.613 416.409,321.457L416.409,313.237L432.85,313.237L432.89,313.117C432.935,313.091 432.997,313.153 432.97,313.197L432.85,313.237L432.85,321.457C432.85,321.613 432.978,321.741 433.134,321.741L450.142,321.741C450.298,321.741 450.425,321.613 450.425,321.457L450.425,313.237L466.866,313.237L466.906,313.117C466.95,313.091 467.012,313.153 466.986,313.197L466.866,313.237L466.866,321.457C466.866,321.613 466.994,321.741 467.15,321.741L484.157,321.741C484.313,321.741 484.441,321.613 484.441,321.457L484.441,313.237L500.882,313.237L500.922,313.117C500.966,313.091 501.028,313.153 501.001,313.197L500.882,313.237L500.882,321.457C500.882,321.613 501.009,321.741 501.165,321.741L529.512,321.741C529.614,321.741 529.707,321.684 529.758,321.599L532.213,317.347L543.932,297.048C544.008,296.912 543.963,296.739 543.827,296.663L536.709,292.552L544.929,278.314L544.845,278.22C544.844,278.168 544.929,278.145 544.955,278.19L544.929,278.314L552.047,282.424C552.183,282.501 552.356,282.455 552.436,282.319L560.94,267.591C561.016,267.454 560.971,267.282 560.835,267.202L553.717,263.092L561.937,248.854L561.853,248.759C561.852,248.708 561.937,248.686 561.962,248.731L561.937,248.854L569.055,252.964C569.191,253.043 569.364,252.998 569.443,252.862L577.947,238.133C578.024,237.997 577.979,237.824 577.843,237.745L570.725,233.634L578.945,219.396L578.861,219.302C578.86,219.25 578.945,219.228 578.97,219.273L578.945,219.396L586.063,223.506C586.199,223.586 586.372,223.537 586.451,223.404L598.17,203.105L600.625,198.853C600.673,198.765 600.673,198.658 600.625,198.57L598.17,194.318L586.451,174.022C586.372,173.886 586.199,173.84 586.063,173.917L578.945,178.027C579.087,178.274 578.699,178.169 578.945,178.027L570.725,163.789L577.843,159.678C577.979,159.602 578.024,159.429 577.947,159.293L569.443,144.564C569.364,144.428 569.191,144.38 569.055,144.459L561.937,148.569C562.079,148.816 561.691,148.711 561.937,148.569L553.717,134.331L560.835,130.221C560.971,130.144 561.016,129.969 560.94,129.835L552.436,115.104C552.356,114.97 552.183,114.922 552.047,115.002L544.929,119.112C545.071,119.356 544.683,119.254 544.929,119.112L536.709,104.873L543.827,100.763C543.963,100.684 544.008,100.511 543.932,100.375L532.213,80.079L529.758,75.827C529.707,75.739 529.614,75.685 529.512,75.685L501.165,75.685C501.009,75.685 500.882,75.813 500.882,75.969L500.882,84.189L484.441,84.189C484.441,84.472 484.157,84.189 484.441,84.189L484.441,75.969C484.441,75.813 484.313,75.685 484.157,75.685L467.15,75.685C466.994,75.685 466.866,75.813 466.866,75.969L466.866,84.189L450.425,84.189C450.425,84.472 450.142,84.189 450.425,84.189L450.425,75.969C450.425,75.813 450.298,75.685 450.142,75.685L433.134,75.685C432.978,75.685 432.85,75.813 432.85,75.969L432.85,84.189L416.409,84.189C416.409,84.472 416.126,84.189 416.409,84.189L416.409,75.969C416.409,75.813 416.282,75.685 416.126,75.685L387.78,75.685C387.677,75.685 387.584,75.739 387.533,75.827L385.078,80.079L373.36,100.375C373.283,100.511 373.329,100.684 373.465,100.763ZM416.303,313.131C416.268,313.166 416.268,313.237 416.409,313.237L416.37,313.117L416.303,313.131ZM450.319,313.131C450.283,313.166 450.283,313.237 450.425,313.237L450.385,313.117L450.319,313.131ZM484.335,313.131C484.299,313.166 484.299,313.237 484.441,313.237L484.401,313.117L484.335,313.131ZM464.201,113.856C460.497,113.613 456.781,113.613 453.077,113.856L451.936,122.472C449.74,122.665 447.553,122.953 445.382,123.334L442.049,115.308C438.408,116.032 434.819,116.993 431.304,118.187L432.431,126.805C430.36,127.559 428.323,128.403 426.324,129.334L421.027,122.443C417.698,124.085 414.48,125.943 411.394,128.005L414.713,136.038C412.908,137.303 411.158,138.646 409.469,140.062L402.569,134.777C399.778,137.224 397.151,139.852 394.703,142.643L399.988,149.542C398.572,151.232 397.229,152.981 395.964,154.787L387.932,151.468C385.869,154.554 384.012,157.772 382.37,161.101L389.261,166.398C388.33,168.396 387.486,170.434 386.731,172.505L378.113,171.378C376.92,174.893 375.958,178.482 375.234,182.123L383.261,185.456C382.879,187.627 382.591,189.813 382.398,192.009L373.782,193.151C373.539,196.855 373.539,200.571 373.782,204.275L382.398,205.417C382.591,207.613 382.879,209.799 383.261,211.97L375.234,215.303C375.958,218.944 376.92,222.533 378.113,226.048L386.731,224.921C387.486,226.992 388.33,229.03 389.261,231.028L382.37,236.325C384.012,239.654 385.869,242.872 387.932,245.958L395.964,242.639C397.229,244.444 398.572,246.194 399.988,247.883L394.703,254.783C397.151,257.574 399.778,260.201 402.569,262.649L409.469,257.364C411.158,258.78 412.908,260.123 414.713,261.388L411.394,269.421C414.48,271.483 417.698,273.341 421.027,274.982L426.324,268.092C428.323,269.022 430.36,269.866 432.431,270.621L431.304,279.239C434.819,280.432 438.408,281.394 442.049,282.118L445.382,274.091C447.553,274.473 449.74,274.761 451.936,274.954L453.077,283.57C456.781,283.813 460.497,283.813 464.201,283.57L465.343,274.954C467.539,274.761 469.726,274.473 471.897,274.091L475.23,282.118C478.87,281.394 482.459,280.432 485.974,279.239L484.847,270.621C486.918,269.866 488.956,269.022 490.954,268.092L496.251,274.982C499.58,273.341 502.798,271.483 505.885,269.421L502.566,261.388C504.371,260.123 506.12,258.78 507.81,257.364L514.71,262.649C517.5,260.201 520.128,257.574 522.575,254.783L517.29,247.883C518.707,246.194 520.049,244.444 521.314,242.639L529.347,245.958C531.409,242.872 533.267,239.654 534.909,236.325L528.018,231.028C528.949,229.03 529.793,226.992 530.548,224.921L539.166,226.048C540.359,222.533 541.321,218.944 542.045,215.303L534.018,211.97C534.4,209.799 534.687,207.613 534.881,205.417L543.497,204.275C543.739,200.571 543.739,196.855 543.497,193.151L534.881,192.009C534.687,189.813 534.4,187.627 534.018,185.456L542.045,182.123C541.321,178.482 540.359,174.893 539.166,171.378L530.548,172.505C529.793,170.434 528.949,168.396 528.018,166.398L534.909,161.101C533.267,157.772 531.409,154.554 529.347,151.468L521.314,154.787C520.049,152.981 518.707,151.232 517.29,149.542L522.575,142.643C520.128,139.852 517.5,137.224 514.71,134.777L507.81,140.062C506.12,138.646 504.371,137.303 502.566,136.038L505.885,128.005C502.798,125.943 499.58,124.085 496.251,122.443L490.954,129.334C488.956,128.403 486.918,127.559 484.847,126.805L485.974,118.187C482.459,116.993 478.87,116.032 475.23,115.308L471.897,123.334C469.726,122.953 467.539,122.665 465.343,122.472L464.201,113.856ZM553.717,263.092C553.47,262.95 553.575,263.339 553.717,263.092ZM363.574,263.092C363.681,263.277 363.766,263.105 363.698,263.067L363.574,263.092ZM570.579,233.674C570.592,233.722 570.654,233.758 570.725,233.634L570.601,233.609L570.579,233.674ZM346.567,233.634C346.673,233.819 346.758,233.647 346.691,233.609L346.567,233.634ZM536.709,104.873C536.567,104.627 536.462,105.015 536.709,104.873ZM380.582,104.873C380.767,104.98 380.755,104.788 380.677,104.789L380.582,104.873ZM432.89,84.309C432.935,84.335 432.997,84.273 432.97,84.229L432.85,84.189L432.89,84.309ZM466.906,84.309C466.95,84.335 467.012,84.273 466.986,84.229L466.866,84.189L466.906,84.309ZM500.922,84.309C500.966,84.335 501.028,84.273 501.001,84.229L500.882,84.189L500.922,84.309Z" style="fill:none;stroke:black;stroke-width:0.57px;stroke-miterlimit:4;"/>
        </g>
        <g id="p-31" serif:id="p-3" transform="matrix(1,0,0,0.608439,0.00566929,206.869)">
            <path d="M165.589,36.89L165.563,36.873L165.453,36.85L142.299,36.85C142.299,37.134 142.016,36.85 142.299,36.85L142.299,28.63C142.299,28.474 142.172,28.346 142.016,28.346L125.008,28.346C124.852,28.346 124.724,28.474 124.724,28.63L124.724,36.85L108.283,36.85C108.283,37.134 108,36.85 108.283,36.85L108.283,28.63C108.283,28.474 108.156,28.346 108,28.346L90.992,28.346C90.836,28.346 90.709,28.474 90.709,28.63L90.709,36.85L74.268,36.85C74.268,37.134 73.984,36.85 74.268,36.85L74.268,28.63C74.268,28.474 74.14,28.346 73.984,28.346L56.976,28.346C56.82,28.346 56.693,28.474 56.693,28.63L56.693,36.85L33.54,36.85C33.462,36.85 33.391,36.882 33.339,36.934L33.278,37.024C33.322,36.922 33.423,36.85 33.54,36.85L28.63,36.85C28.474,36.85 28.346,36.978 28.346,37.134L28.346,43.512C28.346,43.668 28.474,43.795 28.63,43.795L35.711,43.795L35.722,43.714C35.766,43.598 35.909,43.74 35.792,43.784L35.711,43.795L35.711,55.984L28.63,55.984C28.474,55.984 28.346,56.112 28.346,56.268L28.346,62.646C28.346,62.802 28.474,62.929 28.63,62.929L56.693,62.929L56.705,62.848C56.748,62.731 56.891,62.874 56.774,62.918L56.693,62.929L56.693,71.15C56.693,71.306 56.82,71.433 56.976,71.433L73.984,71.433C74.14,71.433 74.268,71.306 74.268,71.15L74.268,62.929L90.709,62.929L90.72,62.848C90.763,62.731 90.906,62.874 90.79,62.918L90.709,62.929L90.709,71.15C90.709,71.306 90.836,71.433 90.992,71.433L108,71.433C108.156,71.433 108.283,71.306 108.283,71.15L108.283,62.929L124.724,62.929L124.736,62.848C124.779,62.731 124.922,62.874 124.806,62.918L124.724,62.929L124.724,71.15C124.724,71.306 124.852,71.433 125.008,71.433L142.016,71.433C142.172,71.433 142.299,71.306 142.299,71.15L142.299,62.929L170.362,62.929C170.518,62.929 170.646,62.802 170.646,62.646L170.646,56.268C170.646,56.112 170.518,55.984 170.362,55.984L163.281,55.984C163.281,56.268 162.998,55.984 163.281,55.984L163.281,43.795L170.362,43.795C170.518,43.795 170.646,43.668 170.646,43.512L170.646,37.134C170.646,36.978 170.518,36.85 170.362,36.85L165.453,36.85C165.503,36.85 165.55,36.864 165.589,36.89C165.677,36.935 165.736,37.028 165.736,37.134C165.736,37.028 165.677,36.935 165.589,36.89ZM74.161,62.823C74.126,62.858 74.126,62.929 74.268,62.929L74.256,62.848C74.242,62.809 74.216,62.799 74.193,62.805L74.161,62.823ZM108.177,62.823C108.142,62.858 108.142,62.929 108.283,62.929L108.272,62.848C108.257,62.809 108.232,62.799 108.209,62.805L108.177,62.823ZM142.193,62.823C142.157,62.858 142.157,62.929 142.299,62.929L142.288,62.848C142.273,62.809 142.248,62.799 142.224,62.805L142.193,62.823ZM113.664,43.087L85.317,43.087L85.317,57.26L113.664,57.26L113.664,43.087ZM35.722,56.066C35.766,56.182 35.909,56.039 35.792,55.996L35.711,55.984L35.722,56.066ZM163.175,43.689C163.14,43.724 163.14,43.795 163.281,43.795L163.27,43.714C163.255,43.675 163.23,43.665 163.207,43.671L163.175,43.689ZM124.736,36.932C124.779,37.048 124.922,36.905 124.806,36.862L124.724,36.85L124.736,36.932ZM90.72,36.932C90.763,37.048 90.906,36.905 90.79,36.862L90.709,36.85L90.72,36.932ZM56.705,36.932C56.748,37.048 56.891,36.905 56.774,36.862L56.693,36.85L56.705,36.932ZM165.714,62.756C165.728,62.722 165.736,62.685 165.736,62.646C165.736,62.763 165.664,62.864 165.563,62.907L165.653,62.846L165.714,62.756ZM33.352,62.854L33.339,62.846L33.352,62.854Z" style="fill:none;stroke:black;stroke-width:0.57px;stroke-miterlimit:4;"/>
        </g>
        <g id="p-41" serif:id="p-4" transform="matrix(1,0,0,0.608439,0.00566929,206.869)">
            <path d="M182.546,62.929L205.699,62.929C205.982,62.929 205.699,62.646 205.699,62.929L205.699,71.15C205.699,71.306 205.826,71.433 205.982,71.433L222.99,71.433C223.146,71.433 223.274,71.306 223.274,71.15L223.274,62.929C223.274,62.646 222.99,62.929 223.274,62.929L239.715,62.929C239.998,62.929 239.715,62.646 239.715,62.929L239.715,71.15C239.715,71.306 239.842,71.433 239.998,71.433L257.006,71.433C257.162,71.433 257.289,71.306 257.289,71.15L257.289,62.929C257.289,62.646 257.006,62.929 257.289,62.929L273.73,62.929C274.014,62.929 273.73,62.646 273.73,62.929L273.73,71.15C273.73,71.306 273.858,71.433 274.014,71.433L291.022,71.433C291.178,71.433 291.305,71.306 291.305,71.15L291.305,62.929C291.305,62.646 291.022,62.929 291.305,62.929L314.459,62.929C314.614,62.929 314.742,62.802 314.742,62.646L314.742,56.551C314.742,56.268 314.459,56.551 314.742,56.551L321.823,56.551C321.979,56.551 322.106,56.424 322.106,56.268L322.106,43.512C322.106,43.356 321.979,43.228 321.823,43.228L314.742,43.228C314.459,43.228 314.742,43.512 314.742,43.228L314.742,37.134C314.742,36.978 314.614,36.85 314.459,36.85L291.305,36.85C291.022,36.85 291.305,37.134 291.305,36.85L291.305,28.63C291.305,28.474 291.178,28.346 291.022,28.346L274.014,28.346C273.858,28.346 273.73,28.474 273.73,28.63L273.73,36.85C273.73,37.134 274.014,36.85 273.73,36.85L257.289,36.85C257.006,36.85 257.289,37.134 257.289,36.85L257.289,28.63C257.289,28.474 257.162,28.346 257.006,28.346L239.998,28.346C239.842,28.346 239.715,28.474 239.715,28.63L239.715,36.85C239.715,37.134 239.998,36.85 239.715,36.85L223.274,36.85C222.99,36.85 223.274,37.134 223.274,36.85L223.274,28.63C223.274,28.474 223.146,28.346 222.99,28.346L205.982,28.346C205.826,28.346 205.699,28.474 205.699,28.63L205.699,36.85C205.699,37.134 205.982,36.85 205.699,36.85L182.546,36.85C182.39,36.85 182.262,36.978 182.262,37.134L182.262,43.228C182.262,43.512 182.546,43.228 182.262,43.228L175.181,43.228C175.025,43.228 174.898,43.356 174.898,43.512L174.898,56.268C174.898,56.424 175.025,56.551 175.181,56.551L182.262,56.551C182.546,56.551 182.262,56.268 182.262,56.551L182.262,62.646C182.262,62.802 182.39,62.929 182.546,62.929Z" style="fill:none;fill-rule:nonzero;stroke:black;stroke-width:0.57px;stroke-miterlimit:4;"/>
        </g>
        <g id="p-51" serif:id="p-5" transform="matrix(1,0,0,0.608439,0.00566929,206.869)">
            <path d="M331.551,62.929L354.705,62.929C354.988,62.929 354.705,62.646 354.705,62.929L354.705,71.15C354.705,71.306 354.832,71.433 354.988,71.433L371.996,71.433C372.152,71.433 372.28,71.306 372.28,71.15L372.28,62.929C372.28,62.646 371.996,62.929 372.28,62.929L388.721,62.929C389.004,62.929 388.721,62.646 388.721,62.929L388.721,71.15C388.721,71.306 388.848,71.433 389.004,71.433L406.012,71.433C406.168,71.433 406.295,71.306 406.295,71.15L406.295,62.929C406.295,62.646 406.012,62.929 406.295,62.929L422.736,62.929C423.02,62.929 422.736,62.646 422.736,62.929L422.736,71.15C422.736,71.306 422.864,71.433 423.02,71.433L440.028,71.433C440.184,71.433 440.311,71.306 440.311,71.15L440.311,62.929C440.311,62.646 440.028,62.929 440.311,62.929L463.465,62.929C463.62,62.929 463.748,62.802 463.748,62.646C463.748,62.802 463.62,62.929 463.465,62.929L468.374,62.929C468.53,62.929 468.658,62.802 468.658,62.646L468.658,56.268C468.658,56.112 468.53,55.984 468.374,55.984L461.293,55.984C461.01,55.984 461.293,56.268 461.293,55.984L461.293,43.795C461.293,43.512 461.01,43.795 461.293,43.795L468.374,43.795C468.53,43.795 468.658,43.668 468.658,43.512L468.658,37.134C468.658,36.978 468.53,36.85 468.374,36.85L463.465,36.85C463.62,36.85 463.748,36.978 463.748,37.134C463.748,36.978 463.62,36.85 463.465,36.85L440.311,36.85C440.028,36.85 440.311,37.134 440.311,36.85L440.311,28.63C440.311,28.474 440.184,28.346 440.028,28.346L423.02,28.346C422.864,28.346 422.736,28.474 422.736,28.63L422.736,36.85C422.736,37.134 423.02,36.85 422.736,36.85L406.295,36.85C406.012,36.85 406.295,37.134 406.295,36.85L406.295,28.63C406.295,28.474 406.168,28.346 406.012,28.346L389.004,28.346C388.848,28.346 388.721,28.474 388.721,28.63L388.721,36.85C388.721,37.134 389.004,36.85 388.721,36.85L372.28,36.85C371.996,36.85 372.28,37.134 372.28,36.85L372.28,28.63C372.28,28.474 372.152,28.346 371.996,28.346L354.988,28.346C354.832,28.346 354.705,28.474 354.705,28.63L354.705,36.85C354.705,37.134 354.988,36.85 354.705,36.85L331.551,36.85C331.396,36.85 331.268,36.978 331.268,37.134C331.268,36.978 331.396,36.85 331.551,36.85L326.642,36.85C326.486,36.85 326.358,36.978 326.358,37.134L326.358,43.512C326.358,43.668 326.486,43.795 326.642,43.795L333.723,43.795C334.006,43.795 333.723,43.512 333.723,43.795L333.723,55.984C333.723,56.268 334.006,55.984 333.723,55.984L326.642,55.984C326.486,55.984 326.358,56.112 326.358,56.268L326.358,62.646C326.358,62.802 326.486,62.929 326.642,62.929L331.551,62.929C331.396,62.929 331.268,62.802 331.268,62.646C331.268,62.802 331.396,62.929 331.551,62.929Z" style="fill:none;fill-rule:nonzero;stroke:black;stroke-width:0.57px;stroke-miterlimit:4;"/>
        </g>
        <g id="p-61" serif:id="p-6" transform="matrix(1,0,0,0.608439,0.00566929,206.869)">
            <path d="M480.557,62.929L503.711,62.929C503.994,62.929 503.711,62.646 503.711,62.929L503.711,71.15C503.711,71.306 503.838,71.433 503.994,71.433L521.002,71.433C521.158,71.433 521.286,71.306 521.286,71.15L521.286,62.929C521.286,62.646 521.002,62.929 521.286,62.929L537.727,62.929C538.01,62.929 537.727,62.646 537.727,62.929L537.727,71.15C537.727,71.306 537.854,71.433 538.01,71.433L555.018,71.433C555.174,71.433 555.301,71.306 555.301,71.15L555.301,62.929C555.301,62.646 555.018,62.929 555.301,62.929L571.742,62.929C572.026,62.929 571.742,62.646 571.742,62.929L571.742,71.15C571.742,71.306 571.87,71.433 572.026,71.433L589.034,71.433C589.19,71.433 589.317,71.306 589.317,71.15L589.317,62.929C589.317,62.646 589.034,62.929 589.317,62.929L612.471,62.929C612.626,62.929 612.754,62.802 612.754,62.646L612.754,56.551C612.754,56.268 612.471,56.551 612.754,56.551L619.835,56.551C619.991,56.551 620.118,56.424 620.118,56.268L620.118,43.512C620.118,43.356 619.991,43.228 619.835,43.228L612.754,43.228C612.471,43.228 612.754,43.512 612.754,43.228L612.754,37.134C612.754,36.978 612.626,36.85 612.471,36.85L589.317,36.85C589.034,36.85 589.317,37.134 589.317,36.85L589.317,28.63C589.317,28.474 589.19,28.346 589.034,28.346L572.026,28.346C571.87,28.346 571.742,28.474 571.742,28.63L571.742,36.85C571.742,37.134 572.026,36.85 571.742,36.85L555.301,36.85C555.018,36.85 555.301,37.134 555.301,36.85L555.301,28.63C555.301,28.474 555.174,28.346 555.018,28.346L538.01,28.346C537.854,28.346 537.727,28.474 537.727,28.63L537.727,36.85C537.727,37.134 538.01,36.85 537.727,36.85L521.286,36.85C521.002,36.85 521.286,37.134 521.286,36.85L521.286,28.63C521.286,28.474 521.158,28.346 521.002,28.346L503.994,28.346C503.838,28.346 503.711,28.474 503.711,28.63L503.711,36.85C503.711,37.134 503.994,36.85 503.711,36.85L480.557,36.85C480.402,36.85 480.274,36.978 480.274,37.134L480.274,43.228C480.274,43.512 480.557,43.228 480.274,43.228L473.193,43.228C473.037,43.228 472.91,43.356 472.91,43.512L472.91,56.268C472.91,56.424 473.037,56.551 473.193,56.551L480.274,56.551C480.557,56.551 480.274,56.268 480.274,56.551L480.274,62.646C480.274,62.802 480.402,62.929 480.557,62.929Z" style="fill:none;fill-rule:nonzero;stroke:black;stroke-width:0.57px;stroke-miterlimit:4;"/>
        </g>
        <g id="p-71" serif:id="p-7" transform="matrix(1,0,0,0.608439,0.00566929,206.869)">
            <path d="M629.563,62.929L652.717,62.929C653,62.929 652.717,62.646 652.717,62.929L652.717,71.15C652.717,71.306 652.844,71.433 653,71.433L670.008,71.433C670.164,71.433 670.292,71.306 670.292,71.15L670.292,62.929C670.292,62.646 670.008,62.929 670.292,62.929L686.733,62.929C687.016,62.929 686.733,62.646 686.733,62.929L686.733,71.15C686.733,71.306 686.86,71.433 687.016,71.433L704.024,71.433C704.18,71.433 704.307,71.306 704.307,71.15L704.307,62.929C704.307,62.646 704.024,62.929 704.307,62.929L720.748,62.929C721.032,62.929 720.748,62.646 720.748,62.929L720.748,71.15C720.748,71.306 720.876,71.433 721.032,71.433L738.04,71.433C738.196,71.433 738.323,71.306 738.323,71.15L738.323,62.929C738.323,62.646 738.04,62.929 738.323,62.929L761.477,62.929C761.632,62.929 761.76,62.802 761.76,62.646C761.76,62.802 761.632,62.929 761.477,62.929L766.386,62.929C766.542,62.929 766.67,62.802 766.67,62.646L766.67,56.268C766.67,56.112 766.542,55.984 766.386,55.984L759.305,55.984C759.022,55.984 759.305,56.268 759.305,55.984L759.305,43.795C759.305,43.512 759.022,43.795 759.305,43.795L766.386,43.795C766.542,43.795 766.67,43.668 766.67,43.512L766.67,37.134C766.67,36.978 766.542,36.85 766.386,36.85L761.477,36.85C761.632,36.85 761.76,36.978 761.76,37.134C761.76,36.978 761.632,36.85 761.477,36.85L738.323,36.85C738.04,36.85 738.323,37.134 738.323,36.85L738.323,28.63C738.323,28.474 738.196,28.346 738.04,28.346L721.032,28.346C720.876,28.346 720.748,28.474 720.748,28.63L720.748,36.85C720.748,37.134 721.032,36.85 720.748,36.85L704.307,36.85C704.024,36.85 704.307,37.134 704.307,36.85L704.307,28.63C704.307,28.474 704.18,28.346 704.024,28.346L687.016,28.346C686.86,28.346 686.733,28.474 686.733,28.63L686.733,36.85C686.733,37.134 687.016,36.85 686.733,36.85L670.292,36.85C670.008,36.85 670.292,37.134 670.292,36.85L670.292,28.63C670.292,28.474 670.164,28.346 670.008,28.346L653,28.346C652.844,28.346 652.717,28.474 652.717,28.63L652.717,36.85C652.717,37.134 653,36.85 652.717,36.85L629.563,36.85C629.408,36.85 629.28,36.978 629.28,37.134C629.28,36.978 629.408,36.85 629.563,36.85L624.654,36.85C624.498,36.85 624.37,36.978 624.37,37.134L624.37,43.512C624.37,43.668 624.498,43.795 624.654,43.795L631.735,43.795C632.018,43.795 631.735,43.512 631.735,43.795L631.735,55.984C631.735,56.268 632.018,55.984 631.735,55.984L624.654,55.984C624.498,55.984 624.37,56.112 624.37,56.268L624.37,62.646C624.37,62.802 624.498,62.929 624.654,62.929L629.563,62.929C629.408,62.929 629.28,62.802 629.28,62.646C629.28,62.802 629.408,62.929 629.563,62.929Z" style="fill:none;fill-rule:nonzero;stroke:black;stroke-width:0.57px;stroke-miterlimit:4;"/>
        </g>
        <g id="p-81" serif:id="p-8" transform="matrix(1,0,0,0.608439,0.00566929,206.869)">
            <path d="M778.569,62.929L801.723,62.929C802.006,62.929 801.723,62.646 801.723,62.929L801.723,71.15C801.723,71.306 801.85,71.433 802.006,71.433L819.014,71.433C819.17,71.433 819.298,71.306 819.298,71.15L819.298,62.929C819.298,62.646 819.014,62.929 819.298,62.929L835.739,62.929C836.022,62.929 835.739,62.646 835.739,62.929L835.739,71.15C835.739,71.306 835.866,71.433 836.022,71.433L853.03,71.433C853.186,71.433 853.313,71.306 853.313,71.15L853.313,62.929C853.313,62.646 853.03,62.929 853.313,62.929L869.754,62.929C870.038,62.929 869.754,62.646 869.754,62.929L869.754,71.15C869.754,71.306 869.882,71.433 870.038,71.433L887.046,71.433C887.202,71.433 887.329,71.306 887.329,71.15L887.329,62.929C887.329,62.646 887.046,62.929 887.329,62.929L910.483,62.929C910.638,62.929 910.766,62.802 910.766,62.646L910.766,56.551C910.766,56.268 910.483,56.551 910.766,56.551L917.847,56.551C918.003,56.551 918.13,56.424 918.13,56.268L918.13,43.512C918.13,43.356 918.003,43.228 917.847,43.228L910.766,43.228C910.483,43.228 910.766,43.512 910.766,43.228L910.766,37.134C910.766,36.978 910.638,36.85 910.483,36.85L887.329,36.85C887.046,36.85 887.329,37.134 887.329,36.85L887.329,28.63C887.329,28.474 887.202,28.346 887.046,28.346L870.038,28.346C869.882,28.346 869.754,28.474 869.754,28.63L869.754,36.85C869.754,37.134 870.038,36.85 869.754,36.85L853.313,36.85C853.03,36.85 853.313,37.134 853.313,36.85L853.313,28.63C853.313,28.474 853.186,28.346 853.03,28.346L836.022,28.346C835.866,28.346 835.739,28.474 835.739,28.63L835.739,36.85C835.739,37.134 836.022,36.85 835.739,36.85L819.298,36.85C819.014,36.85 819.298,37.134 819.298,36.85L819.298,28.63C819.298,28.474 819.17,28.346 819.014,28.346L802.006,28.346C801.85,28.346 801.723,28.474 801.723,28.63L801.723,36.85C801.723,37.134 802.006,36.85 801.723,36.85L778.569,36.85C778.414,36.85 778.286,36.978 778.286,37.134L778.286,43.228C778.286,43.512 778.569,43.228 778.286,43.228L771.205,43.228C771.049,43.228 770.922,43.356 770.922,43.512L770.922,56.268C770.922,56.424 771.049,56.551 771.205,56.551L778.286,56.551C778.569,56.551 778.286,56.268 778.286,56.551L778.286,62.646C778.286,62.802 778.414,62.929 778.569,62.929Z" style="fill:none;fill-rule:nonzero;stroke:black;stroke-width:0.57px;stroke-miterlimit:4;"/>
        </g>
        <g transform="matrix(0.833333,0,0,0.507033,85.7752,41.9316)">
            <path d="M627.045,419.209C624.119,418.904 621.17,418.904 618.244,419.209L617.656,430.003C614.351,430.526 611.148,431.567 608.167,433.086L601.346,424.699C598.8,426.173 596.414,427.906 594.226,429.872L600.095,438.951C597.729,441.317 595.75,444.041 594.231,447.022L583.783,444.246C582.589,446.935 581.678,449.74 581.063,452.616L591.147,456.511C590.624,459.817 590.624,463.183 591.147,466.489L581.063,470.384C581.678,473.26 582.589,476.065 583.783,478.754L594.231,475.978C595.75,478.959 597.729,481.683 600.095,484.049L594.226,493.128C596.414,495.094 598.8,496.827 601.346,498.301L608.167,489.914C611.148,491.433 614.351,492.474 617.656,492.997L618.244,503.791C621.17,504.096 624.119,504.096 627.045,503.791L627.633,492.997C630.938,492.474 634.141,491.433 637.122,489.914L643.943,498.301C646.489,496.827 648.875,495.094 651.063,493.128L645.194,484.049C647.56,481.683 649.539,478.959 651.058,475.978L661.506,478.754C662.7,476.065 663.611,473.26 664.226,470.384L654.142,466.489C654.665,463.183 654.665,459.817 654.142,456.511L664.226,452.616C663.611,449.74 662.7,446.935 661.506,444.246L651.058,447.022C649.539,444.041 647.56,441.317 645.194,438.951L651.063,429.872C648.875,427.906 646.489,426.173 643.943,424.699L637.122,433.086C634.141,431.567 630.938,430.526 627.633,430.003L627.045,419.209ZM622.645,454.697C626.399,454.697 629.448,457.745 629.448,461.5C629.448,465.255 626.399,468.303 622.645,468.303C618.89,468.303 615.841,465.255 615.841,461.5C615.841,457.745 618.89,454.697 622.645,454.697Z" style="fill:none;stroke:black;stroke-width:0.72px;"/>
        </g>
    </g>
</svg>
